<?xml version="1.0" standalone="no"?>
<!DOCTYPE svg PUBLIC "-//W3C//DTD SVG 1.1//EN" "http://www.w3.org/Graphics/SVG/1.1/DTD/svg11.dtd" >
<!--
2013-9-30: Created.
-->
<svg>
<metadata>
Created by iconfont
</metadata>
<defs>

<font id="iconfont" horiz-adv-x="1024" >
  <font-face
    font-family="iconfont"
    font-weight="500"
    font-stretch="normal"
    units-per-em="1024"
    ascent="896"
    descent="-128"
  />
    <missing-glyph />
    
    <glyph glyph-name="icon-user" unicode="&#58999;" d="M651.296 350.022c63.558 42.814 105.359 115.236 105.359 197.533 0 133.334-110.365 241.976-245.813 241.976-135.452 0-244.161-108.642-244.161-240.322 0-82.297 41.822-154.739 105.358-197.531-143.805-55.98-244.135-191.070-244.135-350.748v0h68.562c0 158.026 122.068 288.198 277.581 306.303 1.674 0 43.476 3.285 78.595 0h3.35c152.184-21.413 269.225-149.807 269.225-306.179v0h70.24c-1.675 158.025-102.007 294.644-244.159 348.969v0zM510.841 368.144c-102.008 0-183.93 80.645-183.93 181.064s81.922 181.063 183.93 181.063c102.007 0 183.929-80.644 183.929-181.063 0-100.419-81.922-181.064-183.929-181.064v0zM510.841 368.144z"  horiz-adv-x="1024" />

    
    <glyph glyph-name="icon-test" unicode="&#58932;" d="M879.3 853.13333333H144.2c-44.2 0-80-35.8-80-80v-735.1c0-44.2 35.8-80 80-80h735.1c44.2 0 80 35.8 80 80V773.13333333c0 44.2-35.8 80-80 80z m15.1-786.2c0-25.4-20.6-46-46-46H174.7c-25.4 0-46 20.6-46 46V740.63333333c0 25.4 20.6 46 46 46h673.7c25.4 0 46-20.6 46-46v-673.7zM715.3 431.13333333H540.5V610.73333333h-64v-179.6H294.3v-64h182.2v-177.5h64V367.13333333h174.8z"  horiz-adv-x="1024" />

    
    <glyph glyph-name="liujiaoxing-kong" unicode="&#58934;" d="M764.16 239.67999999999995l49.06666667-300.16c3.41333333-21.12-18.88-36.90666667-37.76-26.56L521.81333333 53.01333333000002c-7.78666667 4.26666667-17.17333333 4.26666667-24.74666666 0L243.41333333-87.03999999999996c-18.66666667-10.34666667-41.17333333 5.44-37.76 26.56l49.06666667 300.16c1.28 8.10666667-1.28 16.32-6.93333333 21.97333333L39.89333333 474.45333333c-14.61333333 14.93333333-6.18666667 40.10666667 14.50666667 43.30666667l285.12 43.52c8.42666667 1.28 15.78666667 6.72 19.30666667 14.50666667L486.18666667 846.82666667c9.28 19.62666667 37.22666667 19.62666667 46.4 0l127.36-271.14666667c3.62666667-7.78666667 10.88-13.22666667 19.30666666-14.50666667l285.12-43.52c20.58666667-3.2 29.01333333-28.26666667 14.50666667-43.30666666L770.98666667 261.76c-5.65333333-5.86666667-8.10666667-13.97333333-6.82666667-22.08zM602.98666667 479.46666667l-93.65333334 235.52-91.30666666-235.52-246.61333334-25.70666667 179.62666667-178.98666667-53.97333333-242.56 212.26666666 122.45333334 204.16-117.54666667-46.72 231.36 176.53333334 189.33333333-240.32 21.65333334z m0 0"  horiz-adv-x="1024" />

    
    <glyph glyph-name="liujiaoxing-shixin" unicode="&#58935;" d="M770.77333333 238.08000000000004l49.17333334-301.12c3.41333333-21.22666667-18.98666667-37.01333333-37.86666667-26.66666667L527.68 50.773333330000014c-7.78666667 4.26666667-17.17333333 4.26666667-24.85333333 0L248.42666667-89.70666667c-18.77333333-10.34666667-41.28 5.44-37.86666667 26.66666667l49.17333333 301.12c1.28 8.10666667-1.28 16.32-6.93333333 22.08L44.26666667 473.6c-14.61333333 14.93333333-6.18666667 40.21333333 14.50666666 43.41333333l285.97333334 43.62666667c8.42666667 1.28 15.78666667 6.72 19.41333333 14.50666667l127.78666667 272c9.28 19.73333333 37.33333333 19.73333333 46.50666666 0l127.78666667-272c3.62666667-7.78666667 10.88-13.22666667 19.41333333-14.50666667l285.97333334-43.62666667c20.69333333-3.2 29.12-28.37333333 14.50666666-43.41333333L777.70666667 260.26666666999995c-5.65333333-5.97333333-8.21333333-14.08-6.93333334-22.18666667z"  horiz-adv-x="1024" />

    
    <glyph glyph-name="hulvegaojing1" unicode="&#58941;" d="M512.64 861.9733333300001C248.96 861.9733333300001 35.2 648.2133333300001 35.2 384.53333333S249.06666667-92.79999999999995 512.64-92.79999999999995s477.44 213.76 477.44 477.44S776.32 861.9733333300001 512.64 861.9733333300001z m-0.64-889.06666666c-226.34666667 0-409.70666667 183.46666667-409.70666667 409.70666666s183.46666667 409.70666667 409.70666667 409.70666667 409.70666667-183.46666667 409.70666667-409.70666667S738.34666667-27.09333332999995 512-27.09333332999995zM295.70133333 552.4608000000001l47.5168 47.5168 403.5936-403.59466667-47.5168-47.5168z"  horiz-adv-x="1024" />

    
    <glyph glyph-name="jinji1" unicode="&#58942;" d="M512.64 861.9733333300001C248.96 861.9733333300001 35.2 648.2133333300001 35.2 384.53333333S249.06666667-92.79999999999995 512.64-92.79999999999995s477.44 213.76 477.44 477.44S776.32 861.9733333300001 512.64 861.9733333300001z m-0.64-889.06666666c-226.34666667 0-409.70666667 183.46666667-409.70666667 409.70666666s183.46666667 409.70666667 409.70666667 409.70666667 409.70666667-183.46666667 409.70666667-409.70666667S738.34666667-27.09333332999995 512-27.09333332999995zM612.16 604.26666667H418.34666667l-64.64-258.45333334h138.88l-41.92-226.02666666 226.13333333 322.98666666H547.52z"  horiz-adv-x="1024" />

    
    <glyph glyph-name="zhengchang1" unicode="&#58943;" d="M512.64 861.9733333300001C248.96 861.9733333300001 35.2 648.2133333300001 35.2 384.53333333S249.06666667-92.79999999999995 512.64-92.79999999999995s477.44 213.76 477.44 477.44S776.32 861.9733333300001 512.64 861.9733333300001z m-0.64-889.06666666c-226.34666667 0-409.70666667 183.46666667-409.70666667 409.70666666s183.46666667 409.70666667 409.70666667 409.70666667 409.70666667-183.46666667 409.70666667-409.70666667S738.34666667-27.09333332999995 512-27.09333332999995zM692.58666667 520.74666667L470.08 298.24 316.05333333 452.26666667 267.73333333 404.05333333l154.13333334-154.02666666h-0.10666667l48.32-48.32h0.10666667l48.21333333 48.21333333v0.10666667l222.50666667 222.4z"  horiz-adv-x="1024" />

    
    <glyph glyph-name="jinggao1" unicode="&#58944;" d="M562.83 112.394c-13.787-13.825-30.464-20.7-49.845-20.7-19.383 0-36.461 6.875-50.321 20.7-14.337 13.895-21.212 30.499-21.212 50.32 0 19.384 6.875 36.534 21.212 50.322 13.86 14.373 30.938 21.284 50.321 21.284 19.381 0 36.022-6.91 49.845-21.284 14.372-13.788 21.247-30.938 21.247-50.321 0-19.822-6.875-36.426-21.247-50.32zM461.786 587.0409999999999c13.348 14.3 30.5 21.687 51.2 21.687 20.77 0 37.886-6.912 51.271-21.687 12.945-14.299 19.82-32.328 19.82-54.05 0-18.432-27.72-155.572-37.339-255.3h-66.96c-7.863 99.765-38.325 236.905-38.325 255.3 0 21.248 6.913 39.277 20.333 54.05zM968.69 120.73299999999995L595.634 771.687c-45.677 79.395-120.061 79.395-165.7 0L56.878 120.73299999999995c-45.64-79.359-8.339-144.455 83.088-144.455h746.076c90.951 0 128.361 65.095 82.648 144.455z"  horiz-adv-x="1024" />

    
    <glyph glyph-name="xiugai" unicode="&#58945;" d="M368.35555556 573.26933333H536.17777778c21.84533333 0 39.36711111 17.63555555 39.36711111 39.36711111 0 21.84533333-17.63555555 39.36711111-39.36711111 39.36711111H368.35555556c-21.84533333 0-39.36711111-17.63555555-39.36711111-39.36711111-0.11377778-21.73155555 17.97688889-39.36711111 39.36711111-39.36711111zM575.65866667 421.26222222c0 21.84533333-17.63555555 39.36711111-39.36711111 39.36711111H368.35555556c-21.84533333 0-39.36711111-17.63555555-39.36711111-39.36711111 0-21.84533333 17.63555555-39.36711111 39.36711111-39.36711111H536.17777778c21.84533333-0.11377778 39.48088889 17.52177778 39.48088889 39.36711111zM250.02666667 651.20711111c-21.27644445 0-38.912-17.18044445-38.912-38.912 0-21.27644445 17.18044445-38.912 38.912-38.912 21.39022222 0 38.912 17.18044445 38.912 38.912 0.11377778 21.73155555-17.52177778 38.912-38.912 38.912z m0-191.03288889c-21.27644445 0-38.912-17.18044445-38.912-38.912 0-21.27644445 17.18044445-38.912 38.912-38.912 21.39022222 0 38.912 17.18044445 38.912 38.912 0.11377778 21.27644445-17.52177778 38.912-38.912 38.912z m737.39377778-106.60977778L833.47911112 507.50577778c-15.81511111 15.81511111-39.36711111 15.81511111-55.18222223 0l-45.85244444-45.85244445V780.57244444c0 34.816-28.33066667 63.03288889-63.03288889 63.03288889h-534.75555556c-34.816 0-63.03288889-28.78577778-63.03288888-63.03288889v-531.91111111c0-34.816 28.33066667-63.03288889 63.03288888-63.03288889h319.94311112l-7.85066667-7.39555556c-4.20977778-6.03022222-7.85066667-12.06044445-9.78488889-19.456l-39.36711111-193.42222222c-7.39555555-38.00177778 19.456-53.36177778 45.39733333-47.33155555l193.42222222 39.36711111c7.85066667 0 13.88088889 4.20977778 19.456 9.78488889l331.09333334 331.54844444c8.30577778 7.05422222 22.64177778 29.80977778 0.45511111 54.84088889z m-839.79377778-92.27377778v506.31111112H656.78222222V385.99111111L531.05777778 260.83555555h-383.43111111v0.45511111z m460.91377778-229.60355555l-124.24533333-25.94133333L509.78133334 129.99111111000002l293.54666666 294.00177777 100.57955556-98.7591111-295.36711111-293.54666667z m0 0"  horiz-adv-x="1024" />

    
    <glyph glyph-name="qiyong" unicode="&#58949;" d="M512.64 861.9733333300001C248.96 861.9733333300001 35.2 648.2133333300001 35.2 384.53333333S249.06666667-92.79999999999995 512.64-92.79999999999995s477.44 213.76 477.44 477.44S776.32 861.9733333300001 512.64 861.9733333300001z m-0.64-889.06666666c-226.34666667 0-409.70666667 183.46666667-409.70666667 409.70666666s183.46666667 409.70666667 409.70666667 409.70666667 409.70666667-183.46666667 409.70666667-409.70666667S738.34666667-27.09333332999995 512-27.09333332999995zM694.93333333 406.61333333l-275.30666666 158.93333334c-21.33333333 12.26666667-48-3.09333333-48-27.73333334v-317.86666666c0-24.64 26.66666667-40 48-27.73333334l275.30666666 158.93333334c21.33333333 12.26666667 21.33333333 43.09333333 0 55.46666666z m-111.36-41.6l-119.46666666-68.90666666c-11.41333333-6.61333333-25.6 1.6-25.6 14.82666666V448.74666667c0 13.12 14.18666667 21.33333333 25.6 14.82666666l119.46666666-68.90666666c11.30666667-6.72 11.30666667-23.04 0-29.65333334z"  horiz-adv-x="1024" />

    
    <glyph glyph-name="jinyong1" unicode="&#58950;" d="M512.64 861.9733333300001C248.96 861.9733333300001 35.2 648.2133333300001 35.2 384.53333333S249.06666667-92.79999999999995 512.64-92.79999999999995s477.44 213.76 477.44 477.44S776.32 861.9733333300001 512.64 861.9733333300001z m-0.64-889.06666666c-226.34666667 0-409.70666667 183.46666667-409.70666667 409.70666666s183.46666667 409.70666667 409.70666667 409.70666667 409.70666667-183.46666667 409.70666667-409.70666667S738.34666667-27.09333332999995 512-27.09333332999995zM682.56 551.57333333l-5.01333333 5.01333334c-12.05333333 12.05333333-31.57333333 12.05333333-43.62666667 0l-122.66666667-122.66666667-122.66666666 122.66666667c-12.05333333 12.05333333-31.57333333 12.05333333-43.62666667 0l-5.01333333-5.01333334c-12.05333333-12.05333333-12.05333333-31.57333333 0-43.62666666l122.66666666-122.66666667-122.66666666-122.66666667c-12.05333333-12.05333333-12.05333333-31.57333333 0-43.62666666l5.01333333-5.01333334c12.05333333-12.05333333 31.57333333-12.05333333 43.62666667 0l122.66666666 122.66666667 122.66666667-122.66666667c12.05333333-12.05333333 31.57333333-12.05333333 43.62666667 0l5.01333333 5.01333334c12.05333333 12.05333333 12.05333333 31.57333333 0 43.62666666l-122.66666667 122.66666667 122.66666667 122.66666667c12.05333333 12.05333333 12.05333333 31.57333333 0 43.62666666z"  horiz-adv-x="1024" />

    
    <glyph glyph-name="chunshanchu" unicode="&#58951;" d="M770.84444445 61.724444449999964c0-31.28888889-25.48622222-56.77511111-56.77511112-56.77511111H304.81066667c-31.28888889 0-56.77511111 25.48622222-56.77511112 56.77511111v603.02222222h522.8088889v-603.02222222zM361.58577778 766.57777778c0 6.59911111 5.12 11.60533333 11.60533333 11.60533334h273.06666667c6.59911111 0 11.60533333-5.12 11.60533333-11.60533334v-34.13333333H361.58577778v34.13333333z m579.584-34.13333333H725.67466667v34.13333333c0 43.69066667-35.72622222 79.41688889-79.41688889 79.41688889H373.19111111c-43.69066667 0-79.41688889-35.72622222-79.41688889-79.41688889v-34.13333333h-216.17777777c-18.88711111 0-34.24711111-15.24622222-34.24711112-34.24711111 0-18.88711111 15.24622222-34.24711111 34.24711112-34.24711112h101.94488888v-602.22577777c0-69.17688889 56.09244445-125.26933333 125.26933334-125.26933333h409.25866666c69.17688889 0 125.26933333 56.09244445 125.26933334 125.26933333v603.02222222h101.94488888c18.88711111 0 34.24711111 15.24622222 34.24711112 34.24711111-0.11377778 18.88711111-15.36 33.45066667-34.36088889 33.45066667zM509.38311111 107.57688888999996c18.88711111 0 34.24711111 15.24622222 34.24711111 34.24711111v364.08888889c0 18.88711111-15.24622222 34.24711111-34.24711111 34.24711111-18.88711111 0-34.24711111-15.24622222-34.24711111-34.24711111v-364.08888889c0-18.88711111 15.36-34.24711111 34.24711111-34.24711111m-159.40266666 0c18.88711111 0 34.24711111 15.24622222 34.2471111 34.24711111v364.08888889c0 18.88711111-15.24622222 34.24711111-34.2471111 34.24711111-18.88711111 0-34.24711111-15.24622222-34.24711112-34.24711111v-364.08888889c0.68266667-18.88711111 16.04266667-34.24711111 34.24711112-34.24711111m318.9191111 0c18.88711111 0 34.24711111 15.24622222 34.24711112 34.24711111v364.08888889c0 18.88711111-15.24622222 34.24711111-34.24711112 34.24711111-18.88711111 0-34.24711111-15.24622222-34.2471111-34.24711111v-364.08888889c0-18.88711111 15.24622222-34.24711111 34.2471111-34.24711111"  horiz-adv-x="1024" />

    
    <glyph glyph-name="zhuangtai-zhengchang" unicode="&#58952;" d="M512.6 832.1C265.4 832.1 65 631.7 65 384.5S265.5-63 512.6-63s447.6 200.4 447.6 447.6S759.8 832.1 512.6 832.1z m235.5-369.9L516.6 230.7l-0.4-0.4-0.4-0.4c-16.6-16.6-43.7-16.6-60.2 0l-152 151.8c-16.6 16.6-16.6 43.7 0 60.2 16.6 16.6 43.7 16.6 60.2 0l121.8-121.8 202.3 202.3c16.6 16.6 43.7 16.6 60.2 0 16.6-16.5 16.6-43.6 0-60.2z"  horiz-adv-x="1024" />

    
    <glyph glyph-name="zhuangtai-jinggao" unicode="&#58953;" d="M562.83 112.394c-13.787-13.825-30.464-20.7-49.845-20.7-19.383 0-36.461 6.875-50.321 20.7-14.337 13.895-21.212 30.499-21.212 50.32 0 19.384 6.875 36.534 21.212 50.322 13.86 14.373 30.938 21.284 50.321 21.284 19.381 0 36.022-6.91 49.845-21.284 14.372-13.788 21.247-30.938 21.247-50.321 0-19.822-6.875-36.426-21.247-50.32zM461.786 587.0409999999999c13.348 14.3 30.5 21.687 51.2 21.687 20.77 0 37.886-6.912 51.271-21.687 12.945-14.299 19.82-32.328 19.82-54.05 0-18.432-27.72-155.572-37.339-255.3h-66.96c-7.863 99.765-38.325 236.905-38.325 255.3 0 21.248 6.913 39.277 20.333 54.05zM968.69 120.73299999999995L595.634 771.687c-45.677 79.395-120.061 79.395-165.7 0L56.878 120.73299999999995c-45.64-79.359-8.339-144.455 83.088-144.455h746.076c90.951 0 128.361 65.095 82.648 144.455z"  horiz-adv-x="1024" />

    
    <glyph glyph-name="zhuangtai-jinji" unicode="&#58954;" d="M889.813333 860.8H143.36a104.106667 104.106667 0 0 1-104.106667-104.106667v-746.453333a104.106667 104.106667 0 0 1 104.106667-104.106667h746.453333a104.106667 104.106667 0 0 1 104.106667 104.106667V756.6933329999999c0 57.386667-46.72 104.106667-104.106667 104.106667zM727.466667 449.706667l-253.653334-379.733334c-7.253333-10.666667-21.76-16.853333-36.266666-15.36-19.626667 2.133333-34.56 16.853333-32 33.493334l34.986666 244.906666h-103.04c-10.666667 0-21.333333 4.053333-28.16 10.666667-6.826667 6.613333-9.813333 16-7.68 24.746667l72.533334 319.786666c2.986667 14.293333 18.346667 24.746667 35.84 24.746667h272.853333c13.226667 0 25.6-6.186667 31.573333-15.786667s5.973333-21.12-0.853333-30.506666l-129.066667-171.946667h111.573334c12.8 0 24.746667-5.546667 31.146666-14.72 6.186667-9.6 6.186667-20.906667 0.213334-30.293333z"  horiz-adv-x="1024" />

    
    <glyph glyph-name="zhuangtai-zantingjiance" unicode="&#58955;" d="M884.693333 864.853333H120.96C62.293333 864.853333 14.506667 817.28 14.506667 758.4v-763.733333c0-58.666667 47.573333-106.453333 106.453333-106.453334h763.733333c58.666667 0 106.453333 47.573333 106.453334 106.453334V758.4c0 58.666667-47.573333 106.453333-106.453334 106.453333zM404.906667 165.76c0-18.346667-14.72-33.066667-33.066667-33.066667h-53.333333c-18.346667 0-33.066667 14.72-33.066667 33.066667V587.3066670000001c0 18.346667 14.72 33.066667 33.066667 33.066666h53.333333c18.346667 0 33.066667-14.72 33.066667-33.066666v-421.546667z m315.52 0c0-18.346667-14.72-33.066667-33.066667-33.066667h-53.333333c-18.346667 0-33.066667 14.72-33.066667 33.066667V587.3066670000001c0 18.346667 14.72 33.066667 33.066667 33.066666h53.333333c18.346667 0 33.066667-14.72 33.066667-33.066666v-421.546667z"  horiz-adv-x="1024" />

    
    <glyph glyph-name="zhuangtai-jinzhi" unicode="&#58958;" d="M512.6 832.1C265.4 832.1 65 631.7 65 384.5S265.5-63 512.6-63s447.6 200.4 447.6 447.6S759.8 832.1 512.6 832.1z m164.8-549c17.6-17.6 17.6-46.5 0-64.1-17.6-17.6-46.5-17.6-64.1 0L511.9 320.3 411.7 220.1c-17.6-17.6-46.5-17.6-64.1 0-17.6 17.6-17.6 46.5 0 64.1l100.2 100.2-101.4 101.4c-17.6 17.6-17.6 46.5 0 64.1 17.6 17.6 46.5 17.6 64.1 0l101.3-101.3L614.3 551c17.6 17.6 46.5 17.6 64.1 0 17.6-17.6 17.6-46.5 0-64.1L576 384.5l101.4-101.4z"  horiz-adv-x="1024" />

    
    <glyph glyph-name="zhuangtai-hulve" unicode="&#58959;" d="M158.087 73.53200000000004c188.823-214.247 521.014-214.327 709.757 0 155.676 176.594 155.676 446.273 0.08 622.948-188.823 214.246-521.094 214.246-709.756 0C2.41 519.8050000000001 2.41 250.12599999999998 158.088 73.53200000000004z m247.795 496.556l292.206-292.206c23.01-23.01 23.09-60.42 0-83.51-23.01-23.01-60.42-23.09-83.51 0L322.453 486.497c-23.01 23.01-23.09 60.42 0 83.51s60.42 23.09 83.43 0.08z"  horiz-adv-x="1024" />

    
    <glyph glyph-name="shanchujiance1" unicode="&#58960;" d="M514.56 281.6a107.818667 107.818667 0 0 0-108.16 107.52c0 12.8 2.133333 25.173333 6.4 36.693333l-42.453333 42.453334c-13.013333-23.466667-20.48-50.346667-20.48-79.146667 0-90.453333 73.813333-163.626667 164.906666-163.626667 28.586667 0 55.253333 7.04 78.72 19.84l-42.453333 42.453334c-11.733333-4.053333-23.893333-6.186667-36.48-6.186667zM514.56 552.746667c-29.013333 0-56.106667-7.466667-79.786667-20.48l42.24-42.24c11.733333 4.266667 24.32 6.613333 37.546667 6.613333 59.733333 0 108.373333-48.213333 108.373333-107.52 0-13.013333-2.56-26.026667-7.04-37.973333l42.24-42.24c13.653333 23.68 21.333333 51.2 21.333334 80.213333 0 90.453333-73.813333 163.626667-164.906667 163.626667zM518.186667 870.4C246.4 870.4 26.24 650.026667 26.24 378.24S246.613333-113.91999999999996 518.4-113.91999999999996s492.16 220.373333 492.16 492.16S789.973333 870.4 518.186667 870.4z m212.906666-634.453333l98.133334-98.133334c17.706667-17.706667 17.706667-46.506667 0-64.213333-17.706667-17.706667-46.506667-17.706667-64.213334 0l-120.32 120.32c-41.173333-15.146667-85.973333-24.533333-132.906666-24.533333-174.72 0-308.693333 131.626667-351.146667 193.92-11.946667 17.493333-11.306667 40.533333 1.28 57.386666 23.04 31.36 71.253333 80.426667 135.466667 120.746667L219.946667 618.666667c-17.706667 17.706667-17.706667 46.506667 0 64.213333s46.506667 17.706667 64.213333 0l98.56-98.773333c40.106667 15.146667 83.413333 24.533333 128.853333 24.533333 164.48 0 311.466667-124.373333 361.6-186.026667 14.506667-17.706667 14.933333-43.306667 1.066667-61.653333-24.96-33.066667-75.733333-84.053333-143.146667-125.013333z"  horiz-adv-x="1024" />

    
    <glyph glyph-name="zantingjiance" unicode="&#58961;" d="M512.64 861.9733333300001C248.96 861.9733333300001 35.2 648.2133333300001 35.2 384.53333333S249.06666667-92.79999999999995 512.64-92.79999999999995s477.44 213.76 477.44 477.44S776.32 861.9733333300001 512.64 861.9733333300001z m0.42666667-890.56c-227.09333333 0-411.09333333 184.10666667-411.09333334 411.09333334S286.08 793.6 513.06666667 793.6s411.09333333-184.10666667 411.09333333-411.09333333S740.16-28.58666667 513.06666667-28.58666667zM410.66666667 551.7866666699999c-17.92 0-32.64-14.72-32.64-32.64v-275.84c0-17.92 14.72-32.64 32.64-32.64s32.64 14.72 32.64 32.64V519.1466666700001c0 17.92-14.72 32.64-32.64 32.64zM611.84 551.7866666699999c-17.92 0-32.64-14.72-32.64-32.64v-275.84c0-17.92 14.72-32.64 32.64-32.64s32.64 14.72 32.64 32.64V519.1466666700001c-0.10666667 17.92-14.72 32.64-32.64 32.64z"  horiz-adv-x="1024" />

    
    <glyph glyph-name="yonghushouquan" unicode="&#58962;" d="M664.31051852 476.7213037c49.51608889 41.87022222 79.97819259 106.67804445 79.97819259 175.36948148 0 125.73202963-102.91579259 228.64782222-228.64782222 228.64782223-125.73202963 0-228.64782222-102.91579259-228.64782222-228.64782223S389.90885925 423.44296297 515.64088889 423.44296297c228.64782222 0 400.13368889-156.3154963 419.18767408-381.07970372H96.45321482c11.40811852 167.72361482 99.03217778 293.45564445 240.05594073 346.85534816 19.05398518 7.64586667 30.4621037 30.4621037 22.81623704 49.51608889-7.64586667 19.05398518-30.4621037 30.4621037-49.51608889 22.81623703C126.91531852 389.09724445 20.23727408 225.13588147999997 20.23727408 4.133925920000024c0-22.81623703 15.29173333-38.10797037 38.10797037-38.10797037h914.71265185c22.81623703 0 38.10797037 15.29173333 38.10797037 38.10797037 0 228.64782222-141.02376297 415.42542222-346.85534815 472.58737778z m-300.98014815 175.36948148c0 83.86180741 68.57007408 152.43188148 152.43188148 152.43188149S668.19413333 735.95259259 668.19413333 652.09078518s-68.57007408-152.43188148-152.43188148-152.43188148c-83.86180741-0.12136297-152.43188148 68.57007408-152.43188148 152.43188148z m0 0M515.76225185 80.34986666999998c11.40811852 0 19.05398518 3.76225185 26.69985185 11.40811851l76.21594075 76.21594074c7.64586667 7.64586667 11.40811852 22.81623703 11.40811852 34.34571853l-38.10797038 152.43188147c-3.76225185 15.29173333-19.05398518 30.4621037-38.10797037 30.46210371h-76.21594074c-19.05398518 0-34.34571852-11.40811852-38.10797037-30.46210371l-38.10797036-152.43188147c-3.76225185-11.40811852 0-26.69985185 11.4081185-34.34571853l76.21594075-76.21594074c7.64586667-7.64586667 15.17037037-11.40811852 26.69985185-11.40811851z m-7.64586667 228.64782222h15.29173334l26.69985185-102.91579259-34.34571852-34.34571852-34.34571852 34.34571852 26.69985185 102.91579259z m0 0"  horiz-adv-x="1024" />

    
    <glyph glyph-name="zhongzhimima" unicode="&#58963;" d="M620.43022222 536.80355555c0 47.44533333-34.01955555 94.208-81.57866667 94.208h-60.52977777c-47.44533333 0-88.51911111-46.76266667-88.51911111-94.208V487.53777778c-39.13955555-0.79644445-80.55466667-34.92977778-80.55466667-76.91377778v-165.20533333c0-42.43911111 41.87022222-72.24888889 84.30933333-72.24888889h232.67555556c42.43911111 0 74.63822222 29.80977778 74.63822222 72.24888889V410.624c0 42.43911111-32.08533333 85.56088889-74.63822222 85.56088889h-5.91644444v40.61866666z m-163.27111111 0c0 10.01244445 11.03644445 26.73777778 21.04888889 26.73777778h60.52977778c10.01244445 0 14.10844445-16.72533333 14.10844444-26.73777778v-40.73244444h-95.68711111v40.73244444z m175.21777778-286.83377777c0-5.23377778-4.32355555-9.55733333-9.55733334-9.55733333h-236.65777777c-5.23377778 0-9.55733333 4.20977778-9.55733333 9.55733333V419.15733333c0 2.50311111 1.024 4.89244445 2.84444444 6.71288889 1.82044445 1.82044445 4.20977778 2.84444445 6.71288889 2.84444445h236.65777777c5.23377778 0 9.55733333-4.20977778 9.55733334-9.55733334v-169.18755555z m0 0M505.05955555 289.45066667000003c18.65955555 0 33.67822222 15.13244445 33.67822223 33.792v39.25333333c0 18.65955555-15.01866667 33.792-33.67822223 33.792-18.65955555 0-33.67822222-15.13244445-33.67822222-33.792v-39.25333333c0-18.65955555 15.01866667-33.792 33.67822222-33.792z m0 0M918.528 388.43733333c0-229.48977778-184.20622222-413.696-410.51022222-413.696S97.50755555 157.01333333000002 97.50755555 383.31733333c0 226.304 184.20622222 409.82755555 410.51022223 409.82755556 150.64177778 0 288.08533333-82.83022222 359.76533333-213.21955556h-2.38933333c-18.88711111 1.36533333-34.58844445-13.19822222-35.72622223-31.744-1.13777778-18.65955555 13.08444445-34.58844445 31.744-35.72622222l83.85422223-5.00622222c0.68266667 0 1.36533333-0.11377778 2.048-0.11377778 8.76088889 0 17.18044445 3.41333333 23.552 9.55733334 6.82666667 6.59911111 10.46755555 15.70133333 10.24 25.14488888l-2.50311111 87.95022222c-0.56888889 18.65955555-16.384 33.45066667-34.70222222 32.768-15.36-0.45511111-27.87555555-11.15022222-31.63022223-25.37244444C825.344 774.71288889 673.45066667 860.27377778 508.01777778 860.27377778c-263.50933333 0-477.98044445-214.24355555-477.98044445-477.86666667S244.39466667-92.72888889000001 508.01777778-92.72888889000001c263.62311111 0 477.98044445 210.26133333 477.98044444 481.16622222h-67.47022222z m0 0"  horiz-adv-x="1024" />

    
    <glyph glyph-name="shujuquanxian" unicode="&#58964;" d="M305.80432592 314.70174814999996c21.84533333 0 39.80705185 17.84035555 39.80705186 39.80705185v79.49274075c0 21.84533333-17.84035555 39.80705185-39.80705186 39.80705184-21.84533333 0-39.80705185-17.84035555-39.80705184-39.80705184v-79.49274075c0-21.9666963 17.84035555-39.80705185 39.80705184-39.80705185z m198.79253333 0c21.84533333 0 39.80705185 17.84035555 39.80705186 39.80705185V592.98702222c0 21.84533333-17.84035555 39.80705185-39.80705186 39.80705186-21.84533333 0-39.80705185-17.84035555-39.80705184-39.80705186v-238.59958519c0-21.84533333 17.96171852-39.68568889 39.80705184-39.68568888z m198.9138963 0c21.84533333 0 39.80705185 17.84035555 39.80705186 39.80705185v158.98548148c0 21.84533333-17.84035555 39.80705185-39.80705186 39.80705185-21.84533333 0-39.80705185-17.84035555-39.80705185-39.80705185v-159.10684445c0-21.84533333 17.84035555-39.68568889 39.80705185-39.68568888z m19.78216297-59.71057778H285.9008c-21.84533333 0-39.80705185-17.84035555-39.80705185-39.80705185 0-21.84533333 17.84035555-39.80705185 39.80705185-39.80705185h437.39211852c21.84533333 0 39.80705185 17.84035555 39.80705185 39.80705185 0 21.9666963-17.84035555 39.80705185-39.80705185 39.80705185z m0 0M834.70411852 781.94915555c-143.2082963 0-192.84574815 33.86026667-232.6528 61.6523852-25.85031111 17.84035555-53.64242963 37.74388148-97.45445927 37.74388147-43.69066667 0-71.60414815-19.90352592-97.45445925-37.74388147-39.80705185-27.79211852-89.4445037-61.65238518-232.6528-61.6523852-65.65736297 0-119.29979259-53.64242963-119.29979259-119.29979258V324.53214815c0-306.19875555 387.75466667-437.39211852 449.40705184-437.39211852 61.65238518 0 449.40705185 131.19336297 449.40705186 437.39211852V662.64936297c0 65.536-53.64242963 119.29979259-119.29979259 119.29979258zM874.51117037 324.53214815c0-250.49315555-337.99585185-355.95757037-369.79294815-357.89937778-33.86026667 1.94180741-369.79294815 107.40622222-369.79294814 357.89937778V662.64936297c0 21.84533333 17.84035555 39.80705185 39.80705184 39.80705185 166.99543703 0 234.59460741 45.75383703 278.40663705 75.60912593 21.84533333 15.89854815 33.86026667 23.9085037 51.70062221 23.9085037 17.84035555 0 29.85528889-8.00995555 51.70062223-23.9085037 43.69066667-29.85528889 109.34802963-75.60912592 278.40663704-75.60912593 21.84533333 0 39.80705185-17.84035555 39.80705185-39.80705185V324.53214815z m0 0"  horiz-adv-x="1024" />

    
    <glyph glyph-name="xiugaiyuzhi" unicode="&#58965;" d="M472.77321481 393.10222222c0-27.30666667 22.20942222-49.51608889 49.51608889-49.51608889 27.30666667 0 49.51608889 22.20942222 49.51608888 49.51608889 0 17.71899259-9.46631111 33.98162963-24.75804443 42.84112593-15.29173333 8.8594963-34.22435555 8.8594963-49.5160889 0-15.29173333-8.73813333-24.75804445-25.12213333-24.75804444-42.84112593z m0 0M962.59413333 634.85724445C875.57688888 792.87182222 710.76598518 892.26808889 530.42062222 895.54488889c-9.95176297 0.12136297-19.53943703-3.64088889-26.69985186-10.67994074-7.16041482-7.03905185-11.04402963-16.50536297-11.04402962-26.45712593V738.37985185c0-20.51034075 16.62672592-37.13706667 37.13706667-37.13706667 20.51034075 0 37.13706667 16.62672592 37.13706667 37.13706667v80.5850074c176.09765925-18.44717037 322.70411852-143.45102222 368.82204443-314.45143703 45.99656297-171.00041482-17.96171852-352.68077037-161.04865185-457.05291852-143.08693333-104.37214815-335.68995555-109.83348148-484.48094815-13.83537778-148.79099259 95.9981037-223.06512592 273.79484445-186.89896296 447.22251853 4.2477037 20.02488889-8.61677037 39.68568889-28.64165925 43.93339258s-39.68568889-8.61677037-43.9333926-28.64165925C-14.98453334 278.17149629999994 88.17398518 56.32000000000005 284.17517036-49.14441481999995c196.00118518-105.46441482 437.99893333-69.41961482 594.67851852 88.59496297 156.80094815 158.01457778 190.90394075 400.25505185 83.74044445 595.4066963z m0 0M305.29232592 314.45902221999995c27.91348148-71.96823703 88.59496297-126.33884445 163.35454816-146.24237037 19.6608-5.21860741 39.80705185-7.88859259 60.07466666-7.8885926 50.72971852-0.12136297 99.88171852 17.3549037 139.08195556 49.39472593 6.43223703 5.21860741 12.50038518 10.8013037 18.44717036 16.62672593l0.12136297 0.12136297c5.82542222 5.82542222 11.28675555 11.89357037 16.50536295 18.3258074 45.38974815 55.82696297 60.80284445 130.1010963 41.6274963 199.27798519C724.60136296 518.59152592 670.23075555 579.3943703699999 598.26251851 607.30785185l-398.07051851 153.16005926c-13.71401482 5.33997037-29.24847408 2.06317037-39.68568889-8.37404444-10.43721482-10.43721482-13.71401482-25.97167408-8.37404445-39.68568889l153.16005926-397.94915556z m266.27034074 223.55057778c49.88017778-19.41807408 87.5026963-61.40965925 101.21671112-113.23164445 12.98583703-46.23928889 2.79134815-95.9981037-27.42802963-133.3778963-3.64088889-4.36906667-7.40314075-8.61677037-11.40811852-12.7431111-4.00497778-4.00497778-8.37404445-7.88859259-12.74311112-11.52948148-37.37979259-30.21937778-87.13860741-40.41386667-133.37789629-27.42802964-51.70062222 13.71401482-93.69220741 51.33653333-113.11028148 101.21671112L251.40717036 661.1930074100001l320.1554963-123.18340741z m0 0"  horiz-adv-x="1024" />

    
    <glyph glyph-name="shezhi" unicode="&#58966;" d="M674.01955555-84.30933332999996c-24.91733333 0-49.60711111 10.69511111-66.90133333 30.72-42.89422222 49.26577778-113.664 63.488-172.25955555 34.36088888-15.36-7.62311111-29.12711111-17.74933333-40.73244445-30.03733333-25.25866667-26.85155555-64.96711111-34.01955555-98.53155555-17.97688889-32.54044445 15.70133333-63.60177778 34.816-91.93244445 56.88888889-27.87555555 21.73155555-39.59466667 57.91288889-29.46844444 91.81866667 17.86311111 60.75733333-5.57511111 125.04177778-58.368 160.19911111-12.40177778 8.30577778-25.82755555 14.336-39.82222223 18.432-34.13333333 9.78488889-58.48177778 38.912-62.00888888 74.18311111-3.75466667 37.54666667-3.18577778 75.66222222 1.70666666 113.09511111 4.43733333 34.24711111 28.78577778 62.464 62.00888889 71.79377778 58.70933333 16.384 100.69333333 68.49422222 104.56177778 129.25155555 0.91022222 15.13244445-0.45511111 30.15111111-4.096 44.6008889-8.53333333 33.56444445 3.86844445 68.72177778 31.85777778 89.77066666 24.80355555 18.77333333 51.76888889 35.38488889 79.75822222 49.37955556 5.23377778 2.61688889 10.46755555 5.12 15.70133333 7.50933333 32.31288889 14.67733333 71.22488889 7.50933333 96.48355556-17.97688889 43.69066667-43.91822222 110.25066667-54.84088889 165.77422222-27.42044444 15.47377778 7.62311111 29.24088889 17.86311111 40.84622222 30.26488888 24.80355555 26.39644445 63.37422222 34.92977778 96.14222222 21.27644445 32.99555555-13.76711111 64.62577778-31.06133333 93.98044445-51.54133333 30.26488889-21.04888889 43.12177778-60.52977778 31.40266667-95.68711112-20.48-61.32622222 2.84444445-129.25155555 56.77511111-165.09155555 15.81511111-10.58133333 33.33688889-17.74933333 51.88266667-21.39022222 38.68444445-7.50933333 67.35644445-38.34311111 71.45244444-76.57244445 3.52711111-33.33688889 3.52711111-67.24266667 0.22755556-100.69333333-3.75466667-38.22933333-32.768-69.17688889-70.31466667-75.54844445-66.10488889-11.15022222-115.14311111-65.536-119.46666667-132.66488888-1.13777778-19.00088889 1.25155555-37.77422222 7.39555556-55.52355556 12.74311111-36.864-0.56888889-77.824-32.08533334-99.55555556-19.34222222-13.312-39.936-25.37244445-61.21244444-35.95377777l-21.95911111-10.92266667c-12.51555555-6.03022222-25.71377778-8.98844445-38.79822223-8.98844444z m-175.21777777 148.25244444c59.84711111 0 118.67022222-25.37244445 159.85777777-72.93155556 6.03022222-6.94044445 15.81511111-9.10222222 23.66577778-5.23377777l21.84533334 10.92266667c18.432 9.10222222 36.18133333 19.56977778 52.90666666 31.06133333 6.59911111 4.43733333 8.98844445 12.97066667 6.144 21.27644444-9.10222222 26.39644445-12.74311111 53.93066667-11.03644444 82.03377778 6.25777778 98.75911111 78.62044445 179.2 176.128 195.584 7.28177778 1.25155555 13.08444445 7.62311111 13.88088889 15.13244445 2.84444445 28.89955555 2.84444445 58.14044445-0.22755556 86.92622222-0.79644445 8.192-7.50933333 15.01866667-16.61155555 16.72533333-27.42044445 5.23377778-53.13422222 15.81511111-76.45866667 31.51644445-79.53066667 52.90666667-113.89155555 152.91733333-83.62666667 243.48444444 2.27555555 6.82666667-0.11377778 14.336-5.68888888 18.20444444-25.25866667 17.63555555-52.56533333 32.54044445-81.12355556 44.48711112-6.82666667 2.84444445-14.79111111 0.79644445-20.25244444-5.00622223-17.29422222-18.31822222-37.43288889-33.33688889-60.18844445-44.60088889-81.80622222-40.61866667-179.99644445-24.46222222-244.39466667 40.39111112-5.23377778 5.34755555-13.312 6.94044445-20.02488888 3.86844444-4.55111111-2.16177778-9.10222222-4.20977778-13.65333334-6.48533334-24.34844445-12.06044445-47.44533333-26.39644445-68.94933333-42.66666666-5.91644445-4.43733333-8.64711111-11.83288889-6.82666667-18.65955556 5.46133333-21.39022222 7.50933333-43.57688889 6.144-65.76355555-5.80266667-90.112-67.81155555-166.68444445-154.28266666-190.91911111-6.82666667-1.93422222-11.83288889-7.73688889-12.74311112-14.90488889-4.096-32.31288889-4.66488889-65.30844445-1.47911111-97.62133333 0.68266667-7.28177778 5.80266667-13.312 12.85688889-15.47377778 20.82133333-5.91644445 40.61866667-15.13244445 58.82311111-27.19288889 77.824-51.76888889 112.29866667-146.65955555 86.016-236.08888889-2.048-6.94044445 0.34133333-14.336 6.144-18.88711111 24.576-19.11466667 51.2-35.61244445 79.30311111-49.152 6.82666667-3.18577778 14.79111111-1.93422222 19.68355556 3.29955555 17.18044445 18.20444445 37.31911111 33.10933333 59.96088889 44.37333334 29.92355555 15.13244445 62.23644445 22.30044445 94.208 22.30044444zM512.34133333 195.12888888999998c-20.13866667 0-40.39111111 3.29955555-60.52977778 10.01244444-82.14755555 27.648-133.12 104.78933333-129.59288888 196.608 1.13777778 29.696 10.80888889 58.368 27.76177778 82.71644445 52.79288889 75.20711111 139.94666667 105.92711111 222.09422222 78.27911111 82.14755555-27.76177778 133.12-104.78933333 129.70666666-196.608-1.13777778-29.696-10.80888889-58.368-27.87555555-82.71644444-39.82222222-56.88888889-99.44177778-88.29155555-161.56444445-88.29155556z m-0.68266666 309.36177778c-35.49866667 0-75.32088889-15.58755555-105.92711112-59.16444445-9.55733333-13.65333333-14.90488889-29.58222222-15.58755555-46.08-2.73066667-73.95555555 41.30133333-115.37066667 83.28533333-129.47911111 42.09777778-14.22222222 102.17244445-7.73688889 144.72533334 52.79288889 9.55733333 13.65333333 14.90488889 29.58222222 15.58755555 46.08 2.73066667 73.95555555-41.30133333 115.37066667-83.28533333 129.47911111-11.83288889 4.096-25.03111111 6.37155555-38.79822222 6.37155556z m0 0"  horiz-adv-x="1024" />

    
    <glyph glyph-name="lixianshebei" unicode="&#58967;" d="M906.24 834.56H118.21511111c-59.16444445 0-108.31644445-48.128-108.31644444-107.74755555v-501.30488889c0-59.16444445 49.152-107.74755555 108.31644444-107.74755556h215.04v-107.29244444h-54.15822222c-19.56977778 0-35.61244445-15.58755555-35.61244444-35.61244445 0-19.56977778 16.04266667-35.61244445 35.61244444-35.61244444h465.69244444c19.56977778 0 35.61244445 15.58755555 35.61244445 35.61244444 0 19.56977778-16.04266667 35.61244445-35.61244445 35.61244445h-89.20177778V117.75999999999999h250.65244445c59.16444445 0 106.26844445 48.58311111 106.26844445 107.74755556V726.69866667c0 59.73333333-47.104 107.86133333-106.26844445 107.86133333zM582.88355555 10.46755556000005H404.48V117.75999999999999h178.40355555v-107.29244444z m358.4 394.01244444v-178.97244444c0-19.56977778-15.01866667-36.63644445-35.04355555-36.63644445H118.21511111c-19.56977778 0-36.06755555 17.06666667-36.06755556 36.63644445V404.48h0.45511112V726.69866667c0 20.02488889 16.04266667 36.63644445 35.61244444 36.63644444h787.91111111c19.56977778 0 35.04355555-16.49777778 35.04355556-36.63644444V404.48zM642.95822222 396.17422223l-77.14133333 77.14133333 82.83022222 82.83022222c14.10844445 14.10844445 14.10844445 37.31911111 0 51.54133333-14.10844445 14.10844445-37.31911111 14.10844445-51.54133333 0L514.27555555 524.74311111l-80.55466666 80.55466667c-14.10844445 14.10844445-37.31911111 14.10844445-51.54133334 0-14.10844445-14.10844445-14.10844445-37.31911111 0-51.54133333l80.55466667-80.55466667-74.752-74.752c-14.10844445-14.10844445-14.10844445-37.31911111 0-51.54133333 14.10844445-14.10844445 37.31911111-14.10844445 51.54133333 0l74.86577778 74.86577778 77.14133334-77.14133333c14.10844445-14.10844445 37.31911111-14.10844445 51.54133333 0 13.99466667 14.10844445 13.99466667 37.31911111-0.11377778 51.54133333z"  horiz-adv-x="1024" />

    
    <glyph glyph-name="gongnengquanxian" unicode="&#58968;" d="M416.74666667 311.14666666000005H88.64c-19.73333333 0-32.85333333-13.12-32.85333333-32.85333333v-328.21333334c0-19.73333333 13.12-32.85333333 32.85333333-32.85333333h328.21333333c19.73333333 0 32.85333333 13.12 32.85333334 32.85333333V278.39999998999997c-0.10666667 19.62666667-13.22666667 32.74666667-32.96 32.74666667zM384-17.066666670000018H121.38666667V245.54666666000003H384V-17.066666670000018zM941.86666667 311.14666666000005H613.65333333c-19.73333333 0-32.85333333-13.12-32.85333333-32.85333333v-328.21333334c0-19.73333333 13.12-32.85333333 32.85333333-32.85333333H941.86666667c19.73333333 0 32.85333333 13.12 32.85333333 32.85333333V278.39999998999997c0 19.62666667-13.12 32.74666667-32.85333333 32.74666667zM909.12-17.066666670000018H646.50666667V245.54666666000003h262.50666666V-17.066666670000018zM416.74666667 836.26666666H88.64c-19.73333333 0-32.85333333-13.12-32.85333333-32.85333333v-328.21333334c0-19.73333333 13.12-32.85333333 32.85333333-32.85333333h328.21333333c19.73333333 0 32.85333333 13.12 32.85333334 32.85333333V803.41333333c-0.10666667 19.73333333-13.22666667 32.85333333-32.96 32.85333333zM384 508.05333333H121.38666667V770.66666666H384v-262.61333333zM940.69333333 802.13333333H716.48v0.42666666c0 18.56-15.14666667 33.70666667-33.70666667 33.70666667-18.56 0-33.70666667-15.14666667-33.70666666-33.70666667v-0.42666666h-34.24c-18.66666667 0-34.02666667-15.36-34.02666667-34.02666667s15.36-34.02666667 34.02666667-34.02666667h34.24v-0.64c0-18.56 15.14666667-33.70666667 33.70666666-33.70666666 18.56 0 33.70666667 15.14666667 33.70666667 33.70666666v0.64h224.21333333c18.66666667 0 34.02666667 15.36 34.02666667 34.02666667 0 18.77333333-15.36 34.02666667-34.02666667 34.02666667zM614.82666667 601.91999999h238.93333333c0.96-17.70666667 15.68-32 33.70666667-32 17.92 0 32.74666667 14.18666667 33.70666666 32h19.52c18.66666667 0 34.02666667 15.36 34.02666667 34.02666667s-15.36 34.02666667-34.02666667 34.02666667h-19.41333333v2.77333333c0 18.56-15.14666667 33.70666667-33.70666667 33.70666667-18.56 0-33.70666667-15.14666667-33.70666666-33.70666667v-2.77333333h-238.93333334c-18.66666667 0-34.02666667-15.36-34.02666666-34.02666667-0.10666667-18.66666667 15.14666667-34.02666667 33.92-34.02666667zM614.82666667 466.87999999h102.61333333v-0.53333333c0-18.56 15.14666667-33.70666667 33.70666667-33.70666667 18.56 0 33.70666667 15.14666667 33.70666666 33.70666667v0.53333333h155.73333334c18.66666667 0 34.02666667 15.36 34.02666666 34.02666667s-15.36 34.02666667-34.02666666 34.02666667h-155.73333334v0.53333333c0 18.56-15.14666667 33.70666667-33.70666666 33.70666667-18.56 0-33.70666667-15.14666667-33.70666667-33.70666667v-0.53333333h-102.61333333c-18.66666667 0-34.02666667-15.36-34.02666667-34.02666667 0-18.77333333 15.25333333-34.02666667 34.02666667-34.02666667z"  horiz-adv-x="1024" />

    
    <glyph glyph-name="yunhangdingshiqi" unicode="&#58969;" d="M720.38020741 834.25659259c0-20.38897778-16.384-36.77297778-36.77297778-36.77297777H376.80165925c-20.38897778 0-36.77297778 16.384-36.77297777 36.77297777s16.384 36.77297778 36.77297777 36.77297778h307.16965927c19.90352592 0 36.40888889-16.384 36.40888889-36.77297778zM548.77297778 257.66115555c-20.38897778 0-36.77297778 16.384-36.77297778 36.77297778V512.15928889c0 20.38897778 16.384 36.77297778 36.77297778 36.77297778s36.77297778-16.384 36.77297777-36.77297778v-217.72515556c0.12136297-20.38897778-16.384-36.77297778-36.77297777-36.77297778z m0 0M512 294.43413333c0 20.38897778 16.384 36.77297778 36.77297778 36.77297778h135.19834074c20.38897778 0 36.77297778-16.384 36.77297778-36.77297778s-16.384-36.77297778-36.77297778-36.77297778H548.77297778c-20.26761482 0-36.77297778 16.384-36.77297778 36.77297778z m0 0M975.36379259 319.31354075C975.36379259 75.73807408000005 778.02761482-122.08355555000003 534.45214815-122.08355555000003c-243.57546667 0-441.3970963 197.82162963-441.3970963 441.3970963s197.33617778 441.3970963 441.3970963 441.39709628 440.91164445-197.82162963 440.91164444-441.39709628zM535.42305185 687.16468148c-202.79751111 0-367.36568889-164.56817778-367.36568888-367.85114073 0-203.28296297 164.56817778-367.36568889 367.36568888-367.3656889S902.78874075 116.39466666999999 902.78874075 319.31354075c0 202.79751111-164.56817778 367.85114075-367.3656889 367.85114073z m0 0"  horiz-adv-x="1024" />

    
    <glyph glyph-name="huanyuandezhihanglishi" unicode="&#58970;" d="M888.94577778 836.68977778H291.49866667c-38.68444445 0-70.08711111-31.40266667-70.08711112-70.08711111v-350.43555555h-105.13066666c-38.68444445 0-70.08711111-31.40266667-70.08711111-70.08711112v-297.87022222c0-67.69777778 54.95466667-122.65244445 122.65244444-122.65244445 5.80266667-0.34133333 11.71911111-0.34133333 17.52177778 0h702.69155555c38.00177778 0.91022222 68.38044445 32.08533333 68.38044445 70.08711111V766.60266667c-0.11377778 38.11555555-30.49244445 69.17688889-68.49422222 70.08711111z m-772.66488889-788.48V346.08000000000004h105.13066666v-297.87022222c0-29.01333333-23.552-52.56533333-52.56533333-52.56533334s-52.56533333 23.552-52.56533333 52.56533334z m162.92977778-52.56533334c7.96444445 16.384 12.17422222 34.36088889 12.288 52.56533334V346.08000000000004c0.11377778 1.93422222 0.11377778 3.98222222 0 5.91644444V766.60266667h595.74044444l1.70666667-770.95822223H279.21066667z m0 0M613.48977778 575.6835555600001H452.72177778l33.45066667 33.45066666c14.56355555 14.56355555 14.56355555 29.12711111 0 43.69066666-14.56355555 14.56355555-29.12711111 14.56355555-43.69066667 0l-87.38133333-87.38133333c-14.56355555-14.56355555-14.56355555-29.12711111 0-43.69066667l87.38133333-87.38133332c14.56355555-14.56355555 29.12711111-14.56355555 43.69066667 0 14.56355555 14.56355555 14.56355555 29.12711111 0 43.69066667L450.33244445 513.90222222h163.15733333c85.33333333 0 154.39644445-69.17688889 154.39644444-154.51022222 0-85.33333333-69.17688889-154.51022222-154.39644444-154.51022222H373.19111111c-17.06666667 0-30.94755555-13.88088889-30.94755556-30.94755556 0-16.27022222 12.62933333-29.696 28.672-30.83377778v-0.11377777h242.46044445c119.46666667 0 216.29155555 96.82488889 216.29155555 216.29155555 0 119.58044445-96.82488889 216.40533333-216.17777777 216.40533334z"  horiz-adv-x="1024" />

    
    <glyph glyph-name="zhuanyifenzu" unicode="&#58971;" d="M937.17333333 680.3199999999999L757.33333333 860.26666667H438.29333333c-37.33333333 0-67.84-30.50666667-67.84-67.84V758.4c0-20.37333333 13.54666667-33.92 33.92-33.92s33.92 13.54666667 33.92 33.92v33.92h271.46666667v-135.78666667c0-37.33333333 30.50666667-67.84 67.84-67.84h101.76v-237.54666666c0-20.37333333 13.54666667-33.92 33.92-33.92s33.92 13.54666667 33.92 33.92V670.18666667l-10.02666667 10.13333333z m-159.46666666 64.53333333l88.21333333-88.21333333h-88.21333333v88.21333333zM597.76 476.8L417.92 656.64H132.90666667c-37.33333333 0-67.84-30.50666667-67.84-67.84v-610.88c0-37.33333333 30.50666667-67.84 67.84-67.84h33.92c20.37333333 0 33.92 13.54666667 33.92 33.92s-13.54666667 33.92-33.92 33.92h-33.92V588.69333333h237.54666666v-135.78666666c0-37.33333333 30.50666667-67.84 67.84-67.84h101.76c0-20.37333333 13.54666667-33.92 33.92-33.92s33.92 13.54666667 33.92 33.92v81.49333333l-10.13333333 10.24z m-159.46666667 64.42666667l88.21333334-88.21333334h-88.21333334v88.21333334z m0 0M302.61333333 453.01333333h-101.76c-20.37333333 0-33.92 13.54666667-33.92 33.92s13.54666667 33.92 33.92 33.92h101.76c20.37333333 0 33.92-13.54666667 33.92-33.92s-13.65333333-33.92-33.92-33.92z m67.84-135.78666666H200.74666667c-20.37333333 0-33.92 13.54666667-33.92 33.92s13.54666667 33.92 33.92 33.92h169.70666666c20.37333333 0 33.92-13.54666667 33.92-33.92 0-20.26666667-13.54666667-33.92-33.92-33.92z m0-135.68H200.74666667c-20.37333333 0-33.92 13.54666667-33.92 33.92s13.54666667 33.92 33.92 33.92h169.70666666c20.37333333 0 33.92-13.54666667 33.92-33.92s-13.54666667-33.92-33.92-33.92z m509.01333334-67.94666667h-67.84c-37.33333333 0-67.84-30.50666667-67.84-67.84h-101.76v67.84c37.33333333 0 67.84 30.50666667 67.84 67.84v67.84c0 37.33333333-30.50666667 67.84-67.84 67.84h-67.84c-37.33333333 0-67.84-30.50666667-67.84-67.84v-67.84c0-37.33333333 30.50666667-67.84 67.84-67.84v-67.84h-101.76c0 37.33333333-30.50666667 67.84-67.84 67.84h-67.84c-37.33333333 0-67.84-30.50666667-67.84-67.84v-67.84c0-37.33333333 30.50666667-67.84 67.84-67.84h67.84c37.33333333 0 67.84 30.50666667 67.84 67.84h271.46666666c0-37.33333333 30.50666667-67.84 67.84-67.84h67.84c37.33333333 0 67.84 30.50666667 67.84 67.84v67.84c-0.10666667 37.33333333-30.61333333 67.84-67.94666666 67.84zM574.08 249.38666666999995h67.84v-67.84h-67.84v67.84zM336.53333333-22.08000000000004v67.84h67.84v-67.84h-67.84z m475.09333334 0v67.84h67.84v-67.84h-67.84z m0 0"  horiz-adv-x="1024" />

    
    <glyph glyph-name="beifenwenjiandeqingliguize" unicode="&#58972;" d="M107.62666667 721.17333333c-40.42666667 0-73.28-32.74666667-73.28-73.28v-666.88c0-40.42666667 32.74666667-73.28 73.28-73.28h623.25333333c40.42666667 0 73.28 32.74666667 73.28 73.28v67.30666667h82.02666667c40.42666667 0 73.28 32.74666667 73.28 73.28V788.48c0 40.42666667-32.74666667 73.28-73.28 73.28H262.93333333c-40.42666667 0-73.28-32.74666667-73.28-73.28v-67.30666667h-82.02666666z m696.53333333-608.21333333V647.89333333c0 40.42666667-32.74666667 73.28-73.28 73.28H254.4v76.05333334h644.58666667V113.06666667000002h-94.82666667zM99.2-18.986666669999977V656.42666667h640.32V-27.73333333000005H99.2v8.74666666z m0 0M229.01333333 191.14666666999995c-17.92 0-32.32-14.50666667-32.32-32.32 0-17.92 14.50666667-32.32 32.32-32.32h184.64c17.92 0 32.32 14.50666667 32.32 32.32 0 17.92-14.50666667 32.32-32.32 32.32H229.01333333z m0 175.04c-17.92 0-32.32-14.50666667-32.32-32.32 0-17.92 14.50666667-32.32 32.32-32.32h353.49333334c17.92 0 32.32 14.50666667 32.32 32.32 0 17.92-14.50666667 32.32-32.32 32.32H229.01333333z m0 168.64c-17.92 0-32.32-14.50666667-32.32-32.32 0-17.92 14.50666667-32.32 32.32-32.32h353.49333334c17.92 0 32.32 14.50666667 32.32 32.32 0 17.92-14.50666667 32.32-32.32 32.32H229.01333333z m0 0"  horiz-adv-x="1024" />

    
    <glyph glyph-name="zhihanghuanyuan" unicode="&#58973;" d="M914.65955555 863.00444444H128.22755555c-40.27733333 0-72.81777778-32.54044445-72.81777777-72.81777778v-786.432c0-40.27733333 32.54044445-72.81777778 72.81777777-72.81777778h786.432c40.27733333 0 72.81777778 32.54044445 72.81777778 72.81777778V790.18666666c0 40.16355555-32.65422222 72.81777778-72.81777778 72.81777778z m0-859.24977778H128.22755555V790.18666666h786.432v-786.432z m0 0M324.94933333 489.58577777c0 20.13866667 16.27022222 36.40888889 36.40888889 36.40888889h303.33155556v-58.59555555l125.83822222 95.34577777-125.83822222 95.34577778v-59.16444445H361.35822222c-60.30222222 0-109.22666667-48.92444445-109.22666667-109.22666666V383.43111110999996h72.81777778v106.15466666z m53.13422222-294.45688889h303.33155556c60.30222222 0 109.22666667 48.92444445 109.22666667 109.22666667v106.26844444h-72.81777778v-106.26844444c0-20.13866667-16.27022222-36.40888889-36.40888889-36.40888889H378.08355555V326.54222221l-125.83822222-95.232 125.83822222-95.34577777v59.16444444z m0 0"  horiz-adv-x="1024" />

    
    <glyph glyph-name="gaojingchuli" unicode="&#59011;" d="M478.37866667-38.172444449999944c-28.21688889 0-51.54133333 18.65955555-60.18844445 44.032h-66.44622222c9.89866667-61.09866667 62.80533333-108.31644445 126.63466667-108.31644444 63.82933333 0 116.736 47.21777778 126.63466667 108.31644444h-66.44622222c-8.64711111-25.37244445-32.08533333-44.032-60.18844445-44.032zM287.00444445 591.01866666c-26.05511111-34.70222222-39.82222222-76.00355555-39.82222223-119.35288888v-180.90666667c0-10.01244445 8.07822222-18.09066667 18.09066667-18.09066667s18.09066667 8.07822222 18.09066667 18.09066667v180.90666667c0 35.61244445 11.264 69.29066667 32.54044444 97.62133333 2.84444445 3.86844445 4.096 8.64711111 3.52711112 13.42577777-0.68266667 4.77866667-3.18577778 8.98844445-7.05422223 11.94666667-7.96444445 5.91644445-19.34222222 4.32355555-25.37244444-3.64088889z m0 0M451.75466667 60.700444439999956c0 8.53333333-3.41333333 16.72533333-9.44355555 22.75555556-6.03022222 6.03022222-14.22222222 9.44355555-22.75555556 9.44355555H134.42844445c25.37244445 35.04355555 51.42755555 84.30933333 55.296 141.99466667 3.41333333 50.74488889 2.73066667 133.80266667 2.27555555 194.33244444l-0.34133333 46.30755556c0 79.18933333 33.56444445 154.85155555 92.27377778 207.41688889 57.00266667 51.2 129.59288889 74.752 205.36888889 66.67377777 60.87111111-6.48533333 116.16711111-35.04355555 159.97155555-82.14755555 5.80266667-6.25777778 13.88088889-10.01244445 22.30044445-10.35377778 8.53333333-0.34133333 16.83911111 2.73066667 23.09688888 8.64711111 6.25777778 5.80266667 10.01244445 13.88088889 10.24 22.41422222 0.34133333 8.53333333-2.73066667 16.83911111-8.6471111 23.0968889-41.52888889 44.71466667-93.52533333 76.23111111-149.73155556 92.16V808.10666666c0 48.35555555-38.68444445 87.60888889-86.35733334 87.60888889-47.67288889 0-86.35733333-39.25333333-86.35733333-87.60888889v-4.43733333c-48.46933333-13.312-93.86666667-37.54666667-133.00622222-72.704-72.24888889-64.73955555-113.664-157.80977778-113.664-255.31733333l0.34133333-46.87644445c0.45511111-59.50577778 1.13777778-141.08444445-2.16177778-189.44-5.80266667-86.69866667-82.83022222-153.37244445-83.62666666-154.05511111-10.24-8.76088889-13.99466667-22.98311111-9.32977778-35.61244444 4.66488889-12.62933333 16.72533333-21.04888889 30.15111111-21.04888889h356.92088889c8.53333333 0 16.72533333 3.41333333 22.75555556 9.44355555 6.25777778 5.91644445 9.55733333 14.10844445 9.55733333 22.64177778z m8.64711111 770.50311111c9.78488889 0 17.97688889-7.28177778 20.70755556-16.83911111-13.76711111 0.91022222-27.648 0.91022222-41.41511112 0 2.73066667 9.67111111 10.92266667 16.83911111 20.70755556 16.83911111z m0 0M682.83733334 631.06844444c-163.84 0-297.984-134.144-297.984-297.984 0-163.84 134.03022222-297.984 297.984-297.984 163.84 0 297.984 134.144 297.984 297.984 0 163.84-134.144 297.984-297.984 297.984z m0-533.73155556c-130.048 0-235.52 105.472-235.52 235.52s105.472 235.52 235.52 235.52 235.52-105.472 235.52-235.52-105.472-235.52-235.52-235.52zM781.36888889 339.34222222000005h-65.30844444v106.83733333c0 18.77333333-15.36 34.13333333-34.13333333 34.13333333s-34.13333333-15.36-34.13333334-34.13333333v-140.40177777c0-9.44355555 3.86844445-18.09066667 10.24-24.23466667 6.25777778-6.37155555 14.79111111-10.35377778 24.34844444-10.35377778h98.8728889c18.77333333 0 34.13333333 15.36 34.13333333 34.13333333 0.11377778 18.65955555-15.24622222 34.01955555-34.01955556 34.01955556z"  horiz-adv-x="1024" />

    
    <glyph glyph-name="zhuanbaoxiu" unicode="&#59012;" d="M207.19691852-72.68882962999999c-50.72971852 0-101.33807408 20.14625185-138.59650371 60.19602963-71.24005925 76.45866667-67.11371852 196.608 9.34494816 267.84805925l383.26423703 357.5352889c5.82542222 5.33997037 11.89357037 10.43721482 18.20444444 15.0490074 16.99081482 12.25765925 40.65659259 8.49540741 52.91425186-8.4954074 12.25765925-16.99081482 8.49540741-40.65659259-8.49540741-52.91425185-3.88361482-2.79134815-7.5245037-5.82542222-10.92266667-8.98085927l-1.82044445-1.69908148-381.56515555-355.95757037c-45.8752-42.71976297-48.30245925-114.93072592-5.5826963-160.80592593 42.71976297-45.8752 114.93072592-48.30245925 160.80592593-5.58269628l383.26423704 357.53528888c15.29173333 14.32082963 39.3216 13.47128889 53.52106666-1.82044444 14.32082963-15.29173333 13.47128889-39.3216-1.82044445-53.52106666L336.44847407-21.83774815000004c-36.40888889-33.98162963-82.8909037-50.85108148-129.25155555-50.85108148z m0 0M710.97457777 329.38666666999995c-20.6317037 0-37.50115555 16.50536297-37.86524444 37.25842963-0.36408889 20.87442963 16.384 38.22933333 37.25842964 38.47205925 61.04557037 0.9709037 115.41617778 17.84035555 149.15508147 46.11792593C897.63081481 483.51762963 921.9034074 537.0386963000001 923.48112592 592.25884445l-30.09801482-24.51531853c-28.03484445-22.81623703-63.35146667-33.25345185-99.39626666-29.4912-36.16616297 3.76225185-68.57007408 21.23851852-91.26494814 49.27336297-22.81623703 28.03484445-33.25345185 63.35146667-29.4912 99.51762963 3.76225185 36.0448 21.23851852 68.57007408 49.27336295 91.26494815l13.95674075 11.40811851h-4.12634075c-57.64740741 0-100.36717037-13.59265185-130.58654815-41.50613333-36.89434075-34.22435555-60.80284445-92.96402963-60.80284443-149.7618963 0-20.99579259-16.99081482-37.86524445-37.86524445-37.86524444s-37.86524445 16.99081482-37.86524445 37.86524444c0 78.03638518 32.64663703 156.80094815 85.07543704 205.4674963 44.29748148 41.02068148 105.46441482 61.77374815 182.04444444 61.77374815 36.0448 0 70.87597037-7.03905185 103.8866963-20.99579259l62.38056297-26.33576296-55.09878519-39.44296297-2.91271111-2.18453333-70.39051852-57.28331852c-12.25765925-9.95176297-20.02488889-24.27259259-21.6026074-40.29250371-1.69908148-16.01991111 2.91271111-31.55437037 12.98583703-43.81202962 9.95176297-12.25765925 24.27259259-20.02488889 40.2925037-21.60260741 16.01991111-1.69908148 31.55437037 2.91271111 43.81202964 12.98583703l70.26915555 57.16195556c2.54862222 2.06317037 4.97588148 4.36906667 7.16041481 6.91768889l44.78293334 50.85108148 19.90352593-64.80782222c7.76722963-25.36485925 11.65084445-51.70062222 11.65084444-78.40047408 0-37.86524445-8.00995555-76.45866667-23.05896297-111.53256296-15.89854815-37.0157037-39.44296297-69.29825185-68.08462222-93.44948148-64.07964445-53.88515555-150.7328-63.2301037-196.72936296-63.95828148-0.24272592-0.12136297-0.48545185-0.12136297-0.60681482-0.12136296z m0 0M790.46731852-71.59656297000004c-35.19525925 0-70.26915555 14.44219259-95.51265185 42.84112594L505.50708147 184.60065184999996c-13.95674075 15.65582222-12.50038518 39.56432592 3.15543705 53.52106667s39.56432592 12.50038518 53.52106666-3.15543704l189.44758519-213.23472593c9.10222222-10.31585185 21.84533333-16.384 35.6807111-17.23354073 13.83537778-0.84954075 27.1853037 3.76225185 37.50115556 12.86447407s16.384 21.84533333 17.23354074 35.68071111c0.84954075 13.83537778-3.76225185 27.1853037-12.86447407 37.50115555L633.5450074 310.57540741c-13.95674075 15.65582222-12.50038518 39.56432592 3.15543704 53.52106667s39.56432592 12.50038518 53.52106666-3.15543705l195.51573334-220.15241481c46.72474075-52.67152592 41.99158518-133.3778963-10.67994074-180.224-24.27259259-21.48124445-54.49197037-32.16118518-84.58998518-32.16118519zM156.1031111 664.8338963l54.37060742 52.79288888 207.28794073-213.11336296-54.3706074-52.79288889L156.1031111 664.8338963z m0 0M155.4962963 627.21137778c-4.12634075 0-8.25268148 0.24272592-12.37902223 0.72817777-28.76302222 3.2768-54.49197037 17.47626667-72.45368889 39.92841482l-33.13208888 41.50613333c-3.15543703 4.00497778-6.67496297 7.40314075-10.1944889 11.04402963-9.8304 9.95176297-24.75804445 24.87940741-24.02986666 48.90927408 0.72817778 25.2434963 18.56853333 46.11792592 49.27336296 73.42459259 22.9376 22.08805925 53.52106667 46.96746667 88.23087407 44.66157037 33.01072592-2.18453333 52.79288889-26.94257778 65.9000889-43.32657778l33.13208888-41.50613334c37.13706667-46.60337778 29.4912-114.688-17.11217778-151.82506666-19.41807408-15.4130963-42.84112592-23.54441482-67.23508147-23.54441481z m-70.1477926 142.35875555c3.51952592-3.64088889 7.40314075-7.88859259 11.40811852-12.86447408l33.13208888-41.50613333c11.04402963-13.95674075 31.43300741-16.26263703 45.38974815-5.09724444 6.67496297 5.33997037 10.92266667 12.98583703 11.89357038 21.60260741 0.9709037 8.61677037-1.45635555 16.99081482-6.79632593 23.66577778l-33.13208889 41.50613333c-2.54862222 3.15543703-8.61677037 10.8013037-12.50038518 14.32082963-3.88361482-1.69908148-13.22856297-6.91768889-30.21937778-23.30168888l-1.09226667-1.09226667c-8.37404445-7.5245037-14.19946667-13.1072-18.08308148-17.23354075z m0 0M165.56942222 115.66648888999998c0-17.11217778 9.10222222-33.01072592 24.02986667-41.50613334 14.80628148-8.61677037 33.13208889-8.61677037 47.93837036 0s24.02986667 24.39395555 24.02986667 41.50613334c0 17.11217778-9.10222222 33.01072592-24.02986667 41.50613333-14.80628148 8.61677037-33.13208889 8.61677037-47.93837036 0-14.92764445-8.49540741-24.02986667-24.39395555-24.02986667-41.50613333z m0 0"  horiz-adv-x="1024" />

    
    <glyph glyph-name="icon-test1" unicode="&#59013;" d="M473.45592526 673.24814352c13.9093835 13.9093835 32.84625501 26.81326939 50.61004595 22.79127897 17.9313739 3.01649281 34.8572502-10.89289068 48.7666337-22.79127897l430.35297366-432.36396886c21.78578138-21.78578138 21.78578138-57.64852917 0-79.43431057s-57.64852917-21.78578138-79.43431056 0l-400.52321146 411.41610214-401.52870907-411.41610214c-21.78578138-21.78578138-57.64852917-21.78578138-79.43431054 0s-21.78578138 57.64852917 0 79.43431057l431.19088832 432.36396886z m0 0"  horiz-adv-x="1024" />

    
    <glyph glyph-name="icon-test2" unicode="&#59014;" d="M571.57796564 146.98743105000005c-13.9093835-13.9093835-32.84625501-26.81326939-50.61004597-22.79127899-17.9313739-3.01649281-34.8572502 10.89289068-48.76663371 22.79127899l-430.35297365 432.36396885c-21.78578138 21.78578138-21.78578138 57.64852917 0 79.43431056s57.64852917 21.78578138 79.43431056 0l400.52321146-411.41610216 401.52870907 411.41610216c21.78578138 21.78578138 57.64852917 21.78578138 79.43431056 0s21.78578138-57.64852917 0-79.43431056l-431.19088832-432.36396885z m0 0"  horiz-adv-x="1024" />

    
    <glyph glyph-name="icon-test3" unicode="&#59015;" d="M579.5991279 391.69834101L952.10456763 764.20378076c18.85308003 18.85308003 18.85308003 49.80355309 0 68.49952413l-2.04241699 2.04241701c-18.85308003 18.85308003-49.80355309 18.85308003-68.65663315 0L508.90007777 461.92606415 136.39463802 835.05993989c-18.85308003 18.85308003-49.80355309 18.85308003-68.49952412 0l-2.04241702-2.042417c-19.32440705-18.85308003-19.32440705-49.80355309 0-68.65663315L438.35813664 391.69834101 65.69558788 19.19290128c-18.85308003-18.85308003-18.85308003-49.80355309 0-68.49952414l2.042417-2.04241699c18.85308003-18.85308003 49.80355309-18.85308003 68.49952414 0L508.90007777 321.15639988 881.40551749-51.50614886000005c18.85308003-18.85308003 49.80355309-18.85308003 68.65663315 0l2.04241699 2.042417c18.85308003 18.85308003 18.85308003 49.80355309 0 68.49952413L579.5991279 391.69834101z m0 0"  horiz-adv-x="1024" />

    
    <glyph glyph-name="icon-test4" unicode="&#59017;" d="M517.03656297 872.14838519c-274.52302222 0-497.1026963-222.57967408-497.1026963-497.1026963 0-274.52302222 222.57967408-497.1026963 497.1026963-497.1026963C791.55958518-122.05700740999998 1014.13925925 100.52266667000004 1014.13925925 375.04568888999995c0 274.52302222-222.57967408 497.1026963-497.10269628 497.1026963z m0-911.31448889c-228.76918518 0-414.21179259 185.44260741-414.2117926 414.21179259s185.44260741 414.21179259 414.2117926 414.2117926 414.21179259-185.44260741 414.21179258-414.2117926-185.44260741-414.21179259-414.21179258-414.21179259z m0 662.76314074c22.9376 0 41.38477037-18.56853333 41.38477036-41.38477037v-414.21179259c0-14.80628148-7.88859259-28.5202963-20.75306666-35.92343704-12.86447408-7.40314075-28.64165925-7.40314075-41.38477037 0-12.86447408 7.40314075-20.75306667 21.11715555-20.75306667 35.92343704V582.21226667c0 11.04402963 4.36906667 21.48124445 12.13629629 29.24847408 7.88859259 7.76722963 18.44717037 12.1362963 29.36983705 12.13629629zM309.86998518 416.55182222H724.08177777c22.9376 0 41.38477037-18.56853333 41.38477037-41.38477037 0-22.9376-18.56853333-41.38477037-41.38477037-41.38477036H309.86998518c-14.80628148 0-28.5202963 7.88859259-35.92343704 20.75306666-7.40314075 12.86447408-7.40314075 28.64165925 0 41.38477037 7.5245037 12.62174815 21.11715555 20.6317037 35.92343704 20.6317037z m0 0"  horiz-adv-x="1024" />

    
    <glyph glyph-name="daoruduiyingguanxi" unicode="&#59018;" d="M590.64319999 803.30903702c0-21.35988148 17.3549037-38.71478518 38.71478519-38.71478517l271.36758519-1e-8L900.72557037-10.42962964000003l-775.50933334 0 0 271.36758519c0 21.35988148-17.3549037 38.71478518-38.71478518 38.71478519-21.35988148 0-38.83614815-17.3549037-38.83614815-38.71478519L47.66530371-10.42962964000003c0-42.71976297 34.83117037-77.55093333 77.55093332-77.55093334L900.36148148-87.98056298999995c42.71976297 0 77.55093333 34.83117037 77.55093334 77.55093335l0 775.02388149c0 42.71976297-34.83117037 77.55093333-77.55093334 77.55093332L628.87253333 842.14518518c-21.35988148 0-38.22933333-17.47626667-38.22933334-38.83614816m65.17191112-570.1632s0.48545186 0 0.48545186 0.48545187c7.40314075 7.40314075 10.92266667 16.86945185 10.92266666 26.8212148l0 310.20373333c0 21.35988148-17.3549037 38.71478518-38.83614815 38.7147852-21.35988148 0-38.71478518-17.3549037-38.71478518-38.7147852L589.6722963 352.44562962l-478.65552593 478.65552593c-6.43223703 6.43223703-15.89854815 10.92266667-25.85031112 10.92266667-9.95176297 0-19.41807408-4.00497778-25.8503111-10.92266667-6.43223703-6.43223703-10.92266667-15.89854815-10.92266667-25.85031111 0-9.95176297 4.00497778-19.41807408 10.92266667-25.85031112L538.45712592 299.28865184999995 318.18334815 299.28865184999995c-21.35988148 0-38.83614815-17.3549037-38.83614815-38.71478519s17.3549037-38.71478518 38.83614815-38.71478519l310.20373333 0c10.43721482-0.12136296 20.38897778 4.36906667 27.42802963 11.28675555z m0 0"  horiz-adv-x="1024" />

    
    <glyph glyph-name="daohangshousuo" unicode="&#59019;" d="M105.2 830.9v-128.1h768.7V830.9H105.2z m384.3-384.3h384.3V574.7H489.5v-128.1z m0-256.3h384.3V318.4H489.5v-128.1zM105.2-65.9h768.7V62.2H105.2v-128.1z m0 448.4l256.2-191.6V574.1L105.2 382.5z"  horiz-adv-x="1024" />

    
    <glyph glyph-name="qiyongjiance1" unicode="&#59021;" d="M188.2 830.26666667v-885c0-24.5 26.5-39.8 47.7-27.5l634.4 442.5c21.2 12.2 21.2 42.8 0 55.1L235.9 857.76666667c-21.2 12.3-47.7-3-47.7-27.5z m74.2-145.2"  horiz-adv-x="1024" />

    
    <glyph glyph-name="hulvegaojing" unicode="&#59022;" d="M384.6030222 745.7829926c67.8418963 126.58157037 180.70945185 126.58157037 248.55134815 0l325.37410372-583.02767407C1026.37037035 36.29511110999999 967.63069628-63.222518519999994 822.96604443-63.222518519999994H199.28177777C54.73848887-63.222518519999994-4.0011852 40.785540749999996 63.71934814 162.75531852999995l320.88367406 583.02767407z m176.21902223-185.32124445c0 27.06394075-22.57351111 49.75881482-49.75881481 49.75881483-27.06394075 0-49.75881482-22.57351111-49.75881482-49.75881483v-262.144c0-27.06394075 22.57351111-49.75881482 49.75881482-49.75881481 27.06394075 0 49.75881482 22.57351111 49.75881481 49.75881481v262.144z m0-415.7895111h-99.39626666v-103.8866963h103.8866963v103.8866963h-4.49042964z m0 0"  horiz-adv-x="1024" />

    
    <glyph glyph-name="chakanmorenzhi" unicode="&#59024;" d="M598.75555555-7.168000000000006H191.20355555c-23.89333333 0-46.76266667 9.44355555-63.71555555 26.39644445-16.83911111 16.95288889-26.39644445 39.82222222-26.39644445 63.71555555V699.05066667c0 23.89333333 9.44355555 46.76266667 26.39644445 63.71555555 16.83911111 16.95288889 39.82222222 26.39644445 63.71555555 26.39644445h616.10666667c23.89333333 0.11377778 46.87644445-9.44355555 63.71555556-26.28266667 17.06666667-17.06666667 26.28266667-39.59466667 26.28266666-63.71555555l-1.36533333-407.43822223v-0.11377777c0-18.31822222 14.79111111-33.22311111 33.10933333-33.22311112s33.22311111 14.79111111 33.22311111 33.10933334l1.36533333 407.66577778v0.11377777c0 86.35733333-69.97333333 156.33066667-156.33066666 156.33066667H191.08977778c-41.52888889 0-81.23733333-16.384-110.592-45.73866667-29.35466667-29.35466667-45.73866667-69.17688889-45.73866667-110.592v-616.10666667C34.64533333 41.52888888999996 51.14311111 1.7066666700000042 80.49777778-27.648000000000025c29.35466667-29.35466667 69.17688889-45.85244445 110.592-45.73866667h407.552c18.31822222 0 33.10933333 14.79111111 33.10933333 33.10933334 0 18.20444445-14.79111111 33.10933333-32.99555556 33.10933333z m0 0M953.96977778-16.839111109999976L827.44888888 109.68177777999995c60.07466667 84.42311111 45.39733333 200.81777778-33.792 267.71911111-79.07555555 66.90133333-196.38044445 62.00888889-269.53955555-11.264-73.27288889-73.27288889-78.16533333-190.464-11.264-269.53955556 66.90133333-79.07555555 183.296-93.75288889 267.71911111-33.792l126.63466667-126.52088888c8.30577778-8.64711111 20.59377778-12.06044445 32.19911111-8.98844445 11.60533333 3.072 20.59377778 12.06044445 23.66577778 23.66577778s-0.45511111 23.77955555-9.10222222 32.19911111zM665.31555555 92.27377778000005c-73.27288889 0-132.77866667 59.392-132.77866667 132.77866667 0 73.27288889 59.392 132.77866667 132.77866667 132.77866666 73.27288889 0 132.77866667-59.392 132.77866667-132.77866666-0.11377778-73.38666667-59.50577778-132.77866667-132.77866667-132.77866667z m99.44177778 464.21333333c18.31822222 0 33.22311111 14.90488889 33.22311111 33.22311111S783.07555555 622.93333333 764.75733333 622.93333333l-530.77333333 0.22755556c-18.31822222 0-33.22311111-14.90488889-33.22311112-33.22311111s14.90488889-33.22311111 33.22311112-33.22311111l530.77333333-0.22755556zM432.98133333 357.71733333c11.83288889 0 22.75555555 6.25777778 28.672 16.61155556 5.91644445 10.24 5.91644445 22.86933333 0 33.10933333s-16.83911111 16.61155555-28.672 16.61155556H233.984c-11.83288889 0-22.75555555-6.25777778-28.672-16.61155556-5.91644445-10.24-5.91644445-22.86933333 0-33.10933333s16.83911111-16.61155555 28.672-16.61155556h198.99733333zM233.984 225.16622222c-11.83288889 0-22.75555555-6.25777778-28.672-16.61155555-5.91644445-10.24-5.91644445-22.86933333 0-33.10933334s16.83911111-16.61155555 28.672-16.61155555h132.66488888c12.17422222-0.45511111 23.66577778 5.68888889 29.80977778 16.15644444 6.25777778 10.46755555 6.25777778 23.43822222 0 33.90577778s-17.63555555 16.61155555-29.80977778 16.15644445l-132.66488888 0.11377777z m0 0"  horiz-adv-x="1024" />

    
    <glyph glyph-name="fanhuishangyiji" unicode="&#59025;" d="M658.944 689.59194075H297.5250963v104.97896295c0 38.22933333-26.2144 52.79288889-57.89013334 32.03982222L45.93967408 701.00005925c-14.56355555-6.79632592-23.78714075-21.35988148-23.78714075-37.50115555 0-16.01991111 9.34494815-30.70482963 23.78714075-37.50115555L239.63496296 500.38708148c31.7970963-20.75306667 57.89013333-6.06814815 57.89013334 32.03982222v87.62405927h343.94263703c189.93303703 0 292.6061037-85.80361482 292.6061037-277.5570963 0-145.27146667-56.31241482-277.5570963-292.6061037-277.5570963H157.47223703c-24.02986667 0-43.44794075-19.41807408-43.44794073-43.44794074 0-24.02986667 19.41807408-43.44794075 43.44794073-43.44794074H658.33718518c189.93303703 0 343.94263703 120.39205925 343.94263704 312.38826666v104.12942223c0.48545185 191.75348148-153.16005925 295.15472592-343.33582222 295.15472592v-0.12136295z m0 0"  horiz-adv-x="1024" />

    
    <glyph glyph-name="daoru" unicode="&#59036;" d="M45.7234963 26.10062221999999V751.0016c1.57771852 6.5536 2.66998518 13.22856297 4.85451852 19.6608 6.79632592 20.6317037 18.08308148 38.22933333 34.83117036 52.4288 13.22856297 11.28675555 28.03484445 19.29671111 44.66157037 23.9085037 5.09724445 1.45635555 10.19448889 2.42725925 15.29173334 3.51952593h724.90097778c6.5536-1.57771852 13.22856297-2.66998518 19.6608-4.85451852 20.6317037-6.79632592 38.22933333-18.08308148 52.4288-34.83117036 11.28675555-13.22856297 19.29671111-28.03484445 23.9085037-44.66157038 1.45635555-5.09724445 2.42725925-10.19448889 3.51952593-15.29173334V25.97925925000004c-1.57771852-6.5536-2.66998518-13.22856297-4.85451852-19.6608-6.79632592-20.6317037-18.08308148-38.22933333-34.83117037-52.4288-13.22856297-11.28675555-28.03484445-19.29671111-44.66157038-23.9085037-5.09724445-1.45635555-10.19448889-2.42725925-15.29173333-3.51952592H145.36248889c-6.5536 1.57771852-13.22856297 2.66998518-19.6608 4.85451852-20.6317037 6.79632592-38.22933333 18.08308148-52.4288 34.83117037-11.28675555 13.22856297-19.29671111 28.03484445-23.90850371 44.66157037-1.45635555 5.09724445-2.42725925 10.19448889-3.64088888 15.29173333z m462.0288 708.51697778H240.26832592c-4.2477037 0-8.49540741-0.36408889-12.62174814-0.9709037-31.06891852-4.85451852-51.82198518-22.45214815-61.89511111-51.94334815-2.54862222-7.5245037-3.88361482-15.77718518-3.88361482-23.66577778-0.24272592-128.28065185-0.24272592-256.68266667-0.12136296-384.96331852 0-12.98583703 5.70405925-23.05896297 16.384-30.8261926 8.37404445-6.06814815 18.08308148-7.28177778 27.79211852-7.40314073 25.85031111-0.36408889 51.70062222 0.12136297 77.55093334-0.36408889 6.67496297-0.12136297 13.59265185-1.94180741 20.02488888-4.00497778 13.34992592-4.2477037 24.02986667-12.62174815 32.88936296-23.18032593 10.55857778-12.50038518 16.99081482-26.94257778 17.35490371-43.5693037 0.48545185-28.88438518 0.36408889-57.64740741 1.21362962-86.53179259 0.48545185-18.81125925 17.59762963-34.34571852 35.80207408-34.34571852 78.03638518-0.36408889 156.07277037-0.24272592 234.10915555 0 12.01493333 0 21.72397037 5.82542222 29.00574815 15.65582222 6.06814815 8.13131852 7.76722963 17.47626667 7.8885926 27.06394075 0.24272592 26.2144-0.24272592 52.30743703 0.24272592 78.52183703 0.12136297 6.91768889 2.06317037 13.95674075 4.12634075 20.51034074 4.2477037 13.34992592 12.62174815 24.02986667 23.30168888 32.88936297 12.62174815 10.43721482 27.06394075 16.86945185 43.69066667 17.11217777 28.5202963 0.48545185 57.04059259 0.60681482 85.56088889 1.09226666 18.56853333 0.36408889 35.31662222 17.23354075 35.31662222 37.62251853-0.12136297 129.13019259 0 258.38174815-0.12136296 387.51194074 0 4.12634075-0.84954075 8.37404445-1.69908149 12.50038518-3.39816297 17.23354075-12.1362963 31.31164445-25.36485926 42.84112593-13.47128889 11.77220741-29.24847408 18.32580741-46.8461037 18.3258074-90.7794963 0.24272592-181.43762963 0.12136297-272.21712592 0.12136297z m0 0M449.13398518 390.67496297V397.34992592c0 48.42382222-0.48545185 96.84764445 0.12136297 145.27146667 0.36408889 28.5202963 17.3549037 51.33653333 47.2101926 57.28331852 30.94755555 6.18951111 61.40965925-12.62174815 68.4487111-45.99656296 0.9709037-4.36906667 1.09226667-9.10222222 1.09226667-13.59265185 0.12136297-47.57428148 0-95.14856297 0-142.72284445v-6.79632593h6.18951111c43.32657778 0 86.53179259 0.12136297 129.85837037-0.12136295 5.70405925 0 12.1362963-0.48545185 15.77718518-5.94678519 3.88361482-5.82542222 2.42725925-12.37902222-4.00497777-18.93262223-6.43223703-6.67496297-12.98583703-13.1072-19.53943704-19.6608-48.1810963-48.1810963-96.24082963-96.36219259-144.54328889-144.42192592-6.67496297-6.67496297-13.47128889-13.47128889-21.23851851-18.93262222-14.68491852-10.43721482-35.80207408-7.76722963-48.05973334 4.49042962-59.22512592 58.9824-118.57161482 117.9648-177.79674074 176.9472-2.91271111 2.91271111-5.09724445 6.67496297-6.67496297 10.43721482-2.54862222 6.18951111 0.24272592 11.89357037 6.43223705 14.0781037 3.64088889 1.21362963 7.5245037 2.06317037 11.28675555 2.06317037 42.71976297 0.12136297 85.56088889 0.12136297 128.28065185 0.12136297h7.16041481z m0 0"  horiz-adv-x="1024" />

    
    <glyph glyph-name="you-daohangshousuo" unicode="&#59037;" d="M95.02922272 844.02226567v-132.69017284h796.14103703V844.02226567h-796.14103703z m398.07051852-265.25089185H95.15867653v-132.69017285h397.94106471V578.77137382z m0-265.50979952H95.15867653v-132.69017283h397.94106471V313.2615743z m398.07051851-265.25089184h-796.14103703v-132.69017284h796.14103703V48.01068246z m-265.38034567 530.11342222v-396.90543408l265.38034567 198.45271704-265.38034567 198.45271704z m265.38034567-198.45271704"  horiz-adv-x="1024" />

    
    <glyph glyph-name="shouye-gaojingshebeishu-icon" unicode="&#59039;" d="M522.35377778 326.99733332999995L391.73688889 406.75555555l-42.78044444 23.0968889 222.6631111 183.06844444 53.70311112-65.30844444-128.68266667-105.81333334 147.11466667-89.77066666-6.25777778-10.35377778-124.47288889-208.78222222H852.19555555V555.57688889C852.19555555 742.4 700.75733333 893.83822222 513.93422222 893.83822222c-186.82311111 0-338.26133333-151.43822222-338.26133333-338.26133333v-422.79822222h230.96888889l115.712 194.21866666zM6.59911111-36.29511110999999v-84.53688889h1014.67022222v84.53688889H6.59911111z"  horiz-adv-x="1024" />

    
    <glyph glyph-name="shouye-shebeishu-icon" unicode="&#59040;" d="M877.54666667 861.33333333v-954.77333333h80.96V861.33333333h-80.96zM474.77333333-14.506666669999959h-80.96V861.33333333H72v-954.77333333h724.48V861.33333333H474.77333333v-875.84z m-162.02666666 80.96H152.96v78.82666667h159.78666667v-78.82666667z m0 556.16H152.96v78.82666667h159.78666667v-78.82666667z m242.98666666 78.93333334h161.92v-78.82666667H555.73333333v78.82666667z m0-556.26666667h161.92v-78.82666667H555.73333333v78.82666667z"  horiz-adv-x="1024" />

    
    <glyph glyph-name="shouye-xinzenggaojingshu-icon" unicode="&#59041;" d="M515.2 863.57333333c-264.42666667 0-478.82666667-214.4-478.82666667-478.82666666 0-264.42666667 214.4-478.82666667 478.82666667-478.82666667s478.93333333 214.4 478.93333333 478.82666667c0 264.42666667-214.4 478.82666667-478.93333333 478.82666666z m239.46666667-523.73333333c0-18.88-15.36-34.24-34.24-34.24H594.34666667v-126.08c0-18.88-15.36-34.24-34.24-34.24h-89.81333334c-18.88 0-34.24 15.36-34.24 34.24V305.70666667H309.97333333c-18.88 0-34.24 15.36-34.24 34.24v89.81333333c0 18.88 15.36 34.24 34.24 34.24h126.08V589.9733333300001c0 18.88 15.36 34.24 34.24 34.24h89.81333334c18.88 0 34.24-15.36 34.24-34.24v-126.08h126.08c18.88 0 34.24-15.36 34.24-34.24v-89.81333333z"  horiz-adv-x="1024" />

    
    <glyph glyph-name="shouye-jinrigaojinghuifu-icon" unicode="&#59042;" d="M507.09333333 773.33333333c67.52 0 155.30666667-26.98666667 209.38666667-60.8l-87.78666667-135.04 351.25333334-175.57333333C973.12 658.56 763.73333333 861.12 507.09333333 861.12c-202.66666667 0-384.96-141.86666667-445.76-324.16-20.26666667-60.8 60.8-94.50666667 87.78666667-33.81333333 60.8 135.14666667 202.66666667 270.18666667 357.97333333 270.18666666z m0-769.92c148.58666667 0 303.89333333 101.33333333 351.25333334 236.37333334 26.98666667 87.78666667 114.77333333 47.25333333 94.50666666-6.72C885.33333333 43.94666667000001 709.76-84.37333333000004 507.09333333-84.37333333000004c-256.64 0-466.02666667 202.66666667-472.74666666 459.30666666l344.42666666-195.84-74.24-114.77333333c47.25333333-33.92 135.04-60.90666667 202.56-60.90666667z m0 263.36c-67.52 0-121.6 54.08-121.6 121.6s54.08 121.6 121.6 121.6 121.6-54.08 121.6-121.6-53.97333333-121.6-121.6-121.6z m0 0"  horiz-adv-x="1024" />

    
    <glyph glyph-name="gongnengcaidandaorumoban-icon" unicode="&#59043;" d="M375.28120889 425.60967111H131.56465778c-52.31047111 0-95.10912 42.79978667-95.10912 95.10912V764.4353422199999c0 52.31047111 42.79864889 95.10912 95.10912 95.10912h243.71655111c52.30933333 0 95.10912-42.79864889 95.10912-95.10912v-243.71655111c0-52.30933333-42.79978667-95.10912-95.10912-95.10912zM131.56465778 811.98990222c-26.15523555 0-47.55456-21.39932445-47.55456-47.55456v-243.71655111c0-26.15409778 21.39932445-47.55456 47.55456-47.55456h243.71655111c26.15409778 0 47.55456 21.40046222 47.55456 47.55456V764.4353422199999c0 26.15523555-21.40046222 47.55456-47.55456 47.55456H131.56465778zM375.28120889-91.54560000000004H131.56465778c-52.31047111 0-95.10912 42.79978667-95.10912 95.11025778V247.28120889000002c0 52.30933333 42.79864889 95.10912 95.10912 95.10912h243.71655111c52.30933333 0 95.10912-42.79978667 95.10912-95.10912v-243.71655111c0-52.31047111-42.79978667-95.10912-95.10912-95.10912zM131.56465778 294.83690666999996c-26.15523555 0-47.55456-21.40046222-47.55456-47.55456v-243.71655112c0-26.15523555 21.39932445-47.55456 47.55456-47.55456h243.71655111c26.15409778 0 47.55456 21.39932445 47.55456 47.55456V247.28120889000002c0 26.15409778-21.40046222 47.55456-47.55456 47.55456H131.56465778zM892.43534222-91.54560000000004H648.71879111c-52.30933333 0-95.10912 42.79978667-95.10912 95.11025778V247.28120889000002c0 52.30933333 42.79978667 95.10912 95.10912 95.10912h243.71655111c52.31047111 0 95.10912-42.79978667 95.10912-95.10912v-243.71655111c0-52.31047111-42.79864889-95.10912-95.10912-95.10912zM648.71879111 294.83690666999996c-26.15409778 0-47.55456-21.40046222-47.55456-47.55456v-243.71655112c0-26.15523555 21.40046222-47.55456 47.55456-47.55456h243.71655111c26.15523555 0 47.55456 21.39932445 47.55456 47.55456V247.28120889000002c0 26.15409778-21.39932445 47.55456-47.55456 47.55456H648.71879111zM770.57706667 425.60967111c-119.48032 0-216.96739555 97.48707555-216.96739556 216.96739556S651.09674667 859.5456 770.57706667 859.5456 987.5456 762.05852445 987.5456 642.57706667s-97.48593778-216.96739555-216.96739555-216.96739556z m0 386.38023111c-93.32508445 0-169.41283555-76.08661333-169.41283556-169.41283555s76.08775111-169.41283555 169.41283556-169.41283556 169.41283555 76.08775111 169.41283555 169.41283556-76.08661333 169.41283555-169.41283555 169.41283555z"  horiz-adv-x="1024" />

    
    <glyph glyph-name="shuzizidiandaorumoban-icon" unicode="&#59045;" d="M770.57706667-91.54560000000004H259.36782222c-52.30933333 0-95.10912 42.79978667-95.10912 95.11025778V764.4353422199999c0 52.31047111 42.79978667 95.10912 95.10912 95.10912h511.21038223c52.31047111 0 95.10912-42.79864889 95.10912-95.10912v-760.87068444c0-52.31047111-42.79864889-95.10912-95.10912-95.10912zM259.36782222 811.99104c-26.15523555 0-47.55456-21.39932445-47.55456-47.55456v-760.87068445c0-26.15523555 21.39932445-47.55456 47.55456-47.55456h511.21038223c26.15523555 0 47.55456 21.39932445 47.55456 47.55456V764.4353422199999c0 26.15523555-21.39932445 47.55456-47.55456 47.55456H259.36782222zM544.69404445 439.28234667l-130.77617778 71.33184-130.77390222-71.33184V859.54446222h261.55008v-420.26211555z m-130.77617778 125.42407111l83.22161778-45.77052445V811.98990222H330.69852445v-293.05400889l83.22048 45.77052445z m309.10464-463.65582223H306.92124445c-13.07761778 0-23.77728 10.69966222-23.77728 23.77728s10.69966222 23.77728 23.77728 23.77728H723.02364445c13.07761778 0 23.77728-10.69966222 23.77728-23.77728s-10.69966222-23.77728-23.77728-23.77728zM514.97187555 224.09784889000002H306.92124445c-13.07761778 0-23.77728 10.69966222-23.77728 23.77728s10.69966222 23.77728 23.77728 23.77728h208.0506311c13.07761778 0 23.77728-10.69966222 23.77728-23.77728s-10.69966222-23.77728-23.77728-23.77728z"  horiz-adv-x="1026" />

    
    <glyph glyph-name="shewei-moren" unicode="&#59044;" d="M50 537l366-216c30-18 63-27 96-27s66 9 96 27l366 216c21 12 24 45 0 60L602 837c-27 18-60 27-90 27s-60-9-87-27L50 597c-24-15-21-48 0-60z m405 270c15 9 36 15 60 15s42-6 60-15l369-240-360-213c-24-12-45-21-72-21s-48 6-72 21l-360 213 375 240zM47 351l369-231c30-18 63-27 96-27s66 9 96 27l369 231c9 6 15 15 15 24 0 24-27 27-45 12l-369-231c-21-12-42-18-66-18s-45 6-66 18L77 390c-24 18-45 9-45-12 0-12 6-21 15-27z m903-153l-369-231c-21-12-42-18-66-18s-45 6-66 18L77 198c-18 15-45 12-45-12 0-9 6-21 15-24l369-231c30-18 63-27 96-27s66 9 96 27l369 231c9 6 15 15 15 24 3 24-24 27-42 12z"  horiz-adv-x="1027" />

    
    <glyph glyph-name="shebeiwenjian" unicode="&#59046;" d="M904.39573333 737.4208H438.60586667l-10.35093334 41.4016c-14.23253333 54.14506667-46.85013333 82.8064-103.50826666 82.8064H117.72906667c-45.73226667 0-82.8064-37.07306667-82.8064-82.8064V-7.840000000000032c0-45.7344 37.07413333-82.8064 82.8064-82.8064h786.66666666c45.73013333 0 82.80426667 37.07306667 82.80426667 82.8064V654.6143999999999c0 45.7312-37.0752 82.8064-82.80426667 82.8064z m41.40053334-745.2608c0-22.8672-18.53653333-41.40586667-41.4016-41.40586667h-786.66666667c-22.8672 0-41.4016 18.53866667-41.4016 41.40586667V551.10293333c0 22.8672 18.5344 41.40586667 41.4016 41.40586667h786.66666667c22.86506667 0 41.4016-18.53866667 41.4016-41.40586667V-7.840000000000032z m0 630.64533333a82.39466667 82.39466667 0 0 1-41.4016 11.10506667h-786.66666667a82.3936 82.3936 0 0 1-41.4016-11.104V778.8224c0 22.8672 18.5344 41.40586667 41.4016 41.40586667h207.01653333c39.67253333 0 51.10826667-17.89013333 62.1056-41.40586667l20.70186667-82.8064h496.84266667c22.86506667 0 41.4016-18.53653333 41.4016-41.4016v-31.80906667z"  horiz-adv-x="1024" />

    
    <glyph glyph-name="huanyuanzhihanglishi-icon" unicode="&#59047;" d="M510.14492667 874.72709531c-272.2206859 0-488.5419147-218.43909342-488.54191472-488.5419147 0-272.08864301 216.4532717-492.78023301 488.54191472-492.78023302S1002.92774875 114.09653760000003 1002.92774875 386.18518061c0 270.1028213-220.69288453 488.5419147-492.78152756 488.5419147zM808.33275575 88.13327803000004c-38.68080355-38.68080355-83.85242201-69.14905632-134.05849978-90.34323691-51.92651915-21.99032162-107.16576174-33.11687806-164.12803478-33.11687806s-112.20022107 11.12655645-164.12674022 33.11687806C295.81210864 18.984221710000043 250.7725331 49.45247446999997 211.95968663 88.13327803000004c-38.68080355 38.68080355-65.43890963 83.85112747-86.63438474 134.05720526-21.98902708 51.92781369-32.58611737 107.03371884-32.58611738 163.99469732s10.59709029 112.20151562 32.58611738 164.12803476c21.19547511 50.20607778 47.95358119 95.24435879 86.63438474 134.0584998 38.68080355 38.68080355 83.85242201 64.64406313 134.0584998 85.83824371 51.92651915 21.99032162 107.16576174 32.58741191 164.12674024 32.5874119s112.20151562-10.59709029 164.12803475-32.5874119c50.20607778-21.19418059 95.24435879-47.1587347 134.0584998-85.83824371 38.68080355-38.68080355 69.14776178-83.85242201 90.34323689-134.0584998 21.98902708-51.92651915 33.11687806-107.16576174 33.11687807-164.12803476s-11.12785099-112.20022107-33.11687807-164.12674024c-21.19547511-50.07274035-51.66372788-95.24565333-90.34323689-133.92516234zM525.77647629 377.30982622V627.40944213c-0.1320429 19.73782503-17.22124263 35.7667979-36.95906766 35.7667979h-0.1320429c-19.86986793-0.1320429-35.76550337-16.16101579-35.76550336-36.03088371l0.13204289-264.27351545c0-10.33300448 4.76907899-19.60578213 12.05474039-26.22863992l118.69103597-120.67944676c7.02028105-7.02028105 16.16101579-10.46375285 25.30175052-10.46375286 9.13944019 0 18.41221783 3.44347181 25.30045598 10.46375286 14.04185663 14.04185663 14.04185663 36.69368731 0 50.73554394l-108.62341183 110.61052809z"  horiz-adv-x="1024" />

    
    <glyph glyph-name="daochu-exle" unicode="&#59048;" d="M917.27678157 276.29441581000003v-265.12143803c0-15.18924905-12.42756741-27.61681646-27.61681647-27.61681646h-773.27086091c-15.18924905 0-27.61681646 12.42756741-27.61681646 27.61681646V756.82702222c0 15.18924905 12.42756741 27.61681646 27.61681646 27.61681646h397.54407296v69.04204116H116.38910419c-53.43853985 0-96.65885762-43.22031776-96.65885761-96.65885762v-745.65404444c0-53.43853985 43.22031776-96.65885762 96.65885761-96.65885762h773.27086091c53.43853985 0 96.65885762 43.22031776 96.65885762 96.65885762V276.29441581000003h-69.04204115z m52.47195126 329.05436813c-8.83738127 0-17.67476253 3.31401797-24.44088256 10.08013799L767.45555227 793.41930403c-13.53224006 13.53224006-13.53224006 35.34952507 0 48.88176514 13.53224006 13.53224006 35.34952507 13.53224006 48.88176513 0L994.18961541 664.31068708c13.53224006-13.53224006 13.53224006-35.34952507 0-48.88176515-6.76612003-6.62803595-15.6035013-10.08013802-24.44088258-10.08013799zM791.75835075 427.91073817c-8.83738127 0-17.67476253 3.31401797-24.44088257 10.08013801-13.53224006 13.53224006-13.53224006 35.34952507 0 48.88176514l177.99038209 177.99038209c13.53224006 13.53224006 35.34952507 13.53224006 48.88176514 0 13.53224006-13.53224006 13.53224006-35.34952507 0-48.88176514L816.19923332 437.99087618c-6.76612003-6.76612003-15.6035013-10.08013802-24.44088257-10.08013801zM333.18111342 158.92294585000002h-1.24275674c-19.05560336 0.69042042-33.96868425 16.57008987-33.27826385 35.62569323 0.13808409 2.3474294 2.20934532 59.23807131 25.26938707 133.3892235C354.72223025 426.80606551 408.43693827 510.34693531 479.55024065 569.99925886c118.75231078 99.42053925 283.90087322 134.90814842 490.8889126 105.08198663 18.91751926-2.76168163 32.03550709-20.16027601 29.27382545-39.07779528-2.76168163-18.91751926-20.16027601-31.89742302-39.07779529-29.27382546-186.68967926 26.78831197-333.74922693-3.31401797-436.75995233-89.6165694-147.88805215-123.86142183-156.17309709-322.70250035-156.1730971-324.77376159-0.69042042-18.7794352-16.01775355-33.41634791-34.52102056-33.41634791zM479.55024065 818.96485925a34.52102059 34.52102059 0 1 1 69.04204115 0 34.52102059 34.52102059 0 1 1-69.04204115 0zM917.27678157 276.29441581000003a34.52102059 34.52102059 0 1 1 69.04204115 0 34.52102059 34.52102059 0 1 1-69.04204115 0z"  horiz-adv-x="1024" />

    
    <glyph glyph-name="lixian-icon" unicode="&#59049;" d="M505.6 236.79999999999995c-51.2 0-102.4-19.2-134.4-51.2-12.8-12.8-32-12.8-44.8 0-19.2 12.8-12.8 38.4 0 57.6 32 25.6 76.8 44.8 121.6 57.6l57.6-64zM288 448c-44.8-19.2-83.2-44.8-115.2-76.8-12.8-12.8-12.8-38.4 0-51.2 12.8-12.8 38.4-12.8 44.8 0 38.4 32 76.8 57.6 121.6 76.8L288 448zM128 608c-38.4-25.6-83.2-57.6-115.2-96-12.8-12.8-12.8-38.4 0-51.2 12.8-12.8 32-12.8 44.8 0 38.4 38.4 76.8 70.4 121.6 96L128 608z m864-96C864 640 691.2 716.8 505.6 716.8c-76.8 0-147.2-12.8-211.2-32l57.6-57.6c44.8 12.8 96 19.2 153.6 19.2 172.8 0 326.4-70.4 441.6-179.2 12.8-19.2 32-19.2 44.8 0 12.8 6.4 19.2 32 0 44.8z m-486.4-12.8H480l76.8-76.8c83.2-6.4 166.4-44.8 224-102.4 12.8-12.8 32-12.8 44.8 0 19.2 12.8 19.2 38.4 0 51.2-83.2 76.8-198.4 128-320 128z m0-409.6c-38.4 0-70.4-32-70.4-70.4 0-38.4 32-70.4 70.4-70.4s70.4 32 70.4 70.4c0 44.8-32 70.4-70.4 70.4z m192 121.6l-64 64L480 428.8l-64 64L300.8 608l-57.6 57.6-38.4 38.4c-19.2 12.8-38.4 12.8-51.2 0-12.8-12.8-12.8-38.4 0-51.2l19.2-19.2 51.2-51.2 140.8-140.8 25.6-25.6 288-288c12.8-12.8 38.4-12.8 51.2 0 12.8 12.8 12.8 38.4 0 51.2l-32 32z"  horiz-adv-x="1024" />

    
    <glyph glyph-name="guanbigaojing" unicode="&#59050;" d="M689.49333333 25.600000000000023c-75.09333333 0-150.18666667 30.72-201.38666666 85.33333333-54.61333333 54.61333333-85.33333333 126.29333333-85.33333334 201.38666667s30.72 150.18666667 85.33333334 201.38666667 126.29333333 85.33333333 201.38666666 85.33333333 150.18666667-30.72 201.38666667-85.33333333 85.33333333-126.29333333 85.33333333-201.38666667-30.72-150.18666667-85.33333333-201.38666667-122.88-85.33333333-201.38666667-85.33333333z m0 525.65333333c-129.70666667 0-238.93333333-105.81333333-238.93333333-238.93333333 0-129.70666667 105.81333333-238.93333333 238.93333333-238.93333333 129.70666667 0 238.93333333 105.81333333 238.93333334 238.93333333s-105.81333333 238.93333333-238.93333334 238.93333333z m-218.45333333-587.09333333c-27.30666667 0-51.2 17.06666667-58.02666667 40.96h-64.85333333c10.24-58.02666667 61.44-105.81333333 122.88-105.81333333s112.64 44.37333333 122.88 105.81333333h-64.85333333c-6.82666667-23.89333333-30.72-40.96-58.02666667-40.96zM290.13333333 568.3199999999999c-23.89333333-34.13333333-37.54666667-71.68-37.54666666-116.05333333v-170.66666667c0-10.24 6.82666667-17.06666667 17.06666666-17.06666667s17.06666667 6.82666667 17.06666667 17.06666667v174.08c0 34.13333333 10.24 68.26666667 30.72 95.57333333 6.82666667 6.82666667 3.41333333 17.06666667-3.41333333 23.89333334-10.24 3.41333333-20.48 3.41333333-23.89333334-6.82666667zM447.14666667 59.73333333000005c0 17.06666667-13.65333333 30.72-30.72 30.72h-273.06666667c23.89333333 34.13333333 47.78666667 81.92 54.61333333 136.53333334 3.41333333 47.78666667 3.41333333 129.70666667 3.41333334 187.73333333v44.37333333c0 75.09333333 30.72 150.18666667 88.74666666 201.38666667 51.2 47.78666667 119.46666667 68.26666667 194.56 61.44 58.02666667-6.82666667 112.64-34.13333333 153.6-78.50666667 10.24-13.65333333 30.72-13.65333333 44.37333334 0 13.65333333 10.24 13.65333333 30.72 0 44.37333334-40.96 44.37333333-88.74666667 75.09333333-143.36 88.74666666v3.41333334c0 47.78666667-37.54666667 85.33333333-81.92 85.33333333S375.46666667 827.73333333 375.46666667 779.94666667v-3.41333334c-47.78666667-13.65333333-88.74666667-37.54666667-129.70666667-71.68-68.26666667-61.44-109.22666667-153.6-109.22666667-245.76v-44.37333333c0-58.02666667 0-136.53333333-3.41333333-180.90666667-6.82666667-81.92-78.50666667-146.77333333-81.92-146.77333333-10.24-6.82666667-13.65333333-20.48-10.24-34.13333333 3.41333333-13.65333333 17.06666667-20.48 30.72-20.48h344.74666667c17.06666667-3.41333333 30.72 10.24 30.72 27.30666666z m6.82666666 740.69333334c10.24 0 17.06666667-6.82666667 20.48-17.06666667h-40.96c3.41333333 10.24 13.65333333 17.06666667 20.48 17.06666667zM614.4 233.81333332999998c-6.82666667 6.82666667-6.82666667 17.06666667 0 23.89333334l133.12 133.12c6.82666667 6.82666667 17.06666667 6.82666667 23.89333333 0 6.82666667-6.82666667 6.82666667-17.06666667 0-23.89333334l-133.12-133.12c-3.41333333-6.82666667-17.06666667-6.82666667-23.89333333 0zM614.4 390.82666667c6.82666667 6.82666667 17.06666667 6.82666667 23.89333333 0l133.12-133.12c6.82666667-6.82666667 6.82666667-17.06666667 0-23.89333334-6.82666667-6.82666667-17.06666667-6.82666667-23.89333333 0L614.4 366.93333333c-6.82666667 6.82666667-6.82666667 17.06666667 0 23.89333334z"  horiz-adv-x="1024" />

    
    <glyph glyph-name="querengaojing" unicode="&#59051;" d="M883.38432 368.88234666999995L678.05070222 184.23694221999995a20.08519111 20.08519111 0 0 0-13.45422222-5.16551111c-5.17688889 0-10.33216 1.98997333-14.24952889 5.90848L518.44096 316.88021332999995c-7.86773333 7.85066667-7.86773333 20.61539555 0 28.47288889 7.86659555 7.86659555 20.62108445 7.86659555 28.48768 0L665.33831111 226.96391111000003l191.13073778 171.86133334c8.25457778 7.44448 21.00792889 6.77432889 28.42624-1.49959112 7.43310222-8.26026667 6.75498667-20.97948445-1.51096889-28.44330666zM703.06019555 2.0809955500000115c-81.76412445 0-158.63352889 31.83957333-216.4474311 89.65575112-57.81390222 57.81390222-89.65347555 134.68330667-89.65347556 216.44629333 0 81.76412445 31.83957333 158.63466667 89.65347556 216.44970667 57.81390222 57.81504 134.68330667 89.65575111 216.4474311 89.65575111s158.63466667-31.84071111 216.44970667-89.65575111c57.81504-57.81504 89.65688889-134.68444445 89.65688889-216.44970667 0-81.76184889-31.84071111-158.63125333-89.65688889-216.44629333s-134.68558222-89.65575111-216.44970667-89.65575112z m0 559.4168889c-139.67587555 0-253.31029333-113.63555555-253.31029333-253.31484445 0-139.67701333 113.63441778-253.31143111 253.31029333-253.31143111 139.67928889 0 253.31598222 113.63441778 253.31598223 253.31143111-0.00113778 139.67815111-113.63783111 253.31484445-253.31598223 253.31484445zM470.11953778-64.12401778000003c-28.93824 0-52.95217778 19.13628445-61.83367111 45.17774223h-68.21660445c10.15580445-62.78826667 64.51996445-111.26442667 130.04458667-111.26442667 65.55079111 0 119.90357333 48.49208889 130.05937778 111.26442667h-68.20408889c-8.89400889-26.04145778-32.89656889-45.17774222-61.8496-45.17774223zM273.63669333 582.09848889c-26.76167111-35.63975111-40.90311111-78.02197333-40.90311111-122.65699556v-185.87306666c0-10.25934222 8.31032889-18.59015111 18.59584-18.59015112 10.27982222 0 18.58446222 8.33080889 18.58446223 18.59015112V459.44149333c0 36.53063111 11.56437333 71.20554667 33.4279111 100.33379556 6.20771555 8.24888889 4.54200889 19.87470222-3.63406222 26.01415111-8.27392 6.17585778-19.90542222 4.46464-26.07104-3.69095111zM442.87317333 37.37031110999999c0 18.26133333-14.77518222 33.03537778-33.04106666 33.03537778H116.88732445c26.01415111 36.01066667 52.79061333 86.62129778 56.80241777 145.87107556 3.54645333 52.15345778 2.83534222 137.39804445 2.31537778 199.68341333l-0.32540445 47.63079111c0 81.38296889 34.53155555 159.02264889 94.80874667 213.03637333 58.53980445 52.54371555 133.08131555 76.80455111 210.91669333 68.48398223 62.47196445-6.71175111 119.33696-35.95377778 164.3884089-84.41969778 12.45070222-13.48608 33.36078222-14.19264 46.65685333-1.74193778 13.42464 12.39836445 14.19377778 33.30844445 1.74307555 46.66140444-42.68714667 45.98556445-96.11832889 78.32007111-153.86282666 94.67790222v4.77980445c0 49.63100445-39.75850667 89.97205333-88.68295112 89.97205333s-88.67726222-40.34104889-88.67726222-89.97205333v-4.53632c-49.83694222-13.66698667-96.39025778-38.58318222-136.63232-74.71786667-74.21724445-66.55089778-116.73941333-162.13105778-116.73941333-262.22933333l0.32995555-48.21333333c0.51541333-61.18286222 1.21628445-144.95857778-2.1959111-194.58389334-6.01201778-89.06410667-85.12625778-157.54467555-85.90449778-158.25578666-10.58360889-8.97024-14.38833778-23.62709333-9.61422222-36.59776 4.77866667-12.98090667 17.16679111-21.62119111 30.98396444-21.62119112h366.63978666c18.26019555 0.00568889 33.03537778 14.78656 33.03537778 33.05699556z m8.78478222 791.56792889c10.05795555 0 18.47637333-7.46951111 21.29123556-17.27032889-14.32689778 0.88632889-28.51953778 0.91818667-42.57223111 0.04664889 2.82396445 9.7792 11.22759111 17.22368 21.28099555 17.22368z"  horiz-adv-x="1024" />

    
    <glyph glyph-name="kaishifaxian-icon" unicode="&#59052;" d="M515.49297778 18.361457780000023c-203.9808 0-394.33784889 109.78986667-496.56035556 286.64263111-11.06147555 19.21024-4.54087111 43.77713778 14.66936889 54.83747556s43.776 4.53973333 54.83633778-14.67050667c88.01848889-152.05262222 251.59907555-246.47566222 427.05351111-246.47566223 175.45671111 0 339.15221333 94.42304 427.05464889 246.4768 11.06147555 19.21024 35.62723555 25.72970667 54.83747556 14.6693689 19.21024-11.06033778 25.73084445-35.62723555 14.66936888-54.83747556-102.22250667-176.85276445-292.57955555-286.64263111-496.56035555-286.64263111z m461.86496 394.92039111c-13.85472 0-27.36014222 7.21806222-34.81144889 20.02488889-88.01848889 152.05262222-251.59793778 246.4768-427.05351111 246.4768-175.45557333 0-339.03502222-94.42417778-427.05351111-246.4768-11.06147555-19.21024-35.62723555-25.73084445-54.83747556-14.66936889-19.21024 11.0592-25.73084445 35.62609778-14.67050666 54.83633778 102.22364445 176.85276445 292.58183111 286.64376889 496.56035555 286.64376888S909.83196445 650.32647111 1012.05333333 473.47370667c11.06147555-19.21024 4.54087111-43.776-14.66936888-54.83633778a40.37404445 40.37404445 0 0 0-20.0248889-5.35552zM515.49297778 169.59943110999995c-119.80344889 0-217.13692445 97.45066667-217.13692445 217.13692444s97.45066667 217.13578667 217.13692445 217.13578667 217.13578667-97.44952889 217.13578667-217.13578667-97.33233778-217.13692445-217.13578667-217.13692444z m0 354.05368889c-75.44490667 0-136.91790222-61.35580445-136.91790223-136.91676445s61.35694222-136.91790222 136.91790223-136.91790222 136.91790222 61.47299555 136.91790222 136.91790222-61.47413333 136.91790222-136.91790222 136.91790223z"  horiz-adv-x="1024" />

    
    <glyph glyph-name="weifaxianderenwu" unicode="&#59053;" d="M512 629.276c-19.996 0-39.196-1.422-57.628-4.124-23.325-3.356-45.056 12.089-48.555 34.532-3.527 22.442 12.515 43.377 35.84 46.734 22.613 3.3 46.08 5.034 70.343 5.034 175.388 0 303.36-91.022 385.308-177.777a761.06 761.06 0 0 0 114.86-159.175 548.468 548.468 0 0 0 7.48-14.706l0.427-0.939 0.17-0.341v-0.086l0.029-0.028-38.97-16.725 39.027-16.726-0.086-0.113-0.085-0.228-0.341-0.74a624.356 624.356 0 0 0-22.614-41.642 770.39 770.39 0 0 0-67.84-96.228 43.804 43.804 0 0 0-59.59-6.144 40.078 40.078 0 0 0-7.197 57.287 686.478 686.478 0 0 1 71.168 104.534A678.969 678.969 0 0 1 834.19 478.35C760.946 555.947 654.165 629.276 512 629.276z m469.333-287.601l38.97-16.726a39.822 39.822 0 0 1 0 33.451l-38.97-16.725z m-794.368 194.73c8.391-7.338 13.37-17.578 13.91-28.444 0.512-10.894-3.47-21.533-11.094-29.582a679.168 679.168 0 0 1-99.555-136.704A679.367 679.367 0 0 1 189.78 204.97C263.111 127.43 369.835 54.073 512 54.073a394.809 394.809 0 0 1 134.4 23.239c21.902 7.396 45.91-3.47 54.044-24.405 8.107-20.935-2.616-44.26-24.177-52.537A483.186 483.186 0 0 0 512-28.103c-175.388 0-303.36 91.022-385.308 177.778A760.917 760.917 0 0 0 11.832 308.85a508.811 508.811 0 0 0-7.48 14.706l-0.427 0.938-0.17 0.342-0.029 0.056v0.057l38.97 16.726L3.64 358.4l0.057 0.028 0.028 0.086 0.142 0.341 0.427 0.939 1.621 3.186c8.818 17.464 18.49 34.531 28.843 51.171a763.506 763.506 0 0 0 91.876 119.524 43.35 43.35 0 0 0 29.582 13.369c11.292 0.54 22.357-3.3 30.72-10.639zM42.667 341.675L3.697 358.4a39.822 39.822 0 0 1 0-33.45l38.97 16.725zM469.817 531.456c0 22.784 19 41.273 42.439 41.273 128.114 0 229.234-104.391 229.234-229.917 0-14.734-8.107-28.359-21.22-35.754a43.52 43.52 0 0 0-42.467 0 41.074 41.074 0 0 0-21.22 35.754c0 82.916-66.133 147.371-144.327 147.371-23.438 0-42.44 18.489-42.44 41.273z m-130.93-107.008c22.926-4.807 37.49-26.738 32.569-49.038a151.04 151.04 0 0 1-3.527-32.598c0-82.915 66.133-147.37 144.327-147.37 11.207 0 22.073 1.28 32.484 3.698 22.755 5.376 45.71-8.25 51.2-30.408 5.546-22.158-8.477-44.458-31.26-49.806a229.063 229.063 0 0 0-52.424-5.973c-128.114 0-229.234 104.391-229.234 229.916a231.42 231.42 0 0 0 5.433 49.92c2.361 10.695 9.017 20.054 18.489 25.999 9.444 5.973 20.935 7.992 31.943 5.688v-0.028zM100.21 784.697a43.32 43.32 0 0 0 60.018 0l764.074-742.884c16.1-16.213 15.872-41.955-0.512-57.856a43.32 43.32 0 0 0-59.506-0.512L100.21 726.33a40.476 40.476 0 0 0 0 58.368z"  horiz-adv-x="1024" />

    
    <glyph glyph-name="add" unicode="&#59054;" d="M512 896a512 512 0 1 1 512-512A512.557 512.557 0 0 1 512 896z m0-912.575A400.575 400.575 0 1 0 912.575 384 401.132 401.132 0 0 0 512-16.575zM690.838 439.713H579.412V551.138a55.713 55.713 0 1 1-111.425 0v-111.425H356.56a55.713 55.713 0 0 1 0-111.426h111.426v-111.425a55.713 55.713 0 1 1 111.425 0V328.287h111.426a55.713 55.713 0 0 1 0 111.426z"  horiz-adv-x="1024" />

    
    </font>
</defs>
</svg>
