<?xml version="1.0" standalone="no"?>
<!DOCTYPE svg PUBLIC "-//W3C//DTD SVG 1.1//EN" "http://www.w3.org/Graphics/SVG/1.1/DTD/svg11.dtd" >
<!--
2013-9-30: Created.
-->
<svg>
<metadata>
Created by iconfont
</metadata>
<defs>

<font id="iconfont" horiz-adv-x="1024" >
  <font-face
    font-family="iconfont"
    font-weight="500"
    font-stretch="normal"
    units-per-em="1024"
    ascent="896"
    descent="-128"
  />
    <missing-glyph />
    
    <glyph glyph-name="icon-test" unicode="&#58932;" d="M879.3 853.13333333H144.2c-44.2 0-80-35.8-80-80v-735.1c0-44.2 35.8-80 80-80h735.1c44.2 0 80 35.8 80 80V773.13333333c0 44.2-35.8 80-80 80z m15.1-786.2c0-25.4-20.6-46-46-46H174.7c-25.4 0-46 20.6-46 46V740.63333333c0 25.4 20.6 46 46 46h673.7c25.4 0 46-20.6 46-46v-673.7zM715.3 431.13333333H540.5V610.73333333h-64v-179.6H294.3v-64h182.2v-177.5h64V367.13333333h174.8z"  horiz-adv-x="1024" />

    
    <glyph glyph-name="liujiaoxing-kong" unicode="&#58934;" d="M748.4 248.70000000000005l46-281.4c3.2-19.8-17.7-34.6-35.4-24.9L521.2 73.70000000000005c-7.3 4-16.1 4-23.2 0L260.2-57.60000000000002c-17.5-9.7-38.6 5.1-35.4 24.9l46 281.4c1.2 7.6-1.2 15.3-6.5 20.6L69.4 468.8c-13.7 14-5.8 37.6 13.6 40.6l267.3 40.8c7.9 1.2 14.8 6.3 18.1 13.6L487.8 817.9c8.7 18.4 34.9 18.4 43.5 0l119.4-254.2c3.4-7.3 10.2-12.4 18.1-13.6l267.3-40.8c19.3-3 27.2-26.5 13.6-40.6L754.8 269.4c-5.3-5.5-7.6-13.1-6.4-20.7zM597.3 473.5l-87.8 220.8-85.6-220.8-231.2-24.1 168.4-167.8-50.6-227.4 199 114.8 191.4-110.2-43.8 216.9 165.5 177.5-225.3 20.3z m0 0"  horiz-adv-x="1024" />

    
    <glyph glyph-name="liujiaoxing-shixin" unicode="&#58935;" d="M754.6 247.20000000000005l46.1-282.3c3.2-19.9-17.8-34.7-35.5-25L526.7 71.60000000000002c-7.3 4-16.1 4-23.3 0L264.9-60.10000000000002c-17.6-9.7-38.7 5.1-35.5 25l46.1 282.3c1.2 7.6-1.2 15.3-6.5 20.7L73.5 468c-13.7 14-5.8 37.7 13.6 40.7l268.1 40.9c7.9 1.2 14.8 6.3 18.2 13.6l119.8 255c8.7 18.5 35 18.5 43.6 0l119.8-255c3.4-7.3 10.2-12.4 18.2-13.6l268.1-40.9c19.4-3 27.3-26.6 13.6-40.7L761.1 268c-5.3-5.6-7.7-13.2-6.5-20.8z"  horiz-adv-x="1024" />

    
    <glyph glyph-name="hulvegaojing1" unicode="&#58941;" d="M512.6 832.1C265.4 832.1 65 631.7 65 384.5S265.5-63 512.6-63s447.6 200.4 447.6 447.6S759.8 832.1 512.6 832.1z m-0.6-833.5c-212.2 0-384.1 172-384.1 384.1s172 384.1 384.1 384.1 384.1-172 384.1-384.1S724.2-1.3999999999999773 512-1.3999999999999773zM309.22 541.932l44.547 44.547 378.369-378.37-44.547-44.547z"  horiz-adv-x="1024" />

    
    <glyph glyph-name="jinji1" unicode="&#58942;" d="M512.6 832.1C265.4 832.1 65 631.7 65 384.5S265.5-63 512.6-63s447.6 200.4 447.6 447.6S759.8 832.1 512.6 832.1z m-0.6-833.5c-212.2 0-384.1 172-384.1 384.1s172 384.1 384.1 384.1 384.1-172 384.1-384.1S724.2-1.4 512-1.4zM605.9 590.5H424.2l-60.6-242.3h130.2l-39.3-211.9 212 302.8H545.3z"  horiz-adv-x="1024" />

    
    <glyph glyph-name="zhengchang1" unicode="&#58943;" d="M512.6 832.1C265.4 832.1 65 631.7 65 384.5S265.5-63 512.6-63s447.6 200.4 447.6 447.6S759.8 832.1 512.6 832.1z m-0.6-833.5c-212.2 0-384.1 172-384.1 384.1s172 384.1 384.1 384.1 384.1-172 384.1-384.1S724.2-1.4 512-1.4zM681.3 512.2L472.7 303.6 328.3 448 283 402.8l144.5-144.4h-0.1l45.3-45.3h0.1l45.2 45.2v0.1l208.6 208.5z"  horiz-adv-x="1024" />

    
    <glyph glyph-name="jinggao1" unicode="&#58944;" d="M512.6 832.1C265.4 832.1 65 631.7 65 384.5S265.5-63 512.6-63s447.6 200.4 447.6 447.6S759.8 832.1 512.6 832.1z m-0.6-833.5c-212.2 0-384.1 172-384.1 384.1s172 384.1 384.1 384.1 384.1-172 384.1-384.1S724.2-1.4 512-1.4zM556.1 306l20 319.5H453L474 306zM513 195.6m-63.7 0a63.7 63.7 0 1 1 127.4 0 63.7 63.7 0 1 1-127.4 0Z"  horiz-adv-x="1024" />

    
    <glyph glyph-name="xiugai" unicode="&#58945;" d="M404.5 531.6H552c19.2 0 34.6 15.5 34.6 34.6 0 19.2-15.5 34.6-34.6 34.6H404.5c-19.2 0-34.6-15.5-34.6-34.6-0.1-19.1 15.8-34.6 34.6-34.6zM586.7 398c0 19.2-15.5 34.6-34.6 34.6H404.5c-19.2 0-34.6-15.5-34.6-34.6 0-19.2 15.5-34.6 34.6-34.6H552c19.2-0.1 34.7 15.4 34.7 34.6zM300.5 600.1c-18.7 0-34.2-15.1-34.2-34.2 0-18.7 15.1-34.2 34.2-34.2 18.8 0 34.2 15.1 34.2 34.2 0.1 19.1-15.4 34.2-34.2 34.2z m0-167.9c-18.7 0-34.2-15.1-34.2-34.2 0-18.7 15.1-34.2 34.2-34.2 18.8 0 34.2 15.1 34.2 34.2 0.1 18.7-15.4 34.2-34.2 34.2z m648.1-93.7L813.3 473.8c-13.9 13.9-34.6 13.9-48.5 0l-40.3-40.3V713.8c0 30.6-24.9 55.4-55.4 55.4h-470c-30.6 0-55.4-25.3-55.4-55.4v-467.5c0-30.6 24.9-55.4 55.4-55.4h281.2l-6.9-6.5c-3.7-5.3-6.9-10.6-8.6-17.1l-34.6-170c-6.5-33.4 17.1-46.9 39.9-41.6l170 34.6c6.9 0 12.2 3.7 17.1 8.6l291 291.4c7.3 6.2 19.9 26.2 0.4 48.2z m-738.1-81.1v445H658V367L547.5 257h-337v0.4z m405.1-201.8l-109.2-22.8L528.8 142l258 258.4 88.4-86.8-259.6-258z m0 0"  horiz-adv-x="1024" />

    
    <glyph glyph-name="shanchujiance" unicode="&#58948;" d="M513 690zM902.5 409.8c-5.3 10.8-13.7 24.9-25 42.4-11.3 17.4-24.7 36.7-40.1 57.8-15.4 21.1-34.5 42.2-57.1 63.3-22.7 21.1-46.9 40.4-72.6 57.8-25.7 17.4-55.6 31.6-89.6 42.5C584.1 684.5 549 690 513 690c-28.1 0-56.1-3.5-83.3-10.4-27.3-7-51.8-15.9-73.6-26.9-13.7-6.9-27.3-14.8-40.6-23.6l-94.2 94.2-44.1-44.3 88.1-88.1c-9.8-8.4-18.8-16.7-27-25-15.6-15.9-30.3-32.5-44.1-50-14.2-17.9-25.7-33.5-34.4-46.6-8.6-13.1-16.8-26.4-24.6-40-7.7-13.6-12.6-22.5-14.6-26.9-2.1-4.4-3.7-7.9-4.9-10.4l7.8-16.2c5.3-11 13.6-25.2 24.9-42.5 11.3-17.3 24.7-36.5 40.1-57.5 15.4-21.1 34.5-42.1 57.2-63 22.7-21 46.9-40.2 72.6-57.4 25.7-17.4 55.5-31.5 89.6-42.4C442 102.1 477 96.7 513 96.7c28.1 0 56.1 3.5 83.3 10.4 27.2 6.9 51.8 15.9 73.6 26.8 11.3 5.7 22.5 12 33.6 18.9l109.4-109.4 44.2 44.2L754.5 190c12.2 10.1 23.3 20.1 33.1 30.1 15.5 15.8 30.3 32.4 44.1 49.7 14.2 17.7 25.7 33.2 34.4 46.3 8.6 13 16.9 26.3 24.6 39.9 7.7 13.4 12.5 22.4 14.6 26.8 2.1 4.4 3.7 7.9 4.9 10.4l-7.7 16.6zM647.1 196.7c-18.7-10-39.7-18.1-62.9-24.5-23.2-6.4-47.1-9.6-71.1-9.5-24 0-47.9 3.1-71.1 9.4-23.3 6.3-44.3 14.4-62.9 24.3-18.7 9.9-37 22-54.9 36-17.8 14.1-33.3 27.9-46.3 41.6-13.4 14-26 28.7-37.9 44-12.2 15.7-22 29.2-29.2 40.4-7.1 11-13.9 22.2-20.4 33.6 6.5 11.5 13.3 22.9 20.4 34 7.2 11.3 17 25 29.2 40.8 11.9 15.4 24.5 30.3 37.9 44.5 10.1 10.7 21.6 21.5 34.6 32.5l85.2-85.2c-11.4-19.4-17-41.2-17-65.3 0-36.4 12.9-67.5 38.8-93.2 25.9-25.8 57.1-38.6 93.6-38.6 24 0 45.7 5.6 65.1 16.7l77-77c-2.7-1.6-5.4-3.1-8.1-4.5zM575 369.6l-85.5 85.5c7.3 2.7 15.1 4.1 23.6 4.1 18.3 0 33.9-6.4 46.8-19.3 12.9-12.9 19.4-28.4 19.4-46.6-0.1-8.4-1.5-16.3-4.3-23.7z m-47.7-40.7c-4.6-1-9.4-1.5-14.3-1.5-18.3 0-33.9 6.4-46.8 19.3-13 12.9-19.4 28.4-19.4 46.6 0 5.1 0.5 9.9 1.5 14.6l79-79z m288.1 30.8c-7.3-11.4-17-24.9-29.2-40.7-11.9-15.4-24.5-30.2-37.9-44.3-11.7-12.3-25.3-24.8-40.9-37.5l-83.5 83.5c14.4 21.2 21.6 45.4 21.6 72.6 0 36.4-12.9 67.5-38.8 93.2-25.9 25.8-57.1 38.6-93.6 38.6-27.1 0-51.2-7.1-72.4-21.2L363.6 581c5.1 3.1 10.3 6.1 15.4 8.8 18.7 10 39.7 18.3 62.9 24.6 23.3 6.4 47 9.5 71.1 9.5v0.1c24 0 48-3.2 71.1-9.5 23.3-6.3 44.3-14.5 62.9-24.5 18.7-10 37-22 54.9-36.2 17.8-14.1 33.3-28.1 46.3-41.9 13.3-14.1 26-28.9 37.9-44.3 12.2-15.8 22-29.3 29.2-40.7 7.1-11.1 13.9-22.3 20.4-33.7-6.4-11.2-13.3-22.4-20.3-33.5z"  horiz-adv-x="1024" />

    
    <glyph glyph-name="qiyong" unicode="&#58949;" d="M512.6 832.1C265.4 832.1 65 631.7 65 384.5S265.5-63 512.6-63s447.6 200.4 447.6 447.6S759.8 832.1 512.6 832.1z m-0.6-833.5c-212.2 0-384.1 172-384.1 384.1s172 384.1 384.1 384.1 384.1-172 384.1-384.1S724.2-1.4 512-1.4zM683.5 405.2l-258.1 149c-20 11.5-45-2.9-45-26v-298c0-23.1 25-37.5 45-26l258.1 149c20 11.5 20 40.4 0 52z m-104.4-39l-112-64.6c-10.7-6.2-24 1.5-24 13.9V444.7c0 12.3 13.3 20 24 13.9l112-64.6c10.6-6.3 10.6-21.6 0-27.8z"  horiz-adv-x="1024" />

    
    <glyph glyph-name="jinyong1" unicode="&#58950;" d="M512.6 832.1C265.4 832.1 65 631.7 65 384.5S265.5-63 512.6-63s447.6 200.4 447.6 447.6S759.8 832.1 512.6 832.1z m-0.6-833.5c-212.2 0-384.1 172-384.1 384.1s172 384.1 384.1 384.1 384.1-172 384.1-384.1S724.2-1.4 512-1.4zM671.9 541.1l-4.7 4.7c-11.3 11.3-29.6 11.3-40.9 0l-115-115-115 115c-11.3 11.3-29.6 11.3-40.9 0l-4.7-4.7c-11.3-11.3-11.3-29.6 0-40.9l115-115-115-115c-11.3-11.3-11.3-29.6 0-40.9l4.7-4.7c11.3-11.3 29.6-11.3 40.9 0l115 115 115-115c11.3-11.3 29.6-11.3 40.9 0l4.7 4.7c11.3 11.3 11.3 29.6 0 40.9l-115 115 115 115c11.3 11.3 11.3 29.6 0 40.9z"  horiz-adv-x="1024" />

    
    <glyph glyph-name="chunshanchu" unicode="&#58951;" d="M739.5 119.5c0-27.5-22.4-49.9-49.9-49.9H329.9c-27.5 0-49.9 22.4-49.9 49.9v530h459.5v-530zM379.8 739c0 5.8 4.5 10.2 10.2 10.2h240c5.8 0 10.2-4.5 10.2-10.2v-30H379.8v30z m509.4-30H699.8v30c0 38.4-31.4 69.8-69.8 69.8H390c-38.4 0-69.8-31.4-69.8-69.8v-30h-190c-16.6 0-30.1-13.4-30.1-30.1 0-16.6 13.4-30.1 30.1-30.1h89.6v-529.3c0-60.8 49.3-110.1 110.1-110.1h359.7c60.8 0 110.1 49.3 110.1 110.1v530h89.6c16.6 0 30.1 13.4 30.1 30.1-0.1 16.6-13.5 29.4-30.2 29.4zM509.7 159.8c16.6 0 30.1 13.4 30.1 30.1v320c0 16.6-13.4 30.1-30.1 30.1-16.6 0-30.1-13.4-30.1-30.1v-320c0-16.6 13.5-30.1 30.1-30.1m-140.1 0c16.6 0 30.1 13.4 30.1 30.1v320c0 16.6-13.4 30.1-30.1 30.1-16.6 0-30.1-13.4-30.1-30.1v-320c0.6-16.6 14.1-30.1 30.1-30.1m280.3 0c16.6 0 30.1 13.4 30.1 30.1v320c0 16.6-13.4 30.1-30.1 30.1-16.6 0-30.1-13.4-30.1-30.1v-320c0-16.6 13.4-30.1 30.1-30.1"  horiz-adv-x="1024" />

    
    <glyph glyph-name="zhuangtai-zhengchang" unicode="&#58952;" d="M512.6 832.1C265.4 832.1 65 631.7 65 384.5S265.5-63 512.6-63s447.6 200.4 447.6 447.6S759.8 832.1 512.6 832.1z m235.5-369.9L516.6 230.7l-0.4-0.4-0.4-0.4c-16.6-16.6-43.7-16.6-60.2 0l-152 151.8c-16.6 16.6-16.6 43.7 0 60.2 16.6 16.6 43.7 16.6 60.2 0l121.8-121.8 202.3 202.3c16.6 16.6 43.7 16.6 60.2 0 16.6-16.5 16.6-43.6 0-60.2z"  horiz-adv-x="1024" />

    
    <glyph glyph-name="zhuangtai-jinggao" unicode="&#58953;" d="M512.6 832.1C265.4 832.1 65 631.7 65 384.5S265.5-63 512.6-63s447.6 200.4 447.6 447.6S759.8 832.1 512.6 832.1z m-45-214.9c0 24.9 20.4 45.4 45.4 45.4 24.9 0 45.4-20.4 45.4-45.4v-272.8c0-24.9-20.4-45.4-45.4-45.4-24.9 0-45.4 20.4-45.4 45.4V617.2zM513 107.29999999999995c-36.7 0-66.4 29.7-66.4 66.4s29.7 66.4 66.4 66.4 66.4-29.7 66.4-66.4-29.7-66.4-66.4-66.4z"  horiz-adv-x="1024" />

    
    <glyph glyph-name="zhuangtai-jinji" unicode="&#58954;" d="M512.6 832.1C265.4 832.1 65 631.7 65 384.5S265.5-63 512.6-63s447.6 200.4 447.6 447.6S759.8 832.1 512.6 832.1z m-58.3-713.2l40.4 217.7H361l62.2 248.8h186.6l-62.2-155.5H672l-217.7-311z"  horiz-adv-x="1024" />

    
    <glyph glyph-name="zhuangtai-zantingjiance" unicode="&#58955;" d="M512.6 832.1C265.4 832.1 65 631.7 65 384.5S265.5-63 512.6-63s447.6 200.4 447.6 447.6S759.8 832.1 512.6 832.1z m-56.5-586c0-16.5-13.5-30-30-30h-31.6c-16.5 0-30 13.5-30 30V511.6c0 16.5 13.5 30 30 30h31.6c16.5 0 30-13.5 30-30v-265.5z m196.3 0c0-16.5-13.5-30-30-30h-31.6c-16.5 0-30 13.5-30 30V511.6c0 16.5 13.5 30 30 30h31.6c16.5 0 30-13.5 30-30v-265.5z"  horiz-adv-x="1024" />

    
    <glyph glyph-name="zhuangtai-jinzhi" unicode="&#58958;" d="M512.6 832.1C265.4 832.1 65 631.7 65 384.5S265.5-63 512.6-63s447.6 200.4 447.6 447.6S759.8 832.1 512.6 832.1z m164.8-549c17.6-17.6 17.6-46.5 0-64.1-17.6-17.6-46.5-17.6-64.1 0L511.9 320.3 411.7 220.1c-17.6-17.6-46.5-17.6-64.1 0-17.6 17.6-17.6 46.5 0 64.1l100.2 100.2-101.4 101.4c-17.6 17.6-17.6 46.5 0 64.1 17.6 17.6 46.5 17.6 64.1 0l101.3-101.3L614.3 551c17.6 17.6 46.5 17.6 64.1 0 17.6-17.6 17.6-46.5 0-64.1L576 384.5l101.4-101.4z"  horiz-adv-x="1024" />

    
    <glyph glyph-name="zhuangtai-hulve" unicode="&#58959;" d="M512.6 832.1C265.4 832.1 65 631.7 65 384.5S265.5-63 512.6-63s447.6 200.4 447.6 447.6S759.8 832.1 512.6 832.1z m228-675.7c-17.6-17.6-46.5-17.6-64.1 0l-387 387c-17.6 17.6-17.6 46.5 0 64.1 17.6 17.6 46.5 17.6 64.1 0l386.9-386.9c17.7-17.7 17.7-46.5 0.1-64.2z"  horiz-adv-x="1024" />

    
    <glyph glyph-name="shanchujiance1" unicode="&#58960;" d="M875 366.5c14.4 19.1 13.9 45.7-1.2 64.2-52.2 64-204.9 193.4-375.9 193.4-47.3 0-92.4-9.9-134-25.6L261.4 701.1c-18.4 18.4-48.3 18.4-66.7 0-18.4-18.4-18.4-48.3 0-66.7l80.4-80.4c-66.7-41.8-116.8-93-140.8-125.5-13.1-17.6-13.6-41.5-1.3-59.6 44.1-64.8 183.4-201.7 365-201.7 48.9 0 95.4 9.9 138.2 25.6l125.1-125.1c18.4-18.4 48.3-18.4 66.7 0 18.4 18.4 18.4 48.3 0 66.7l-102 102c70.2 42.7 123 95.6 149 130.1zM501 225.6c-94.7 0-171.4 76.1-171.4 170.1 0 29.9 7.8 57.9 21.4 82.3l44.1-44.1c-4.4-11.9-6.7-24.7-6.7-38.1 0.1-29.8 12-58.3 33.1-79.2 21.1-21 49.7-32.7 79.5-32.6 13 0 25.7 2.1 37.7 6.4l44.1-44.1c-24.3-13.3-52.1-20.7-81.8-20.7z m105.3 130.6c4.8 12.5 7.3 25.9 7.4 39.5 0 61.7-50.4 111.8-112.6 111.8-13.8 0-27-2.5-39.1-6.9l-44 43.9c24.6 13.5 52.9 21.3 83 21.3 94.7 0 171.4-76.1 171.4-170.1 0-30.3-8-58.8-22.1-83.5l-44 44z"  horiz-adv-x="1024" />

    
    <glyph glyph-name="zantingjiance" unicode="&#58961;" d="M512.6 832.1C265.4 832.1 65 631.7 65 384.5S265.5-63 512.6-63s447.6 200.4 447.6 447.6S759.8 832.1 512.6 832.1z m0.4-834.9c-212.9 0-385.4 172.6-385.4 385.4S300.2 768 513 768s385.4-172.6 385.4-385.4S725.9-2.7999999999999545 513-2.7999999999999545zM417 541.3c-16.8 0-30.6-13.8-30.6-30.6v-258.6c0-16.8 13.8-30.6 30.6-30.6s30.6 13.8 30.6 30.6V510.7c0 16.8-13.8 30.6-30.6 30.6zM605.6 541.3c-16.8 0-30.6-13.8-30.6-30.6v-258.6c0-16.8 13.8-30.6 30.6-30.6s30.6 13.8 30.6 30.6V510.7c-0.1 16.8-13.8 30.6-30.6 30.6z"  horiz-adv-x="1024" />

    
    <glyph glyph-name="yonghushouquan" unicode="&#58962;" d="M637.5 460.4c40.8 34.5 65.9 87.9 65.9 144.5 0 103.6-84.8 188.4-188.4 188.4-103.6 0-188.4-84.8-188.4-188.4S411.4 416.5 515 416.5c188.4 0 329.7-128.8 345.4-314H169.6c9.4 138.2 81.6 241.8 197.8 285.8 15.7 6.3 25.1 25.1 18.8 40.8-6.3 15.7-25.1 25.1-40.8 18.8C194.7 388.2 106.8 253.10000000000002 106.8 71c0-18.8 12.6-31.4 31.4-31.4h753.7c18.8 0 31.4 12.6 31.4 31.4 0 188.4-116.2 342.3-285.8 389.4z m-248 144.5c0 69.1 56.5 125.6 125.6 125.6S640.7 674 640.7 604.9s-56.5-125.6-125.6-125.6c-69.1-0.1-125.6 56.5-125.6 125.6z m0 0M515.1 133.79999999999995c9.4 0 15.7 3.1 22 9.4l62.8 62.8c6.3 6.3 9.4 18.8 9.4 28.3l-31.4 125.6c-3.1 12.6-15.7 25.1-31.4 25.1h-62.8c-15.7 0-28.3-9.4-31.4-25.1l-31.4-125.6c-3.1-9.4 0-22 9.4-28.3l62.8-62.8c6.3-6.3 12.5-9.4 22-9.4z m-6.3 188.4h12.6l22-84.8-28.3-28.3-28.3 28.3 22 84.8z m0 0"  horiz-adv-x="1024" />

    
    <glyph glyph-name="zhongzhimima" unicode="&#58963;" d="M607.3 518.3c0 41.7-29.9 82.8-71.7 82.8h-53.2c-41.7 0-77.8-41.1-77.8-82.8V475c-34.4-0.7-70.8-30.7-70.8-67.6v-145.2c0-37.3 36.8-63.5 74.1-63.5h204.5c37.3 0 65.6 26.2 65.6 63.5V407.4c0 37.3-28.2 75.2-65.6 75.2h-5.2v35.7z m-143.5 0c0 8.8 9.7 23.5 18.5 23.5h53.2c8.8 0 12.4-14.7 12.4-23.5v-35.8h-84.1v35.8z m154-252.1c0-4.6-3.8-8.4-8.4-8.4h-208c-4.6 0-8.4 3.7-8.4 8.4V414.9c0 2.2 0.9 4.3 2.5 5.9 1.6 1.6 3.7 2.5 5.9 2.5h208c4.6 0 8.4-3.7 8.4-8.4v-148.7z m0 0M505.9 300.9c16.4 0 29.6 13.3 29.6 29.7v34.5c0 16.4-13.2 29.7-29.6 29.7-16.4 0-29.6-13.3-29.6-29.7v-34.5c0-16.4 13.2-29.7 29.6-29.7z m0 0M869.3 387.9c0-201.7-161.9-363.6-360.8-363.6S147.7 184.5 147.7 383.4c0 198.9 161.9 360.2 360.8 360.2 132.4 0 253.2-72.8 316.2-187.4h-2.1c-16.6 1.2-30.4-11.6-31.4-27.9-1-16.4 11.5-30.4 27.9-31.4l73.7-4.4c0.6 0 1.2-0.1 1.8-0.1 7.7 0 15.1 3 20.7 8.4 6 5.8 9.2 13.8 9 22.1l-2.2 77.3c-0.5 16.4-14.4 29.4-30.5 28.8-13.5-0.4-24.5-9.8-27.8-22.3C787.4 727.4 653.9 802.6 508.5 802.6c-231.6 0-420.1-188.3-420.1-420S276.8-35 508.5-35c231.7 0 420.1 184.8 420.1 422.9h-59.3z m0 0"  horiz-adv-x="1024" />

    
    <glyph glyph-name="shujuquanxian" unicode="&#58964;" d="M342.1 326.9c18 0 32.8 14.7 32.8 32.8v65.5c0 18-14.7 32.8-32.8 32.8-18 0-32.8-14.7-32.8-32.8v-65.5c0-18.1 14.7-32.8 32.8-32.8z m163.8 0c18 0 32.8 14.7 32.8 32.8V556.2c0 18-14.7 32.8-32.8 32.8-18 0-32.8-14.7-32.8-32.8v-196.6c0-18 14.8-32.7 32.8-32.7z m163.9 0c18 0 32.8 14.7 32.8 32.8v131c0 18-14.7 32.8-32.8 32.8-18 0-32.8-14.7-32.8-32.8v-131.1c0-18 14.7-32.7 32.8-32.7z m16.3-49.2H325.7c-18 0-32.8-14.7-32.8-32.8 0-18 14.7-32.8 32.8-32.8h360.4c18 0 32.8 14.7 32.8 32.8 0 18.1-14.7 32.8-32.8 32.8z m0 0M777.9 711.9c-118 0-158.9 27.9-191.7 50.8-21.3 14.7-44.2 31.1-80.3 31.1-36 0-59-16.4-80.3-31.1-32.8-22.9-73.7-50.8-191.7-50.8-54.1 0-98.3-44.2-98.3-98.3V335c0-252.3 319.5-360.4 370.3-360.4 50.8 0 370.3 108.1 370.3 360.4V613.6c0 54-44.2 98.3-98.3 98.3zM810.7 335c0-206.4-278.5-293.3-304.7-294.9-27.9 1.6-304.7 88.5-304.7 294.9V613.6c0 18 14.7 32.8 32.8 32.8 137.6 0 193.3 37.7 229.4 62.3 18 13.1 27.9 19.7 42.6 19.7 14.7 0 24.6-6.6 42.6-19.7 36-24.6 90.1-62.3 229.4-62.3 18 0 32.8-14.7 32.8-32.8V335z m0 0"  horiz-adv-x="1024" />

    
    <glyph glyph-name="xiugaiyuzhi" unicode="&#58965;" d="M462.1 391.5c0-22.5 18.3-40.8 40.8-40.8 22.5 0 40.8 18.3 40.8 40.8 0 14.6-7.8 28-20.4 35.3-12.6 7.3-28.2 7.3-40.8 0-12.6-7.2-20.4-20.7-20.4-35.3z m0 0M865.7 590.7C794 720.9 658.2 802.8 509.6 805.5c-8.2 0.1-16.1-3-22-8.8-5.9-5.8-9.1-13.6-9.1-21.8V676c0-16.9 13.7-30.6 30.6-30.6 16.9 0 30.6 13.7 30.6 30.6v66.4c145.1-15.2 265.9-118.2 303.9-259.1 37.9-140.9-14.8-290.6-132.7-376.6-117.9-86-276.6-90.5-399.2-11.4-122.6 79.1-183.8 225.6-154 368.5 3.5 16.5-7.1 32.7-23.6 36.2s-32.7-7.1-36.2-23.6C60.2 296.79999999999995 145.2 114 306.7 27.100000000000023c161.5-86.9 360.9-57.2 490 73 129.2 130.2 157.3 329.8 69 490.6z m0 0M324.1 326.70000000000005c23-59.3 73-104.1 134.6-120.5 16.2-4.3 32.8-6.5 49.5-6.5 41.8-0.1 82.3 14.3 114.6 40.7 5.3 4.3 10.3 8.9 15.2 13.7l0.1 0.1c4.8 4.8 9.3 9.8 13.6 15.1 37.4 46 50.1 107.2 34.3 164.2C669.6 494.9 624.8 545 565.5 568l-328 126.2c-11.3 4.4-24.1 1.7-32.7-6.9-8.6-8.6-11.3-21.4-6.9-32.7l126.2-327.9z m219.4 184.2c41.1-16 72.1-50.6 83.4-93.3 10.7-38.1 2.3-79.1-22.6-109.9-3-3.6-6.1-7.1-9.4-10.5-3.3-3.3-6.9-6.5-10.5-9.5-30.8-24.9-71.8-33.3-109.9-22.6-42.6 11.3-77.2 42.3-93.2 83.4L279.7 612.4l263.8-101.5z m0 0"  horiz-adv-x="1024" />

    
    <glyph glyph-name="shezhi" unicode="&#58966;" d="M654.4-27.600000000000023c-21.9 0-43.6 9.4-58.8 27-37.7 43.3-99.9 55.8-151.4 30.2-13.5-6.7-25.6-15.6-35.8-26.4-22.2-23.6-57.1-29.9-86.6-15.8-28.6 13.8-55.9 30.6-80.8 50-24.5 19.1-34.8 50.9-25.9 80.7 15.7 53.4-4.9 109.9-51.3 140.8-10.9 7.3-22.7 12.6-35 16.2-30 8.6-51.4 34.2-54.5 65.2-3.3 33-2.8 66.5 1.5 99.4 3.9 30.1 25.3 54.9 54.5 63.1 51.6 14.4 88.5 60.2 91.9 113.6 0.8 13.3-0.4 26.5-3.6 39.2-7.5 29.5 3.4 60.4 28 78.9 21.8 16.5 45.5 31.1 70.1 43.4 4.6 2.3 9.2 4.5 13.8 6.6 28.4 12.9 62.6 6.6 84.8-15.8 38.4-38.6 96.9-48.2 145.7-24.1 13.6 6.7 25.7 15.7 35.9 26.6 21.8 23.2 55.7 30.7 84.5 18.7 29-12.1 56.8-27.3 82.6-45.3 26.6-18.5 37.9-53.2 27.6-84.1-18-53.9 2.5-113.6 49.9-145.1 13.9-9.3 29.3-15.6 45.6-18.8 34-6.6 59.2-33.7 62.8-67.3 3.1-29.3 3.1-59.1 0.2-88.5-3.3-33.6-28.8-60.8-61.8-66.4-58.1-9.8-101.2-57.6-105-116.6-1-16.7 1.1-33.2 6.5-48.8 11.2-32.4-0.5-68.4-28.2-87.5-17-11.7-35.1-22.3-53.8-31.6l-19.3-9.6c-11-5.3-22.6-7.9-34.1-7.9z m-154 130.3c52.6 0 104.3-22.3 140.5-64.1 5.3-6.1 13.9-8 20.8-4.6l19.2 9.6c16.2 8 31.8 17.2 46.5 27.3 5.8 3.9 7.9 11.4 5.4 18.7-8 23.2-11.2 47.4-9.7 72.1 5.5 86.8 69.1 157.5 154.8 171.9 6.4 1.1 11.5 6.7 12.2 13.3 2.5 25.4 2.5 51.1-0.2 76.4-0.7 7.2-6.6 13.2-14.6 14.7-24.1 4.6-46.7 13.9-67.2 27.7-69.9 46.5-100.1 134.4-73.5 214 2 6-0.1 12.6-5 16-22.2 15.5-46.2 28.6-71.3 39.1-6 2.5-13 0.7-17.8-4.4-15.2-16.1-32.9-29.3-52.9-39.2-71.9-35.7-158.2-21.5-214.8 35.5-4.6 4.7-11.7 6.1-17.6 3.4-4-1.9-8-3.7-12-5.7-21.4-10.6-41.7-23.2-60.6-37.5-5.2-3.9-7.6-10.4-6-16.4 4.8-18.8 6.6-38.3 5.4-57.8-5.1-79.2-59.6-146.5-135.6-167.8-6-1.7-10.4-6.8-11.2-13.1-3.6-28.4-4.1-57.4-1.3-85.8 0.6-6.4 5.1-11.7 11.3-13.6 18.3-5.2 35.7-13.3 51.7-23.9 68.4-45.5 98.7-128.9 75.6-207.5-1.8-6.1 0.3-12.6 5.4-16.6 21.6-16.8 45-31.3 69.7-43.2 6-2.8 13-1.7 17.3 2.9 15.1 16 32.8 29.1 52.7 39 26.3 13.3 54.7 19.6 82.8 19.6zM512.3 218c-17.7 0-35.5 2.9-53.2 8.8-72.2 24.3-117 92.1-113.9 172.8 1 26.1 9.5 51.3 24.4 72.7 46.4 66.1 123 93.1 195.2 68.8 72.2-24.4 117-92.1 114-172.8-1-26.1-9.5-51.3-24.5-72.7-35-50-87.4-77.6-142-77.6z m-0.6 271.9c-31.2 0-66.2-13.7-93.1-52-8.4-12-13.1-26-13.7-40.5-2.4-65 36.3-101.4 73.2-113.8 37-12.5 89.8-6.8 127.2 46.4 8.4 12 13.1 26 13.7 40.5 2.4 65-36.3 101.4-73.2 113.8-10.4 3.6-22 5.6-34.1 5.6z m0 0"  horiz-adv-x="1024" />

    
    <glyph glyph-name="lixianshebei" unicode="&#58967;" d="M858.5 800H165.9c-52 0-95.2-42.3-95.2-94.7v-440.6c0-52 43.2-94.7 95.2-94.7h189v-94.3h-47.6c-17.2 0-31.3-13.7-31.3-31.3 0-17.2 14.1-31.3 31.3-31.3h409.3c17.2 0 31.3 13.7 31.3 31.3 0 17.2-14.1 31.3-31.3 31.3h-78.4V170h220.3c52 0 93.4 42.7 93.4 94.7V705.2c0 52.5-41.4 94.8-93.4 94.8zM574.3 75.70000000000005H417.5V170h156.8v-94.3z m315 346.3v-157.3c0-17.2-13.2-32.2-30.8-32.2H165.9c-17.2 0-31.7 15-31.7 32.2V422h0.4V705.2c0 17.6 14.1 32.2 31.3 32.2h692.5c17.2 0 30.8-14.5 30.8-32.2V422zM627.1 414.7l-67.8 67.8 72.8 72.8c12.4 12.4 12.4 32.8 0 45.3-12.4 12.4-32.8 12.4-45.3 0L514 527.7l-70.8 70.8c-12.4 12.4-32.8 12.4-45.3 0-12.4-12.4-12.4-32.8 0-45.3l70.8-70.8-65.7-65.7c-12.4-12.4-12.4-32.8 0-45.3 12.4-12.4 32.8-12.4 45.3 0l65.8 65.8 67.8-67.8c12.4-12.4 32.8-12.4 45.3 0 12.3 12.4 12.3 32.8-0.1 45.3z"  horiz-adv-x="1024" />

    
    <glyph glyph-name="gongnengquanxian" unicode="&#58968;" d="M422.7 275.7H115.1c-18.5 0-30.8-12.3-30.8-30.8v-307.7c0-18.5 12.3-30.8 30.8-30.8h307.7c18.5 0 30.8 12.3 30.8 30.8V245c-0.1 18.4-12.4 30.7-30.9 30.7zM392-32H145.8V214.2H392V-32zM915 275.7H607.3c-18.5 0-30.8-12.3-30.8-30.8v-307.7c0-18.5 12.3-30.8 30.8-30.8H915c18.5 0 30.8 12.3 30.8 30.8V245c0 18.4-12.3 30.7-30.8 30.7zM884.3-32H638.1V214.2h246.1V-32zM422.7 768H115.1c-18.5 0-30.8-12.3-30.8-30.8v-307.7c0-18.5 12.3-30.8 30.8-30.8h307.7c18.5 0 30.8 12.3 30.8 30.8V737.2c-0.1 18.5-12.4 30.8-30.9 30.8zM392 460.3H145.8V706.5H392v-246.2zM913.9 736H703.7v0.4c0 17.4-14.2 31.6-31.6 31.6-17.4 0-31.6-14.2-31.6-31.6v-0.4h-32.1c-17.5 0-31.9-14.4-31.9-31.9s14.4-31.9 31.9-31.9h32.1v-0.6c0-17.4 14.2-31.6 31.6-31.6 17.4 0 31.6 14.2 31.6 31.6v0.6h210.2c17.5 0 31.9 14.4 31.9 31.9 0 17.6-14.4 31.9-31.9 31.9zM608.4 548.3h224c0.9-16.6 14.7-30 31.6-30 16.8 0 30.7 13.3 31.6 30h18.3c17.5 0 31.9 14.4 31.9 31.9s-14.4 31.9-31.9 31.9h-18.2v2.6c0 17.4-14.2 31.6-31.6 31.6-17.4 0-31.6-14.2-31.6-31.6v-2.6h-224c-17.5 0-31.9-14.4-31.9-31.9-0.1-17.5 14.2-31.9 31.8-31.9zM608.4 421.7h96.2v-0.5c0-17.4 14.2-31.6 31.6-31.6 17.4 0 31.6 14.2 31.6 31.6v0.5h146c17.5 0 31.9 14.4 31.9 31.9s-14.4 31.9-31.9 31.9h-146v0.5c0 17.4-14.2 31.6-31.6 31.6-17.4 0-31.6-14.2-31.6-31.6v-0.5h-96.2c-17.5 0-31.9-14.4-31.9-31.9 0-17.6 14.3-31.9 31.9-31.9z"  horiz-adv-x="1024" />

    
    <glyph glyph-name="yunhangdingshiqi" unicode="&#58969;" d="M683.7 755c0-16.8-13.5-30.3-30.3-30.3H400.6c-16.8 0-30.3 13.5-30.3 30.3s13.5 30.3 30.3 30.3h253.1c16.4 0 30-13.5 30-30.3zM542.3 279.9c-16.8 0-30.3 13.5-30.3 30.3V489.6c0 16.8 13.5 30.3 30.3 30.3s30.3-13.5 30.3-30.3v-179.4c0.1-16.8-13.5-30.3-30.3-30.3z m0 0M512 310.2c0 16.8 13.5 30.3 30.3 30.3h111.4c16.8 0 30.3-13.5 30.3-30.3s-13.5-30.3-30.3-30.3H542.3c-16.7 0-30.3 13.5-30.3 30.3z m0 0M893.8 330.7C893.8 130 731.2-33 530.5-33c-200.7 0-363.7 163-363.7 363.7s162.6 363.7 363.7 363.7 363.3-163 363.3-363.7zM531.3 633.8c-167.1 0-302.7-135.6-302.7-303.1 0-167.5 135.6-302.7 302.7-302.7S834 163.5 834 330.7c0 167.1-135.6 303.1-302.7 303.1z m0 0"  horiz-adv-x="1024" />

    
    <glyph glyph-name="huanyuandezhihanglishi" unicode="&#58970;" d="M843.3 780.7H318.2c-34 0-61.6-27.6-61.6-61.6v-308h-92.4c-34 0-61.6-27.6-61.6-61.6v-261.8c0-59.5 48.3-107.8 107.8-107.8 5.1-0.3 10.3-0.3 15.4 0h617.6c33.4 0.8 60.1 28.2 60.1 61.6V719.1c-0.1 33.5-26.8 60.8-60.2 61.6z m-679.1-693V349.5h92.4v-261.8c0-25.5-20.7-46.2-46.2-46.2s-46.2 20.7-46.2 46.2z m143.2-46.2c7 14.4 10.7 30.2 10.8 46.2V349.5c0.1 1.7 0.1 3.5 0 5.2V719.1h523.6l1.5-677.6H307.4z m0 0M601.2 551.3H459.9l29.4 29.4c12.8 12.8 12.8 25.6 0 38.4-12.8 12.8-25.6 12.8-38.4 0l-76.8-76.8c-12.8-12.8-12.8-25.6 0-38.4l76.8-76.8c12.8-12.8 25.6-12.8 38.4 0 12.8 12.8 12.8 25.6 0 38.4L457.8 497h143.4c75 0 135.7-60.8 135.7-135.8 0-75-60.8-135.8-135.7-135.8H390c-15 0-27.2-12.2-27.2-27.2 0-14.3 11.1-26.1 25.2-27.1v-0.1h213.1c105 0 190.1 85.1 190.1 190.1 0 105.1-85.1 190.2-190 190.2z"  horiz-adv-x="1024" />

    
    <glyph glyph-name="zhuanyifenzu" unicode="&#58971;" d="M910.6 661.8L742 830.5H442.9c-35 0-63.6-28.6-63.6-63.6V735c0-19.1 12.7-31.8 31.8-31.8s31.8 12.7 31.8 31.8v31.8h254.5v-127.3c0-35 28.6-63.6 63.6-63.6h95.4v-222.7c0-19.1 12.7-31.8 31.8-31.8s31.8 12.7 31.8 31.8V652.3l-9.4 9.5z m-149.5 60.5l82.7-82.7h-82.7v82.7zM592.4 471L423.8 639.6H156.6c-35 0-63.6-28.6-63.6-63.6v-572.7c0-35 28.6-63.6 63.6-63.6h31.8c19.1 0 31.8 12.7 31.8 31.8s-12.7 31.8-31.8 31.8h-31.8V575.9h222.7v-127.3c0-35 28.6-63.6 63.6-63.6h95.4c0-19.1 12.7-31.8 31.8-31.8s31.8 12.7 31.8 31.8v76.4l-9.5 9.6z m-149.5 60.4l82.7-82.7h-82.7v82.7z m0 0M315.7 448.7h-95.4c-19.1 0-31.8 12.7-31.8 31.8s12.7 31.8 31.8 31.8h95.4c19.1 0 31.8-12.7 31.8-31.8s-12.8-31.8-31.8-31.8z m63.6-127.3H220.2c-19.1 0-31.8 12.7-31.8 31.8s12.7 31.8 31.8 31.8h159.1c19.1 0 31.8-12.7 31.8-31.8 0-19-12.7-31.8-31.8-31.8z m0-127.2H220.2c-19.1 0-31.8 12.7-31.8 31.8s12.7 31.8 31.8 31.8h159.1c19.1 0 31.8-12.7 31.8-31.8s-12.7-31.8-31.8-31.8z m477.2-63.7h-63.6c-35 0-63.6-28.6-63.6-63.6h-95.4v63.6c35 0 63.6 28.6 63.6 63.6v63.6c0 35-28.6 63.6-63.6 63.6h-63.6c-35 0-63.6-28.6-63.6-63.6v-63.6c0-35 28.6-63.6 63.6-63.6v-63.6h-95.4c0 35-28.6 63.6-63.6 63.6h-63.6c-35 0-63.6-28.6-63.6-63.6v-63.6c0-35 28.6-63.6 63.6-63.6h63.6c35 0 63.6 28.6 63.6 63.6h254.5c0-35 28.6-63.6 63.6-63.6h63.6c35 0 63.6 28.6 63.6 63.6v63.6c-0.1 35-28.7 63.6-63.7 63.6zM570.2 257.79999999999995h63.6v-63.6h-63.6v63.6zM347.5 3.2999999999999545v63.6h63.6v-63.6h-63.6z m445.4 0v63.6h63.6v-63.6h-63.6z m0 0"  horiz-adv-x="1024" />

    
    <glyph glyph-name="beifenwenjiandeqingliguize" unicode="&#58972;" d="M132.9 700.1c-37.9 0-68.7-30.7-68.7-68.7v-625.2c0-37.9 30.7-68.7 68.7-68.7h584.3c37.9 0 68.7 30.7 68.7 68.7v63.1h76.9c37.9 0 68.7 30.7 68.7 68.7V763.2c0 37.9-30.7 68.7-68.7 68.7H278.5c-37.9 0-68.7-30.7-68.7-68.7v-63.1h-76.9z m653-570.2V631.4c0 37.9-30.7 68.7-68.7 68.7H270.5v71.3h604.3V130h-88.9zM125 6.2000000000000455V639.4h600.3V-2H125v8.2z m0 0M246.7 203.20000000000005c-16.8 0-30.3-13.6-30.3-30.3 0-16.8 13.6-30.3 30.3-30.3h173.1c16.8 0 30.3 13.6 30.3 30.3 0 16.8-13.6 30.3-30.3 30.3H246.7z m0 164.1c-16.8 0-30.3-13.6-30.3-30.3 0-16.8 13.6-30.3 30.3-30.3h331.4c16.8 0 30.3 13.6 30.3 30.3 0 16.8-13.6 30.3-30.3 30.3H246.7z m0 158.1c-16.8 0-30.3-13.6-30.3-30.3 0-16.8 13.6-30.3 30.3-30.3h331.4c16.8 0 30.3 13.6 30.3 30.3 0 16.8-13.6 30.3-30.3 30.3H246.7z m0 0"  horiz-adv-x="1024" />

    
    <glyph glyph-name="zhihanghuanyuan" unicode="&#58973;" d="M865.9 767.5H174.7c-35.4 0-64-28.6-64-64v-691.2c0-35.4 28.6-64 64-64h691.2c35.4 0 64 28.6 64 64V703.5c0 35.3-28.7 64-64 64z m0-755.2H174.7V703.5h691.2v-691.2z m0 0M347.6 439.3c0 17.7 14.3 32 32 32h266.6v-51.5l110.6 83.8-110.6 83.8v-52H379.6c-53 0-96-43-96-96V346h64v93.3z m46.7-258.8h266.6c53 0 96 43 96 96v93.4h-64v-93.4c0-17.7-14.3-32-32-32H394.3V296l-110.6-83.7 110.6-83.8v52z m0 0"  horiz-adv-x="1024" />

    
    <glyph glyph-name="gaojingchuli" unicode="&#59011;" d="M501.2-5.7999999999999545c-24.8 0-45.3 16.4-52.9 38.7h-58.4c8.7-53.7 55.2-95.2 111.3-95.2 56.1 0 102.6 41.5 111.3 95.2h-58.4c-7.6-22.3-28.2-38.7-52.9-38.7zM333 547.2c-22.9-30.5-35-66.8-35-104.9v-159c0-8.8 7.1-15.9 15.9-15.9s15.9 7.1 15.9 15.9v159c0 31.3 9.9 60.9 28.6 85.8 2.5 3.4 3.6 7.6 3.1 11.8-0.6 4.2-2.8 7.9-6.2 10.5-7 5.2-17 3.8-22.3-3.2z m0 0M477.8 81.10000000000002c0 7.5-3 14.7-8.3 20-5.3 5.3-12.5 8.3-20 8.3H198.9c22.3 30.8 45.2 74.1 48.6 124.8 3 44.6 2.4 117.6 2 170.8l-0.3 40.7c0 69.6 29.5 136.1 81.1 182.3 50.1 45 113.9 65.7 180.5 58.6 53.5-5.7 102.1-30.8 140.6-72.2 5.1-5.5 12.2-8.8 19.6-9.1 7.5-0.3 14.8 2.4 20.3 7.6 5.5 5.1 8.8 12.2 9 19.7 0.3 7.5-2.4 14.8-7.6 20.3-36.5 39.3-82.2 67-131.6 81V738c0 42.5-34 77-75.9 77-41.9 0-75.9-34.5-75.9-77v-3.9c-42.6-11.7-82.5-33-116.9-63.9-63.5-56.9-99.9-138.7-99.9-224.4l0.3-41.2c0.4-52.3 1-124-1.9-166.5-5.1-76.2-72.8-134.8-73.5-135.4-9-7.7-12.3-20.2-8.2-31.3 4.1-11.1 14.7-18.5 26.5-18.5h313.7c7.5 0 14.7 3 20 8.3 5.5 5.2 8.4 12.4 8.4 19.9z m7.6 677.2c8.6 0 15.8-6.4 18.2-14.8-12.1 0.8-24.3 0.8-36.4 0 2.4 8.5 9.6 14.8 18.2 14.8z m0 0M680.9 582.4c-144 0-261.9-117.9-261.9-261.9 0-144 117.8-261.9 261.9-261.9 144 0 261.9 117.9 261.9 261.9 0 144-117.9 261.9-261.9 261.9z m0-469.1c-114.3 0-207 92.7-207 207s92.7 207 207 207 207-92.7 207-207-92.7-207-207-207zM767.5 326h-57.4v93.9c0 16.5-13.5 30-30 30s-30-13.5-30-30v-123.4c0-8.3 3.4-15.9 9-21.3 5.5-5.6 13-9.1 21.4-9.1h86.9c16.5 0 30 13.5 30 30 0.1 16.4-13.4 29.9-29.9 29.9z"  horiz-adv-x="1024" />

    
    <glyph glyph-name="zhuanbaoxiu" unicode="&#59012;" d="M242.1 7.7000000000000455c-41.8 0-83.5 16.6-114.2 49.6-58.7 63-55.3 162 7.7 220.7l315.8 294.6c4.8 4.4 9.8 8.6 15 12.4 14 10.1 33.5 7 43.6-7 10.1-14 7-33.5-7-43.6-3.2-2.3-6.2-4.8-9-7.4l-1.5-1.4-314.4-293.3c-37.8-35.2-39.8-94.7-4.6-132.5 35.2-37.8 94.7-39.8 132.5-4.6l315.8 294.6c12.6 11.8 32.4 11.1 44.1-1.5 11.8-12.6 11.1-32.4-1.5-44.1L348.6 49.60000000000002c-30-28-68.3-41.9-106.5-41.9z m0 0M657.2 339c-17 0-30.9 13.6-31.2 30.7-0.3 17.2 13.5 31.5 30.7 31.7 50.3 0.8 95.1 14.7 122.9 38C811 466 831 510.1 832.3 555.6l-24.8-20.2c-23.1-18.8-52.2-27.4-81.9-24.3-29.8 3.1-56.5 17.5-75.2 40.6-18.8 23.1-27.4 52.2-24.3 82 3.1 29.7 17.5 56.5 40.6 75.2l11.5 9.4h-3.4c-47.5 0-82.7-11.2-107.6-34.2-30.4-28.2-50.1-76.6-50.1-123.4 0-17.3-14-31.2-31.2-31.2s-31.2 14-31.2 31.2c0 64.3 26.9 129.2 70.1 169.3 36.5 33.8 86.9 50.9 150 50.9 29.7 0 58.4-5.8 85.6-17.3l51.4-21.7-45.4-32.5-2.4-1.8-58-47.2c-10.1-8.2-16.5-20-17.8-33.2-1.4-13.2 2.4-26 10.7-36.1 8.2-10.1 20-16.5 33.2-17.8 13.2-1.4 26 2.4 36.1 10.7l57.9 47.1c2.1 1.7 4.1 3.6 5.9 5.7l36.9 41.9 16.4-53.4c6.4-20.9 9.6-42.6 9.6-64.6 0-31.2-6.6-63-19-91.9-13.1-30.5-32.5-57.1-56.1-77-52.8-44.4-124.2-52.1-162.1-52.7-0.2-0.1-0.4-0.1-0.5-0.1z m0 0M722.7 8.600000000000023c-29 0-57.9 11.9-78.7 35.3L487.9 219.70000000000005c-11.5 12.9-10.3 32.6 2.6 44.1s32.6 10.3 44.1-2.6l156.1-175.7c7.5-8.5 18-13.5 29.4-14.2 11.4-0.7 22.4 3.1 30.9 10.6s13.5 18 14.2 29.4c0.7 11.4-3.1 22.4-10.6 30.9L593.4 323.5c-11.5 12.9-10.3 32.6 2.6 44.1s32.6 10.3 44.1-2.6l161.1-181.4c38.5-43.4 34.6-109.9-8.8-148.5-20-17.7-44.9-26.5-69.7-26.5zM200 615.4l44.8 43.5 170.8-175.6-44.8-43.5L200 615.4z m0 0M199.5 584.4c-3.4 0-6.8 0.2-10.2 0.6-23.7 2.7-44.9 14.4-59.7 32.9l-27.3 34.2c-2.6 3.3-5.5 6.1-8.4 9.1-8.1 8.2-20.4 20.5-19.8 40.3 0.6 20.8 15.3 38 40.6 60.5 18.9 18.2 44.1 38.7 72.7 36.8 27.2-1.8 43.5-22.2 54.3-35.7l27.3-34.2c30.6-38.4 24.3-94.5-14.1-125.1-16-12.7-35.3-19.4-55.4-19.4z m-57.8 117.3c2.9-3 6.1-6.5 9.4-10.6l27.3-34.2c9.1-11.5 25.9-13.4 37.4-4.2 5.5 4.4 9 10.7 9.8 17.8 0.8 7.1-1.2 14-5.6 19.5l-27.3 34.2c-2.1 2.6-7.1 8.9-10.3 11.8-3.2-1.4-10.9-5.7-24.9-19.2l-0.9-0.9c-6.9-6.2-11.7-10.8-14.9-14.2z m0 0M207.8 162.89999999999998c0-14.1 7.5-27.2 19.8-34.2 12.2-7.1 27.3-7.1 39.5 0s19.8 20.1 19.8 34.2c0 14.1-7.5 27.2-19.8 34.2-12.2 7.1-27.3 7.1-39.5 0-12.3-7-19.8-20.1-19.8-34.2z m0 0"  horiz-adv-x="1024" />

    
    <glyph glyph-name="icon-test1" unicode="&#59013;" d="M489 556.6c8.3 8.3 19.6 16 30.2 13.6 10.7 1.8 20.8-6.5 29.1-13.6l256.8-258c13-13 13-34.4 0-47.4s-34.4-13-47.4 0l-239 245.5-239.6-245.5c-13-13-34.4-13-47.4 0s-13 34.4 0 47.4l257.3 258z m0 0"  horiz-adv-x="1024" />

    
    <glyph glyph-name="icon-test2" unicode="&#59014;" d="M548.4 255.3c-8.3-8.3-19.6-16-30.2-13.6-10.7-1.8-20.8 6.5-29.1 13.6l-256.8 258c-13 13-13 34.4 0 47.4s34.4 13 47.4 0l239-245.5 239.6 245.5c13 13 34.4 13 47.4 0s13-34.4 0-47.4l-257.3-258z m0 0"  horiz-adv-x="1024" />

    
    <glyph glyph-name="icon-test3" unicode="&#59015;" d="M584.9 388.9L822 626c12 12 12 31.7 0 43.6l-1.3 1.3c-12 12-31.7 12-43.7 0L539.9 433.6 302.8 671.1c-12 12-31.7 12-43.6 0l-1.3-1.3c-12.3-12-12.3-31.7 0-43.7L495 388.9 257.8 151.8c-12-12-12-31.7 0-43.6l1.3-1.3c12-12 31.7-12 43.6 0L539.9 344 777 106.8c12-12 31.7-12 43.7 0l1.3 1.3c12 12 12 31.7 0 43.6L584.9 388.9z m0 0"  horiz-adv-x="1024" />

    
    <glyph glyph-name="icon-test4" unicode="&#59017;" d="M497.4 803.8c-226.2 0-409.6-183.4-409.6-409.6 0-226.2 183.4-409.6 409.6-409.6C723.6-15.4 907 168 907 394.2c0 226.2-183.4 409.6-409.6 409.6z m0-750.9c-188.5 0-341.3 152.8-341.3 341.3s152.8 341.3 341.3 341.3 341.3-152.8 341.3-341.3-152.8-341.3-341.3-341.3z m0 546.1c18.9 0 34.1-15.3 34.1-34.1v-341.3c0-12.2-6.5-23.5-17.1-29.6-10.6-6.1-23.6-6.1-34.1 0-10.6 6.1-17.1 17.4-17.1 29.6V564.9c0 9.1 3.6 17.7 10 24.1 6.5 6.4 15.2 10 24.2 10zM326.7 428.4H668c18.9 0 34.1-15.3 34.1-34.1 0-18.9-15.3-34.1-34.1-34.1H326.7c-12.2 0-23.5 6.5-29.6 17.1-6.1 10.6-6.1 23.6 0 34.1 6.2 10.4 17.4 17 29.6 17z m0 0"  horiz-adv-x="1024" />

    
    <glyph glyph-name="daoruduiyingguanxi" unicode="&#59018;" d="M820 319.20000000000005c-17.6 0-31.9-14.3-31.9-31.9v-223.6H149.5v639h223.6c17.6 0 31.9 14.3 31.9 31.9 0 17.6-14.3 32-31.9 32H149.5c-35.2 0-63.9-28.7-63.9-63.9V64c0-35.2 28.7-63.9 63.9-63.9h638.6c35.2 0 63.9 28.7 63.9 63.9V287.70000000000005c0 17.6-14.4 31.5-32 31.5m-469.8-53.7s0-0.4 0.4-0.4c6.1-6.1 13.9-9 22.1-9h255.6c17.6 0 31.9 14.3 31.9 32 0 17.6-14.3 31.9-31.9 31.9H448.5l394.4 394.4c5.3 5.3 9 13.1 9 21.3 0 8.2-3.3 16-9 21.3-5.3 5.3-13.1 9-21.3 9-8.2 0-16-3.3-21.3-9L404.7 362.20000000000005V543.7c0 17.6-14.3 32-31.9 32s-31.9-14.3-31.9-32v-255.6c-0.1-8.6 3.6-16.8 9.3-22.6z m0 0"  horiz-adv-x="1024" />

    
    <glyph glyph-name="daohangshousuo" unicode="&#59019;" d="M105.2 830.9v-128.1h768.7V830.9H105.2z m384.3-384.3h384.3V574.7H489.5v-128.1z m0-256.3h384.3V318.4H489.5v-128.1zM105.2-65.9h768.7V62.2H105.2v-128.1z m0 448.4l256.2-191.6V574.1L105.2 382.5z"  horiz-adv-x="1024" />

    
    <glyph glyph-name="qiyongjiance" unicode="&#59020;" d="M188.2 851.6v-885c0-24.5 26.5-39.8 47.7-27.5l634.4 442.5c21.2 12.2 21.2 42.8 0 55.1L235.9 879.1c-21.2 12.3-47.7-3-47.7-27.5z m121.9-117.7l417.5-297.3c21.2-12.2 21.2-42.8 0-55.1L310.1 84.29999999999995c-21.2-12.2-47.7 3.1-47.7 27.5V706.4c0 24.5 26.5 39.8 47.7 27.5z"  horiz-adv-x="1024" />

    
    <glyph glyph-name="qiyongjiance1" unicode="&#59021;" d="M188.2 851.6v-885c0-24.5 26.5-39.8 47.7-27.5l634.4 442.5c21.2 12.2 21.2 42.8 0 55.1L235.9 879.1c-21.2 12.3-47.7-3-47.7-27.5z m74.2-145.2"  horiz-adv-x="1024" />

    
    <glyph glyph-name="hulvegaojing" unicode="&#59022;" d="M333.2 719.6c55.9 104.3 148.9 104.3 204.8 0l268.1-480.4C862 135 813.6 53 694.4 53H180.5C61.4 53 13 138.70000000000005 68.8 239.20000000000005l264.4 480.4z m145.2-152.7c0 22.3-18.6 41-41 41-22.3 0-41-18.6-41-41v-216c0-22.3 18.6-41 41-41 22.3 0 41 18.6 41 41v216z m0-342.6h-81.9v-85.6h85.6v85.6h-3.7z m0 0"  horiz-adv-x="1024" />

    
    <glyph glyph-name="chakanmorenzhi" unicode="&#59024;" d="M569.5 40.2H211.3c-21 0-41.1 8.3-56 23.2-14.8 14.9-23.2 35-23.2 56V660.9c0 21 8.3 41.1 23.2 56 14.8 14.9 35 23.2 56 23.2h541.5c21 0.1 41.2-8.3 56-23.1 15-15 23.1-34.8 23.1-56l-1.2-358.1v-0.1c0-16.1 13-29.2 29.1-29.2s29.2 13 29.2 29.1l1.2 358.3v0.1c0 75.9-61.5 137.4-137.4 137.4H211.2c-36.5 0-71.4-14.4-97.2-40.2-25.8-25.8-40.2-60.8-40.2-97.2v-541.5C73.7 83 88.2 48 114 22.2c25.8-25.8 60.8-40.3 97.2-40.2h358.2c16.1 0 29.1 13 29.1 29.1 0 16-13 29.1-29 29.1z m0 0M881.7 31.7L770.5 142.9c52.8 74.2 39.9 176.5-29.7 235.3-69.5 58.8-172.6 54.5-236.9-9.9-64.4-64.4-68.7-167.4-9.9-236.9 58.8-69.5 161.1-82.4 235.3-29.7l111.3-111.2c7.3-7.6 18.1-10.6 28.3-7.9 10.2 2.7 18.1 10.6 20.8 20.8s-0.4 20.9-8 28.3zM628 127.6c-64.4 0-116.7 52.2-116.7 116.7 0 64.4 52.2 116.7 116.7 116.7 64.4 0 116.7-52.2 116.7-116.7-0.1-64.5-52.3-116.7-116.7-116.7z m87.4 408c16.1 0 29.2 13.1 29.2 29.2S731.5 594 715.4 594l-466.5 0.2c-16.1 0-29.2-13.1-29.2-29.2s13.1-29.2 29.2-29.2l466.5-0.2zM423.8 360.9c10.4 0 20 5.5 25.2 14.6 5.2 9 5.2 20.1 0 29.1s-14.8 14.6-25.2 14.6H248.9c-10.4 0-20-5.5-25.2-14.6-5.2-9-5.2-20.1 0-29.1s14.8-14.6 25.2-14.6h174.9zM248.9 244.4c-10.4 0-20-5.5-25.2-14.6-5.2-9-5.2-20.1 0-29.1s14.8-14.6 25.2-14.6h116.6c10.7-0.4 20.8 5 26.2 14.2 5.5 9.2 5.5 20.6 0 29.8s-15.5 14.6-26.2 14.2l-116.6 0.1z m0 0"  horiz-adv-x="1024" />

    
    <glyph glyph-name="fanhuishangyiji" unicode="&#59025;" d="M615.5 635.8H317.7v86.5c0 31.5-21.6 43.5-47.7 26.4L110.4 645.2c-12-5.6-19.6-17.6-19.6-30.9 0-13.2 7.7-25.3 19.6-30.9L270 479.9c26.2-17.1 47.7-5 47.7 26.4v72.2h283.4c156.5 0 241.1-70.7 241.1-228.7 0-119.7-46.4-228.7-241.1-228.7H202.3c-19.8 0-35.8-16-35.8-35.8 0-19.8 16-35.8 35.8-35.8H615c156.5 0 283.4 99.2 283.4 257.4v85.8c0.4 158-126.2 243.2-282.9 243.2v-0.1z m0 0"  horiz-adv-x="1024" />

    
    <glyph glyph-name="daoru" unicode="&#59036;" d="M127.8 89.10000000000002V686.4c1.3 5.4 2.2 10.9 4 16.2 5.6 17 14.9 31.5 28.7 43.2 10.9 9.3 23.1 15.9 36.8 19.7 4.2 1.2 8.4 2 12.6 2.9h597.3c5.4-1.3 10.9-2.2 16.2-4 17-5.6 31.5-14.9 43.2-28.7 9.3-10.9 15.9-23.1 19.7-36.8 1.2-4.2 2-8.4 2.9-12.6V89c-1.3-5.4-2.2-10.9-4-16.2-5.6-17-14.9-31.5-28.7-43.2-10.9-9.3-23.1-15.9-36.8-19.7-4.2-1.2-8.4-2-12.6-2.9H209.9c-5.4 1.3-10.9 2.2-16.2 4-17 5.6-31.5 14.9-43.2 28.7-9.3 10.9-15.9 23.1-19.7 36.8-1.2 4.2-2 8.4-3 12.6z m380.7 583.8H288.1c-3.5 0-7-0.3-10.4-0.8-25.6-4-42.7-18.5-51-42.8-2.1-6.2-3.2-13-3.2-19.5-0.2-105.7-0.2-211.5-0.1-317.2 0-10.7 4.7-19 13.5-25.4 6.9-5 14.9-6 22.9-6.1 21.3-0.3 42.6 0.1 63.9-0.3 5.5-0.1 11.2-1.6 16.5-3.3 11-3.5 19.8-10.4 27.1-19.1 8.7-10.3 14-22.2 14.3-35.9 0.4-23.8 0.3-47.5 1-71.3 0.4-15.5 14.5-28.3 29.5-28.3 64.3-0.3 128.6-0.2 192.9 0 9.9 0 17.9 4.8 23.9 12.9 5 6.7 6.4 14.4 6.5 22.3 0.2 21.6-0.2 43.1 0.2 64.7 0.1 5.7 1.7 11.5 3.4 16.9 3.5 11 10.4 19.8 19.2 27.1 10.4 8.6 22.3 13.9 36 14.1 23.5 0.4 47 0.5 70.5 0.9 15.3 0.3 29.1 14.2 29.1 31-0.1 106.4 0 212.9-0.1 319.3 0 3.4-0.7 6.9-1.4 10.3-2.8 14.2-10 25.8-20.9 35.3-11.1 9.7-24.1 15.1-38.6 15.1-74.8 0.2-149.5 0.1-224.3 0.1z m0 0M460.2 389.5V395c0 39.9-0.4 79.8 0.1 119.7 0.3 23.5 14.3 42.3 38.9 47.2 25.5 5.1 50.6-10.4 56.4-37.9 0.8-3.6 0.9-7.5 0.9-11.2 0.1-39.2 0-78.4 0-117.6v-5.6h5.1c35.7 0 71.3 0.1 107-0.1 4.7 0 10-0.4 13-4.9 3.2-4.8 2-10.2-3.3-15.6-5.3-5.5-10.7-10.8-16.1-16.2-39.7-39.7-79.3-79.4-119.1-119-5.5-5.5-11.1-11.1-17.5-15.6-12.1-8.6-29.5-6.4-39.6 3.7-48.8 48.6-97.7 97.2-146.5 145.8-2.4 2.4-4.2 5.5-5.5 8.6-2.1 5.1 0.2 9.8 5.3 11.6 3 1 6.2 1.7 9.3 1.7 35.2 0.1 70.5 0.1 105.7 0.1h5.9z m0 0"  horiz-adv-x="1024" />

    
    <glyph glyph-name="you-daohangshousuo" unicode="&#59037;" d="M189.9 704.2v-102.5h615V704.2h-615z m307.5-204.9H190v-102.5h307.4V499.3z m0-205.1H190v-102.5h307.4V294.2z m307.5-204.9h-615v-102.5h615V89.3z m-205 409.5v-306.6l205 153.3-205 153.3z m205-153.3"  horiz-adv-x="1024" />

    
    <glyph glyph-name="xitongshezhi" unicode="&#58974;" d="M754.8 384.7c0-8.7-0.5-17.4-1.4-26l53.4-43.4c13-10.5 16.4-28.9 8.1-43.4l-56-97.7c-8.4-14.7-26.2-21-42-14.9L650.7 185c-12.1-8.4-25-15.8-38.4-21.8l-11.1-71.4c-2.6-16.6-16.9-28.9-33.7-28.9h-112c-16.8 0-31.1 12.3-33.7 28.9L410.4 165c-13.2 6.3-25.9 13.8-37.8 22.4l-65-25.3c-15.7-6.1-33.6 0.2-42 14.8l-56 97.8c-8.3 14.5-4.9 32.9 8.1 43.5l55.2 44.8c-1.3 14.5-1.3 29.2 0 43.7l-55.2 44.7c-13 10.5-16.4 29-8.1 43.5l56 97.7c8.4 14.7 26.2 21 42 14.8l65-25.3c12.1 8.7 24.9 16.3 38.4 22.7l10.8 69.2c2.6 16.6 16.9 28.9 33.7 28.9h112.1c16.8 0 31.1-12.3 33.7-28.9l10.4-67.3c14.4-6.5 28.2-14.4 41.1-23.5l62.6 24.3c15.7 6.1 33.6-0.2 42-14.8l56-97.7c8.3-14.5 4.9-32.9-8.1-43.5l-51.7-42c0.8-8.3 1.2-16.6 1.2-24.8zM512.3 263.29999999999995c66 0 119.5 53.5 119.5 119.5s-53.5 119.5-119.5 119.5-119.5-53.5-119.5-119.5 53.5-119.5 119.5-119.5z m0 68.3c-28.3 0-51.2 22.9-51.2 51.2 0 28.3 22.9 51.2 51.2 51.2 28.3 0 51.2-22.9 51.2-51.2 0-28.3-22.9-51.2-51.2-51.2z m0 0"  horiz-adv-x="1024" />

    
    <glyph glyph-name="xitongjiance" unicode="&#58975;" d="M845.9 329.6h-4.4C820 182.20000000000005 704.2 66.5 556.7 45.299999999999955v-4.8c0-17.2-9.2-33.1-24.1-41.8-14.9-8.6-33.3-8.6-48.2 0-14.9 8.6-24.1 24.5-24.1 41.8v4.8C312.9 66.5 197 182.20000000000005 175.6 329.6h-4.4c-17.2 0-33.1 9.2-41.8 24.1-8.6 14.9-8.6 33.3 0 48.2 8.6 14.9 24.5 24.1 41.8 24.1h4.4c21.5 147.4 137.3 263 284.7 284.3v4.9c0 26.6 21.6 48.2 48.2 48.2s48.2-21.6 48.2-48.2v-4.9C704.1 689 819.9 573.3 841.4 426h4.4c26.6 0 48.2-21.6 48.2-48.2s-21.6-48.2-48.1-48.2zM744.7 425c-19 95.3-93.5 169.8-188.7 189-1.8-24.8-22.4-43.9-47.3-43.9s-45.5 19.2-47.3 43.9c-95.3-19.2-169.7-93.7-188.7-189 24.3-2.4 42.8-22.8 42.8-47.2 0-24.4-18.5-44.8-42.8-47.2 19.1-95.3 93.5-169.8 188.8-189 2 24.6 22.6 43.5 47.2 43.5 24.7 0 45.2-18.9 47.2-43.5 95.3 19.2 169.7 93.7 188.7 189-24.3 2.4-42.8 22.8-42.8 47.2 0 24.4 18.6 44.8 42.9 47.2zM508.5 233.20000000000005c-79.8 0-144.6 64.7-144.6 144.6 0 79.8 64.7 144.6 144.6 144.6 79.8 0 144.6-64.7 144.6-144.6 0-79.9-64.7-144.6-144.6-144.6z m0 0"  horiz-adv-x="1024" />

    
    <glyph glyph-name="shebeishoudongfaxian" unicode="&#58976;" d="M857.3 714.5c-21.7 2.9-41.8-12.3-44.6-34V60c1.6-20.1 18.8-35.6 39.3-34h0.8c20.5-0.8 37.7 15.2 38.5 36V680.5c-2.1 17.6-16 31.5-34 34z m-181.9 0.4H484.5c-20.9 1.6-39.3-14.3-41-35.2v-546.4h-54.1V678.8c-2.5 20.5-20.1 35.2-40.6 34H158.5c-20.5 1.2-38.1-13.9-40.1-34v-617.7c2-20.5 20.1-35.6 40.6-34h189.6c20.5-1.6 38.9 13.5 40.6 34v23.8h54.1v-23.8c2.5-20.5 20.5-35.6 41-34h189.6c20.5-1.6 38.9 13.5 40.6 34V678.8c-0.6 20.9-18.2 36.9-39.1 36.1zM240 84.89999999999998h-54.1v47.5H240v-47.5z m81.9 522.7H185.1v47.9h136.4v-47.9h0.4z m243.7-522.7h-54.1v47.5h54.1v-47.5z m81.9 522.7H511.1v47.9h136.4v-47.9z m0 0"  horiz-adv-x="1024" />

    
    <glyph glyph-name="shebeizidongfaxian" unicode="&#58977;" d="M137.4 124.29999999999995c0-33.2 26.8-60 60-60h600c33.1 0 60 26.8 60 60v165c0 33.1-26.9 60-60 60H537.9V506.8c0 20.7-16.8 37.5-37.5 37.5s-37.5-16.8-37.5-37.5v-157.5H197.4c-33.2 0-60-26.9-60-60v-165z m75 82.5c0 20.7 16.8 37.5 37.5 37.5s37.5-16.8 37.5-37.5-16.8-37.5-37.5-37.5-37.5 16.8-37.5 37.5z m135 0c0 20.7 16.8 37.5 37.5 37.5s37.5-16.8 37.5-37.5-16.8-37.5-37.5-37.5-37.5 16.8-37.5 37.5z m153 457.5c-87 0-157.5-70.5-157.5-157.5 0-20.7 16.8-37.5 37.5-37.5s37.5 16.8 37.5 37.5c0 45.6 36.9 82.5 82.5 82.5s82.5-36.9 82.5-82.5c0-20.7 16.8-37.5 37.5-37.5s37.5 16.8 37.5 37.5c0 87-70.5 157.5-157.5 157.5z m0 120c-153.3 0-277.5-124.2-277.5-277.5 0-20.7 16.8-37.5 37.5-37.5s37.5 16.8 37.5 37.5c0 111.9 90.6 202.5 202.5 202.5s202.5-90.6 202.5-202.5c0-20.7 16.8-37.5 37.5-37.5s37.5 16.8 37.5 37.5c0 153.3-124.2 277.5-277.5 277.5z m0 0"  horiz-adv-x="1024" />

    
    <glyph glyph-name="shebeizichan" unicode="&#58978;" d="M483.4 727.2l-328-157.4c-21.9-10.5-21.9-39.5 0-50l328-157.4c8.8-4.2 19.2-4.2 27.9 0l328 157.4c21.9 10.5 21.9 39.5 0 50l-328 157.4c-8.7 4.2-19.1 4.2-27.9 0z m0 0M831.1 340.29999999999995L518.5 187.89999999999998c-13.2-6.4-28.9-6.4-42 0L163.7 340.29999999999995c-24.8 12.1-32.4 42.2-15.9 63.4 13.3 17.2 38 22.6 58.1 12.9L476.4 284c13.2-6.5 29-6.5 42.2 0l270.5 132.6c20.1 9.8 44.7 4.4 58.1-12.9 16.3-21.3 8.8-51.3-16.1-63.4z m0 0M831.1 167.5L518.5 15.100000000000023c-13.2-6.4-28.9-6.4-42 0L163.7 167.5c-24.8 12.1-32.4 42.2-15.9 63.4 13.3 17.2 38 22.6 58.1 12.9l270.5-132.6c13.2-6.5 29-6.5 42.2 0l270.5 132.6c20.1 9.8 44.7 4.4 58.1-12.9 16.3-21.3 8.8-51.3-16.1-63.4z m0 0"  horiz-adv-x="1024" />

    
    <glyph glyph-name="yewuzichan" unicode="&#58979;" d="M383.6 643.8h287.5v-70.9H383.6v70.9z m0-173.4h287.5v-70.9H383.6v70.9z m0 0M220.2 228.10000000000002V624h51.2v-347.6h70.9v450h370.1v-447.1h70.9V765.8c0 17.4-14.1 31.6-31.6 31.6H302.9c-8.4 0-16.4-3.3-22.3-9.2-5.9-5.9-9.2-13.9-9.2-22.3V695h-90.6c-8.4 0-16.4-3.3-22.3-9.2s-9.2-13.9-9.2-22.3v-435.3h-19.7c-8.3 0-16.4-3.3-22.3-9.2-5.9-5.9-9.2-13.9-9.2-22.3v-187c0-17.4 14.1-31.5 31.5-31.5h673.6c8.3 0 16.3 3.3 22.3 9.2 5.9 5.9 9.2 13.9 9.2 22.3v187c0 8.3-3.3 16.3-9.2 22.3-5.9 5.9-13.9 9.2-22.3 9.2H576.7v-112.3H395.4V228.10000000000002H220.2z m0 0"  horiz-adv-x="1024" />

    
    <glyph glyph-name="jifangjijia" unicode="&#58980;" d="M270 727.4h487.1v-183.8H270V727.4zM663 698v-37.8h30.3V698H663zM360.9 576.2V698h-30.3v-121.8h30.3z m58.5 0V698h-30.3v-121.8h30.3z m56.5 0V698h-30.3v-121.8h30.3z m219.5-3.2v46.2h-86.8V573h86.8zM270 497.4h487.1v-183.8H270V497.4z m393-33.6V426h30.3v37.8H663zM362 342V463.8h-30.3V342H362z m58.5 0V463.8h-30.3V342h30.3z m56.4 0V463.8h-30.3V342h30.3z m218.5 6.3v46.2h-86.8v-46.2h86.8zM270 267.4h487.1v-183.8H270V267.4z m393-35.7v-37.8h30.3v37.8H663z m-301-125V228.5h-30.3v-121.8H362z m59.5 0V228.5h-30.3v-121.8h30.3z m56.5 0V228.5h-30.3v-121.8H478z m217.4 11.6v46.2h-86.8v-46.2h86.8z m72.1 696.3c40.8 0 73.2-33.6 73.2-74.6v-670c0-41-33.4-74.6-73.2-74.6h-509c-40.8 0-73.2 33.6-73.2 74.6V740c0 41 33.4 74.6 73.2 74.6h509zM804.1 70V740c0 20-16.7 36.8-36.6 36.8h-509c-19.9 0-36.6-16.8-36.6-36.8v-670c0-20 16.7-36.8 36.6-36.8h509c19.9 0 36.6 16.8 36.6 36.8z m0 0"  horiz-adv-x="1024" />

    
    <glyph glyph-name="biangengjilu" unicode="&#58981;" d="M551.1 440.7c-51.6 0-93.4 41.5-93.4 92.8V737.1h51.2v-203.6c0.1-11.1 4.6-21.7 12.5-29.5 7.9-7.8 18.6-12.1 29.7-12h219.2L522.5 737.1H162.2c-30.6 0-55.4-24.6-55.4-54.8v-709.6c0-30.3 24.8-54.8 55.4-54.8h554.5c30.6 0 55.4 24.6 55.4 54.8v468h-221zM272.9 282.4l60 53.5c7.7 6.9 20 1.4 20-9v-29.4h250.8c12.7 0 23-10.3 23-23s-10.3-23-23-23H352.8V220c0-10.4-12.3-15.9-20-9l-60 53.5c-5.3 4.8-5.3 13.1 0.1 17.9z m350.4-169.9l-60-53.5c-7.7-6.9-20-1.4-20 9v29.4H292.6c-12.7 0-23 10.3-23 23s10.3 23 23 23h250.8v31.5c0 10.4 12.3 15.9 20 9l60-53.5c5.2-4.8 5.2-13.1-0.1-17.9zM453 267h29.2H453z"  horiz-adv-x="1024" />

    
    <glyph glyph-name="jiancehuizong" unicode="&#58982;" d="M453 267h29.2H453zM672.7 381.70000000000005c-12.7 63.9-62.6 113.8-126.4 126.6-1.2-16.6-15-29.4-31.7-29.4s-30.5 12.9-31.7 29.4c-63.9-12.9-113.7-62.8-126.4-126.6 16.3-1.6 28.7-15.3 28.7-31.6s-12.4-30-28.7-31.6c12.8-63.9 62.6-113.8 126.5-126.6 1.3 16.5 15.1 29.1 31.6 29.1s30.3-12.7 31.6-29.1c63.9 12.9 113.7 62.8 126.4 126.6-16.3 1.6-28.7 15.3-28.7 31.6s12.5 29.9 28.8 31.6zM514.4 253.10000000000002c-53.5 0-96.9 43.4-96.9 96.9 0 53.5 43.4 96.9 96.9 96.9 53.5 0 96.9-43.3 96.9-96.9 0-53.5-43.4-96.9-96.9-96.9zM422.8 744.7H603c21.8 0 38.2 19.1 38.2 43.7 2.7 24.6-13.7 43.7-38.2 43.7H422.8c-21.8 0-41-19.1-41-43.7s16.4-43.7 41-43.7zM799.6 802h-90.1c0-5.5 2.7-10.9 2.7-13.7 0-38.2-27.3-73.7-57.3-73.7H379.1c-35.5 0-60.1 35.5-60.1 73.7 0 5.5 0 10.9 2.7 13.7h-92.8c-73.7 0-90.1-41-90.1-101v-589.8c0-62.8 24.6-98.3 95.6-98.3h559.8c71 0 103.8 27.3 103.8 101V701c-0.1 60.1-30.1 101-98.4 101z m-59.1-484.3h-2.9c-14.4-98.8-92-176.3-190.8-190.5v-3.2c0-11.5-6.2-22.2-16.1-28-10-5.8-22.3-5.8-32.3 0-10 5.8-16.1 16.4-16.1 28v3.2c-98.8 14.2-176.4 91.7-190.8 190.5h-2.9c-11.5 0-22.2 6.2-28 16.1-5.8 10-5.8 22.3 0 32.3 5.8 10 16.4 16.1 28 16.1h2.9c14.4 98.8 92 176.2 190.8 190.5V576c0 17.8 14.5 32.3 32.3 32.3 17.8 0 32.3-14.5 32.3-32.3v-3.3c98.8-14.3 176.4-91.8 190.8-190.5h2.9c17.8 0 32.3-14.5 32.3-32.3-0.2-17.7-14.7-32.2-32.4-32.2z"  horiz-adv-x="1024" />

    
    <glyph glyph-name="shebeijiance" unicode="&#58983;" d="M453 267h29.2H453zM118.3 704h787.5c31.1 0 56.3-25.2 56.3-56.3v-164.4c0-31.1-25.2-56.3-56.3-56.3H118.3C87.2 427 62 452.2 62 483.3V647.7c0 31.1 25.2 56.3 56.3 56.3z m83.9-110.8c-15.3 0-27.7-12.4-27.7-27.7 0-15.3 12.4-27.7 27.7-27.7h169.6c15.3 0 27.7 12.4 27.7 27.7 0 15.3-12.4 27.7-27.7 27.7H202.2z m-83.9-332.3h787.5c31.1 0 56.3-25.2 56.3-56.3v-164.4c0-31-25.2-56.2-56.3-56.2H118.3C87.2-16 62 9.200000000000045 62 40.200000000000045V204.60000000000002c0 31.1 25.2 56.3 56.3 56.3z m83.9-110.8c-15.3 0-27.7-12.4-27.7-27.7 0-15.3 12.4-27.7 27.7-27.7h169.6c15.3 0 27.7 12.4 27.7 27.7 0 15.3-12.4 27.7-27.7 27.7H202.2z m0 0"  horiz-adv-x="1024" />

    
    <glyph glyph-name="jifangjiance" unicode="&#58984;" d="M453 267h29.2H453zM205.9 716.3v-637.2H479V716.3H205.9z m-91 91.1H570v-819.2H114.9V807.4z m0 0M570 716.3v-637.2h273.1V716.3H570z m-91 91.1h455.1v-819.2H479V807.4z m0 0M342.5 579.8c-16.3 0-31.3 8.7-39.4 22.8-8.1 14.1-8.1 31.4 0 45.5 8.1 14.1 23.2 22.8 39.4 22.8 25.1 0 45.5-20.4 45.5-45.5s-20.4-45.6-45.5-45.6z m-91.1-318.6h182v-45.5h-182v45.5z m0-91h182v-45.5h-182v45.5z m91.1 273.1c-25.1 0-45.5 20.4-45.5 45.5s20.4 45.5 45.5 45.5 45.5-20.4 45.5-45.5-20.4-45.5-45.5-45.5z m364.1 136.5c-16.3 0-31.3 8.7-39.4 22.8-8.1 14.1-8.1 31.4 0 45.5 8.1 14.1 23.2 22.8 39.4 22.8 25.1 0 45.5-20.4 45.5-45.5s-20.4-45.6-45.5-45.6z m-91.1-318.6h182v-45.5h-182v45.5z m0-91h182v-45.5h-182v45.5z m91.1 273.1c-25.1 0-45.5 20.4-45.5 45.5s20.4 45.5 45.5 45.5 45.5-20.4 45.5-45.5-20.4-45.5-45.5-45.5z m0 0"  horiz-adv-x="1024" />

    
    <glyph glyph-name="yewujiance" unicode="&#58985;" d="M453 267h29.2H453zM857.9 668.2H748.6v27.3c0 36.2-14.4 70.9-40 96.5-25.6 25.6-60.3 40-96.5 40H448.3c-75.4 0-136.5-61.1-136.5-136.5v-27.3H202.5c-29 0-56.8-11.5-77.2-32-20.5-20.5-32-48.3-32-77.2v-436.9c0-60.3 48.9-109.2 109.2-109.2h655.4c29 0 56.7 11.5 77.2 32s32 48.3 32 77.2V559c0 29-11.5 56.8-32 77.2-20.5 20.5-48.3 32-77.2 32zM421 695.5c0 7.2 2.9 14.2 8 19.3 5.1 5.1 12.1 8 19.3 8h163.8c7.2 0 14.2-2.9 19.3-8 5.1-5.1 8-12.1 8-19.3v-27.3H421v27.3zM257.1 559h546.1c30.2 0 54.6-24.5 54.6-54.6v-109.2H694v27.3c0 15.1-12.2 27.3-27.3 27.3-15.1 0-27.3-12.2-27.3-27.3v-27.3H421v27.3c0 15.1-12.2 27.3-27.3 27.3-15.1 0-27.3-12.2-27.3-27.3v-27.3H202.5V504.4c0 14.5 5.8 28.4 16 38.6 10.2 10.2 24.1 16 38.6 16z m546.1-436.9H257.1c-30.2 0-54.6 24.5-54.6 54.6V340.5h163.8v-27.3c0-15.1 12.2-27.3 27.3-27.3 15.1 0 27.3 12.2 27.3 27.3v27.3h218.5v-27.3c0-15.1 12.2-27.3 27.3-27.3 15.1 0 27.3 12.2 27.3 27.3v27.3h163.8v-163.8c0.1-30.2-24.4-54.6-54.6-54.6z m0 0"  horiz-adv-x="1024" />

    
    <glyph glyph-name="gaojinglishi" unicode="&#58986;" d="M453 267h29.2H453zM768.1 425.9c-113.7 0-205.8-92.1-205.8-205.8s92.1-205.8 205.8-205.8S974 106.39999999999998 974 220.10000000000002s-92.2 205.8-205.9 205.8z m69.7-275.4c-5-5-11.6-7.5-18.2-7.5s-13.2 2.5-18.2 7.5L750 201.89999999999998c-4.7 4.6-7.5 11-7.5 18.1V323c0 14.2 11.5 25.7 25.7 25.7s25.7-11.5 25.7-25.7v-92.3l43.9-43.9c10-10 10-26.3 0-36.3zM487.6-57.299999999999955c60.6 0 109 48.7 109.1 108.9H378.6c0.1-60.3 48.9-108.9 109-108.9zM537.3 224.29999999999995c0 114.2 85.6 208.5 196.2 222.1-4.4 117.4-71.5 200-173.8 232.8 0.6 3.8 1 7.7 1 11.6 0 39-32.6 70.9-72.8 70.9-40.2 0-72.8-31.7-72.8-70.9 0-4 0.4-7.9 1-11.7-100.8-34-173.9-121.2-173.9-245.1v-136.5s-9.4-118.8-44.9-120.1c-21.1 0-37.4-15.9-37.4-35.4 0-19.7 16.3-35.4 36.4-35.4h374.4c-21.2 34.2-33.4 74.5-33.4 117.7z"  horiz-adv-x="1024" />

    
    <glyph glyph-name="dangqiangaojing" unicode="&#58987;" d="M453 267h29.2H453zM231.2 81.60000000000002h537.7v-39.7H231.2v39.7z m56 0H713V343.5c0 120.5-95.3 218.2-212.9 218.2-117.6 0-212.9-97.7-212.9-218.2v-261.9z m160 77.6l22.9 127.5-52.8 5.7 127.1 164.2-25-139.6 54.9-8-127.1-149.8z m48.7 469.1c-14.7 0-26.6 11.9-26.6 26.6v71c0 14.7 11.9 26.6 26.6 26.6s26.6-11.9 26.6-26.6v-71c0-14.7-11.9-26.6-26.6-26.6z m-183.1-71.6c-12.7-7.4-29-3-36.4 9.7L240.9 628c-7.4 12.7-3 29 9.7 36.4 12.7 7.4 29 3 36.4-9.7l35.5-61.5c7.4-12.8 3.1-29.1-9.7-36.5z m-91.2-134.4c-6.8-13-22.9-18.1-35.9-11.2l-62.9 33c-13 6.8-18 22.9-11.2 35.9 6.8 13 22.9 18 35.9 11.2l62.9-33c13-6.8 18.1-22.9 11.2-35.9z m460.3 134.8c12.7-7.4 29-3 36.4 9.7l35.5 61.5c7.4 12.7 3 29-9.7 36.4-12.7 7.4-29 3-36.4-9.7l-35.5-61.5c-7.4-12.8-3.1-29.1 9.7-36.4z m102.4-134.8c6.8-13 22.9-18 35.9-11.2l62.9 33c13 6.8 18 22.9 11.2 35.9-6.8 13-22.9 18-35.9 11.2l-62.9-33c-13-6.8-18.1-22.9-11.2-35.9z m0 0"  horiz-adv-x="1024" />

    
    <glyph glyph-name="gaojingshezhi" unicode="&#58988;" d="M453 267h29.2H453zM487.6-57.3c60.6 0 109 48.7 109.1 108.9H378.6c0.1-60.3 48.9-108.9 109-108.9zM537.3 224.3c0 114.2 85.6 208.5 196.2 222.1-4.4 117.4-71.5 200-173.8 232.8 0.6 3.8 1 7.7 1 11.6 0 39-32.6 70.9-72.8 70.9-40.2 0-72.8-31.7-72.8-70.9 0-4 0.4-7.9 1-11.7-100.8-34-173.9-121.2-173.9-245.1v-136.5s-9.4-118.8-44.9-120.1c-21.1 0-37.4-15.9-37.4-35.4 0-19.7 16.3-35.4 36.4-35.4h374.4c-21.2 34.2-33.4 74.5-33.4 117.7zM763.6 253.8c-16.5 0-29.8-13.3-29.8-29.8s13.3-29.8 29.8-29.8 29.8 13.3 29.8 29.8-13.4 29.8-29.8 29.8zM935.1 184.7L904 210c0.5 5 0.8 10.1 0.8 15.1 0 4.8-0.2 9.6-0.7 14.4l30.1 24.5c7.6 6.2 9.6 16.9 4.7 25.3l-32.6 56.9c-4.9 8.5-15.3 12.2-24.5 8.6l-36.5-14.2c-7.5 5.3-15.6 9.9-23.9 13.7l-6.1 39.2c-1.5 9.7-9.8 16.8-19.6 16.8h-65.3c-9.8 0-18.1-7.2-19.6-16.8l-6.3-40.3c-7.9-3.7-15.3-8.2-22.4-13.2l-37.9 14.7c-9.2 3.6-19.6-0.1-24.5-8.6l-32.6-56.9c-4.8-8.4-2.9-19.2 4.7-25.3l32.2-26c-0.8-8.4-0.8-17 0-25.5l-32-26c-7.6-6.2-9.6-16.9-4.7-25.3l32.6-57c4.9-8.5 15.3-12.2 24.5-8.6l37.9 14.7c6.9-5 14.3-9.4 22-13l6.6-42.6c1.5-9.7 9.8-16.8 19.6-16.8h65.2c9.8 0 18.1 7.2 19.6 16.8l6.5 41.6c7.8 3.5 15.3 7.8 22.4 12.7l38.6-15c9.2-3.6 19.6 0.1 24.5 8.7l32.6 56.9c4.7 8.4 2.8 19.1-4.8 25.2z m-171.5-30.3c-38.4 0-69.6 31.2-69.6 69.6 0 38.4 31.2 69.6 69.6 69.6 38.4 0 69.6-31.2 69.6-69.6 0-38.4-31.2-69.6-69.6-69.6z"  horiz-adv-x="1024" />

    
    <glyph glyph-name="waibugaojingjicheng" unicode="&#58989;" d="M453 267h29.2H453zM543.5 795.8v-367.4h-81.6V714.2H332c-17 47.4-61.8 81.6-114.9 81.6-67.5 0-122.3-54.8-122.3-122.3S149.6 551 217.1 551c53.1 0 97.9 34.2 114.9 81.6h48.3v-204.1H332c-17 47.4-61.8 81.6-114.9 81.6-67.5 0-122.3-54.8-122.3-122.3s54.8-122.3 122.3-122.3c53.1 0 97.9 34.2 114.9 81.6h48.3v-203.9H332c-17 47.2-61.8 81.4-114.7 81.4-67.5-0.1-122.3-54.9-122.3-122.4s54.8-122.3 122.3-122.3c53.1 0 98.2 34.4 114.9 81.8h129.9V347.1h81.6v-367.4h367.4V795.8H543.5zM217.1 632.6c-22.4 0-40.7 18.3-40.7 40.7 0 22.4 18.3 40.7 40.7 40.7 22.4 0 40.7-18.3 40.7-40.7 0-22.4-18.1-40.7-40.7-40.7z m0-285.5c-22.4 0-40.7 18.3-40.7 40.7 0 22.4 18.3 40.7 40.7 40.7 22.4 0 40.7-18.3 40.7-40.7 0.2-22.5-18.1-40.7-40.7-40.7z m0-285.8c-22.4 0-40.7 18.3-40.7 40.7 0 22.4 18.3 40.7 40.7 40.7 22.4 0 40.7-18.3 40.7-40.7 0.2-22.4-18.1-40.7-40.7-40.7z m612.2 0H625.2V714.2h204.1v-652.9z m0 0M665.9 632.6h122.3V551H665.9v81.6z m0-203.9h122.3v-81.6H665.9v81.6z m0-204h122.3v-81.6H665.9v81.6z m0 0"  horiz-adv-x="1024" />

    
    <glyph glyph-name="zhuangtaisousuo" unicode="&#58990;" d="M455.9 241.10000000000002H485h-29.1zM511.3 730.9c-203 0-367.5-164.5-367.5-367.5s164.5-367.5 367.5-367.5 367.5 164.5 367.5 367.5-164.5 367.5-367.5 367.5z m-52.6-503c-105.6 0-191.2 85.6-191.2 191.2s85.6 191.2 191.2 191.2S649.9 524.6 649.9 419s-85.6-191.1-191.2-191.1z m277.4-102.2c-12.1-12.1-32-12.1-44.2 0l-88.7 88.7c-12.1 12.1-12.1 32 0 44.2 12.1 12.1 32 12.1 44.2 0l88.7-88.7c12.2-12.2 12.2-32.1 0-44.2zM455.6 419m-130.6 0a130.6 130.6 0 1 1 261.2 0 130.6 130.6 0 1 1-261.2 0Z"  horiz-adv-x="1024" />

    
    <glyph glyph-name="xukezhengweihuxinxi" unicode="&#58991;" d="M455.9 241.10000000000002H485h-29.1zM365.3 526.4h293.3c6.6 0 12 5.4 12 12v94.5c0 6.6-5.4 12-12 12H365.3c-6.6 0-12-5.4-12-12v-94.5c0-6.6 5.4-12 12-12zM659.7 448.5H366.3c-6.6 0-12-5.4-12-12V342c0-6.6 5.4-12 12-12h293.3c6.6 0 12 5.4 12 12v94.5c0.1 6.6-5.3 12-11.9 12zM568.2 49.39999999999998H307.9c-28.5 0-51.7 23.1-51.7 51.7V669.7c0 28.5 23.1 51.7 51.7 51.7h393.9c28.5 0 51.7-23.1 51.7-51.7v-292.8c27.4 10.2 57.1-6.2 88.1-6.2 11 0 21.8 8.3 32.4 6.9v390c0 35.4-28.7 64.1-64.1 64.1H204.5c-35.4 0-64.1-28.7-64.1-64.1v-767.1c0-35.4 28.7-64.1 64.1-64.1l362 2.1c-31.8 30.5 14.1 67.3 1.7 110.9zM567.1-6.2999999999999545m-55.8 0a55.8 55.8 0 1 1 111.6 0 55.8 55.8 0 1 1-111.6 0ZM813.6 380.20000000000005m-60.3 0a60.3 60.3 0 1 1 120.6 0 60.3 60.3 0 1 1-120.6 0ZM914.1 128.60000000000002c0-4.9-0.3-9.8-0.8-14.7l30.2-24.5c7.3-5.9 9.3-16.3 4.6-24.5l-31.6-55.2c-4.7-8.3-14.8-11.9-23.7-8.4l-37.4 14.5c-6.8-4.7-14.1-8.9-21.7-12.3l-6.3-40.4c-1.5-9.4-9.6-16.3-19-16.3h-63.3c-9.5 0-17.6 7-19 16.3l-6.4 41.4c-7.5 3.6-14.6 7.8-21.4 12.7l-36.7-14.3c-8.9-3.4-19 0.1-23.7 8.4L606 66.5c-4.7 8.2-2.8 18.6 4.6 24.6l31.2 25.3c-0.7 8.2-0.7 16.5 0 24.7l-31.2 25.3c-7.3 5.9-9.3 16.4-4.6 24.6l31.6 55.2c4.7 8.3 14.8 11.9 23.7 8.4l36.7-14.3c6.8 4.9 14.1 9.2 21.7 12.8l6.1 39.1c1.5 9.4 9.6 16.3 19 16.3h63.4c9.5 0 17.6-7 19-16.3l5.9-38c8.1-3.7 15.9-8.1 23.2-13.3l35.4 13.7c8.9 3.4 19-0.1 23.7-8.4L947 191c4.7-8.2 2.8-18.6-4.6-24.6l-29.2-23.7c0.7-4.7 0.9-9.4 0.9-14.1zM777 60c37.3 0 67.5 30.2 67.5 67.5S814.3 195 777 195s-67.5-30.2-67.5-67.5c0-37.2 30.2-67.5 67.5-67.5z m0 38.6c-16 0-28.9 12.9-28.9 28.9 0 16 12.9 28.9 28.9 28.9 16 0 28.9-12.9 28.9-28.9 0.1-15.9-12.9-28.9-28.9-28.9z m0 0"  horiz-adv-x="1024" />

    
    <glyph glyph-name="xitongguanli" unicode="&#58992;" d="M809.5 333.1V671.5c0 43.9-35.8 79.7-79.7 79.7H365.4c-43.9 0-79.7-35.8-79.7-79.7v-11.4h-34.2c-43.9 0-79.7-35.8-79.7-79.7v-248.2c-26.4-13-44.6-40.2-44.6-71.6v-114c0-43.9 35.8-79.7 79.7-79.7h569.4c43.9 0 79.7 35.8 79.7 79.7V260.70000000000005c-0.1 32-19.1 59.7-46.5 72.4z m-523.8 7.2h-45.5v240c0 6.3 5.1 11.4 11.4 11.4h34.2v-251.4z m455.5 0H586.9c-14.9-38.2-51.9-65.5-95.4-65.5-43.4 0-80.5 27.2-95.4 65.5h-42.2V671.5c0 6.3 5.1 11.4 11.4 11.4h364.4c6.3 0 11.4-5.1 11.4-11.4v-331.2h0.1z m0 0M680 518.9c-1 6.1-6.9 12.2-12.9 13.6l-4.5 1c-11 3.3-20.2 10.7-25.9 20.6-5.8 10-7.4 21.8-4.8 33.1l1.4 4.2c1.8 5.9-0.6 14-5.3 18.1 0 0-4.2 3.6-16.2 10.5-11.9 6.9-17 8.8-17 8.8-5.8 2.2-13.9 0.1-18.2-4.4l-3.1-3.4c-8.3-7.9-19.3-12.3-30.7-12.2-11.5 0-22.6 4.4-30.9 12.4l-3 3.3c-4.2 4.6-12.4 6.6-18.2 4.4 0 0-5.2-1.9-17.1-8.8-11.9-7-16.2-10.6-16.2-10.6-4.7-4-7-12-5.2-18l1.3-4.3c2.6-11.2 1-23-4.8-33-5.7-10-15-17.4-26.1-20.6l-4.3-1c-5.9-1.4-11.8-7.4-12.9-13.6 0 0-1-5.4-1-19.3 0-13.8 1-19.3 1-19.3 1-6.1 6.9-12.2 12.9-13.5l4.2-1c11-3.3 20.4-10.7 26.1-20.7 5.9-10.4 7.4-22.2 4.8-33.1l-1.2-4.2c-1.8-5.9 0.6-14 5.3-18.1 0 0 4.2-3.6 16.2-10.5 11.9-6.9 17-8.8 17-8.8 5.8-2.2 13.9-0.1 18.2 4.4l3 3.2c17.3 16.6 44.5 16.5 61.8 0l3-3.2c4.2-4.5 12.3-6.6 18.2-4.4 0 0 5.2 1.9 17.1 8.8 11.9 6.9 16.1 10.5 16.1 10.5 4.7 4 7 12.1 5.3 18.1l-1.3 4.4c-2.6 11.2-1 23 4.8 33 5.7 10 15 17.4 26.1 20.7l4.2 1c5.9 1.4 11.8 7.4 12.9 13.6 0 0 1 5.4 1 19.3-0.1 13.5-1.1 19-1.1 19z m-137.1-74.8c-30.4 0-55.1 24.8-55.1 55.5-0.1 14.6 5.8 28.7 16.1 39.1 10.3 10.4 24.4 16.2 39 16.2 30.4 0 55.1-24.8 55.1-55.4-0.1-30.6-24.7-55.4-55.1-55.4z m0 0"  horiz-adv-x="1024" />

    
    <glyph glyph-name="pingtaijichushezhi" unicode="&#58993;" d="M872.2 801.6c25.1 0 45.5-25.2 45.4-56.4v-706.5c0-31.1-20.4-56.4-45.5-56.4H144c-25.1 0.1-45.5 25.3-45.5 56.5V745.2c0 31.1 20.4 56.3 45.6 56.3h728.1z m-97.9-60.7c-11.3 0-20.5-9.1-20.5-20.2 0-11.2 9.2-20.2 20.5-20.2s20.5 9.1 20.5 20.2c0 5.4-2.2 10.6-6 14.4-3.9 3.8-9.1 5.9-14.5 5.8z m-104.9 0c-11.3 0-20.5-9.1-20.5-20.2 0-11.2 9.2-20.2 20.5-20.2s20.5 9.1 20.5 20.2c0 5.4-2.2 10.6-6 14.4-3.9 3.8-9.1 5.9-14.5 5.8z m-444.1 0c-13.6 0-24.5-9.1-24.5-20.2 0-11.2 10.9-20.2 24.5-20.2H545c13.6 0 24.5 9.1 24.5 20.2 0 11.2-10.9 20.2-24.5 20.2H225.3z m-75.6-118.5v-563.2c0-13.9 11.4-25.6 25.5-25.6H841c6.8 0 13.3 2.7 18.1 7.5 4.8 4.8 7.5 11.3 7.4 18.1V622.4c0 13.9-11.4 25.6-25.5 25.6H175.2c-6.8 0-13.3-2.7-18.1-7.5-4.8-4.8-7.5-11.4-7.4-18.1z m0 0M803.6 267.20000000000005H791c-6.1 0.2-11.4 4.1-13.6 9.7l-7.2 17c-2.7 5.4-1.7 11.8 2.5 16.2l8.9 8.7c2 1.9 3.1 4.5 3.1 7.2s-1.1 5.3-3.1 7.2l-14.8 14.4c-4.2 4-10.7 4-14.8 0l-9-8.6c-4.6-4-11.1-4.9-16.6-2.4l-17.5 7c-5.7 2-9.7 7.2-10 13.3V369c-0.1 5.7-4.7 10.3-10.4 10.2h-21c-5.7 0.1-10.4-4.5-10.5-10.2v-12.2c0-5.6-4.5-11.6-10-13.3l-17.5-7c-5.5-2.6-12.1-1.7-16.6 2.4l-9 8.7c-4.2 4-10.7 4-14.8 0l-14.8-14.4c-2-1.9-3.1-4.5-3.1-7.2s1.1-5.3 3.1-7.2l8.9-8.7c4.1-3.9 5.2-11.3 2.5-16.2l-7.2-17c-2.2-5.7-7.5-9.5-13.6-9.7h-12.6c-5.7 0-10.3-4.5-10.4-10.2v-20.4c0-5.6 4.7-10.2 10.4-10.2h12.6c5.8 0 11.9-4.4 13.6-9.7l7.2-17c2.6-5.4 1.7-11.8-2.5-16.2l-8.9-8.7c-1.9-1.9-3-4.5-3-7.2s1.1-5.3 3-7.2l14.8-14.4c4.1-3.9 10.6-3.9 14.8 0l8.9 8.7c4.6 4 11.1 5 16.6 2.4l17.6-7c5.7-2 9.7-7.2 10-13.2v-12.2c0-5.6 4.7-10.2 10.5-10.2h20.9c5.7 0 10.4 4.6 10.4 10.2v12.2c0.3 6 4.3 11.3 10 13.2l17.6 7c5.5 2.6 12.1 1.7 16.6-2.4l8.9-8.7c4.2-4 10.7-4 14.8 0l14.8 14.4c2 1.9 3.1 4.5 3.1 7.2s-1.1 5.3-3.1 7.2l-8.9 8.7c-4.1 4.3-5.1 10.8-2.5 16.2l7.2 17c2.2 5.7 7.5 9.5 13.6 9.7h12.6c5.7 0 10.4 4.6 10.4 10.2V257c0 2.7-1.1 5.4-3.1 7.3-1.8 1.9-4.4 3-7.2 2.9z m-125.7-71.3c-28.9 0-52.4 22.8-52.4 50.9 0 28.2 23.4 50.9 52.4 50.9s52.4-22.8 52.4-50.9c0-28.1-23.4-50.9-52.4-50.9zM581 457.1c8.3 0 15.2-6.7 15.2-14.7v-29.6c-0.1-8.3-6.9-14.9-15.2-14.8h-18.3c-8.8-0.3-16.5-5.8-19.7-14l-10.4-24.8c-3.9-7.8-2.5-17.2 3.5-23.5L549 323c2.8-2.7 4.5-6.5 4.5-10.5 0-3.9-1.6-7.7-4.5-10.5l-21.5-20.9c-6-5.7-15.5-5.7-21.5 0l-12.9 12.6c-6.7 5.8-16.2 7.2-24.2 3.4L443.5 287c-8.3-2.8-14.1-10.4-14.5-19.2v-17.7c-0.1-8.3-6.9-14.9-15.2-14.8h-30.4c-8.3-0.1-15.1 6.5-15.3 14.8v17.7c-0.5 8.8-6.2 16.4-14.5 19.2l-25.4 10.1c-8 3.8-17.5 2.5-24.1-3.4l-13-12.6c-6-5.7-15.5-5.7-21.5 0l-21.6 21c-2.8 2.8-4.5 6.5-4.5 10.5s1.6 7.7 4.5 10.5l12.9 12.5c6 6.3 7.5 15.7 3.6 23.6L254 383.9c-3.1 8.2-10.9 13.8-19.7 14.1H216c-8.3-0.1-15.1 6.6-15.2 14.8v29.5c0 8.1 6.9 14.7 15.2 14.7h18.3c8.8 0.3 16.5 5.9 19.7 14.1l10.5 24.8c3.9 7.8 2.4 17.2-3.6 23.4L248 532c-2.8 2.7-4.4 6.5-4.4 10.4 0 3.9 1.6 7.7 4.4 10.4l21.5 20.9c6 5.8 15.5 5.8 21.5 0l13-12.5c6.6-5.9 16.1-7.3 24.2-3.5l25.4 10.2c8.3 2.8 14.1 10.4 14.5 19.1v18c0 8.1 6.9 14.7 15.3 14.7h30.4c8.3 0 15.2-6.7 15.2-14.7v-17.8c0.5-8.8 6.2-16.3 14.5-19.1l25.4-10.2c8-3.8 17.5-2.4 24.2 3.5l13 12.5c6 5.7 15.5 5.7 21.5 0L549 553c2.8-2.7 4.5-6.5 4.5-10.5 0-3.9-1.6-7.7-4.5-10.5l-12.9-12.5c-6-6.3-7.4-15.7-3.6-23.4l10.5-24.8c3.1-8.2 10.9-13.8 19.7-14.1l18.3-0.1zM398.5 353.70000000000005c42 0 76 33.1 76 73.9 0 40.8-34 74-76 74s-76-33.1-76-73.9c0-40.9 34-74 76-74z m0 0"  horiz-adv-x="1024" />

    
    <glyph glyph-name="pingtaiyuyanshezhi" unicode="&#58994;" d="M922.2 403.3C922.2 629.1 739 812.1 513 812.1S103.8 629 103.8 403.2c0-208.6 156.3-380.7 358.3-405.7 11.4-2.4 25.3-3.8 41.8-3.8 4.6 0 9.1 0.2 13.4 0.7 224 2.3 404.9 184.5 404.9 408.9z m-58.5-5.8c-1.2 20.4-3.9 40.4-8 59.8 0.4 6.9 0.5 13.5 0.3 19.6 5.1-23.7 7.8-48.3 7.8-73.6-0.1-2-0.1-3.9-0.1-5.8z m-701.4 5.8c0 24.8 2.6 49 7.5 72.3 15.1-16.2 50.8-15.8 59.6 8.4 15.6-9.3 36.5-11 36.5-29.5 0-61.2 2.2-126.9 57.8-127.9 1.6 0 31-11.2 45.1-47.5 4.8-12.6 24 0 45.1 0 10.5 0 0-17.7 0-55.9 0-38.1 82.1-96.8 82.1-96.8-0.4-25.2 0.7-45.6 2.8-61.9-18.5 0.3-34.2-2.1-46.4-6.3-164.9 28.6-290.1 172.2-290.1 345.1z m437-339.8c-1.8 8.9-9.8 13.8-24.3 10 11.6 49.3 17.2 76.9 41.4 97.9 35 30.3 4.2 64-22.5 60.1-21-3.2-7.7 26-26.4 27.6-18.7 1.6-43.2 38.8-70.1 51.6-14.3 6.8-28.3 25-50.4 25.8-19.5 0.8-48.1-16.5-48.1-3.2 0 42.9-4.3 73.5-5.2 85.7-0.7 9.8-6.4 3.3 20 2.7 14.4-0.4 7.4 28.9 21.6 30 14 1.1 47.2-13.1 55.7-7.4 7.9 5.3 57.9-131.3 57.9-22.6 0 12.9-6.7 35.3 0 47.5 26.4 48.3 51.2 87.6 48.9 93.4-1.3 3.2-27 5.9-47.7-1-7-2.3 2.2-13.2-7.8-15.6-37.4-8.6-70.5 10.1-59 27.7 11.9 18.1 54.9 7.9 58.6 44.1 2.2 20.8 4 44.8 5.2 62.6 50.4-7.9 44.9 65.4-30.1 73.3 151.6-1.8 280.1-99.7 327.3-235.6-2.4 2.2-5.2 3.5-8.4 3.8-22.7 56.6-77.7 15.6-59-34.3-100-76.8-74.4-130.4-41.5-161.1 17.3-16.1 33.8-40.4 44.5-57.8-11.7-34.1 43-20.4 70 37.4C815.7 187 720 94 599.3 63.5z m0 0"  horiz-adv-x="1024" />

    
    <glyph glyph-name="shujuzidianguanli" unicode="&#58995;" d="M937.2 213.5l-26.4-8.2c0.8-5.7 1.7-11.3 1.7-17.1 0-5.8-0.9-11.4-1.9-17l26.6-8.3c6.2-1.8 11.4-6 14.4-11.6 3-5.8 3.7-12.4 1.5-18.5-4.2-12.6-18.2-19.4-31.4-15.5l-26.9 8.4c-5.6-10.1-12.4-19.4-20.6-27.7l16.4-21.6c4-5.1 5.7-11.6 4.6-18-1.1-6.3-4.7-11.9-10-15.4-11.2-7.9-26.6-5.5-35 5.3L833.8 70c-10.8-5.2-22.2-8.8-33.9-10.9v-26.5c0-13.2-11.1-24-24.9-24-13.9 0-25.1 10.8-25.1 24v26.5c-11.7 2.1-23.1 5.8-33.8 10.9l-16.5-21.7c-8.4-10.8-23.7-13.1-34.9-5.3-5.3 3.6-8.9 9.1-10 15.4-1.1 6.4 0.5 12.9 4.5 18l16.5 21.9c-8.3 8.1-15.4 17.3-21.3 27.3l-26.3-8.2c-13.2-4.1-27.2 2.8-31.4 15.4-2.1 6.1-1.5 12.8 1.5 18.5 3 5.7 8.2 9.9 14.4 11.6L639 171c-0.6 5.7-1.6 11.3-1.6 17.2 0 5.8 0.9 11.4 1.8 17l-26.6 8.2c-13.1 4.2-20.2 17.7-15.9 30.3 4.2 12.6 18.2 19.4 31.4 15.5l26.8-8.5c5.8 10 12.5 19.5 20.7 27.8l-16.4 21.7c-3.9 5.1-5.6 11.6-4.5 17.9 1 6.3 4.7 12 10 15.5 11.2 7.8 26.6 5.4 35-5.3l16.4-21.7c10.8 5.1 22.2 8.8 33.9 11V344c0 13.2 11.1 24 24.9 24 13.8 0 25.1-10.7 25.1-24v-26.4c11.9-2.1 23.1-6.1 33.7-11l16.5 21.7c8.3 10.8 23.7 13.1 34.8 5.3 5.3-3.6 9-9.2 10-15.5 1.1-6.3-0.5-12.8-4.4-17.9L874 278.29999999999995c8.2-8.2 15.6-17.2 21.3-27.4l26.3 8.2c13.2 4 27.2-2.9 31.4-15.5 4.6-12.5-2.7-26-15.8-30.1zM775 272.1c-48.3 0-87.5-37.6-87.5-83.9 0-46.4 39.2-83.9 87.5-83.9s87.5 37.5 87.5 83.9c0 46.2-39.2 83.9-87.5 83.9z m0 0M780.3 754.9h-60.2c0 17.4-16.6 30.1-33.7 30.1H179.1c-8.3-0.1-16.2-3.4-22-9.3-5.8-5.9-9-13.9-9-22.2v-626.6s33-94.6 87.2-94.6h443C642.6 48 613 75 594 109H240.7s-32 10.8-32 32.5l370.4 0.2 1.3-2.6c-6.5 18.6-9.9 38.2-10 58 0 47.7 18.9 93.4 52.7 127.1 26.5 26.3 60.5 43.8 97.3 49.9l-2.5-0.2 1.7 334.4h30.1l0.5-331.6c21.3 0 41.5-3.8 60.4-10.5V720c-0.1 0-5.1 34.9-30.3 34.9zM266 394.9h-60.9v61H266v-61z m0 113.6h-60.9v61H266v-61z m0 108.1h-60.9v61H266v-61z m395.2-221.7H310.4v61h350.9v-61z m0 113.6H310.4v61h350.9v-61z m0 108.1H310.4v61h350.9v-61z m0 0"  horiz-adv-x="1024" />

    
    <glyph glyph-name="jiekoufangwenceshi" unicode="&#58996;" d="M896.6 480.5c10.6 0 19.4 8.7 19.4 19.4V660.2c0 10.6-8.7 19.4-19.4 19.4H182.3c-10.6 0-19.4-8.7-19.4-19.4v-160c0-10.6 8.7-19.4 19.4-19.4h308.6v-126.4H226v-155.9h-71.3c-13.7 0-24.6-11.2-24.6-24.6v-189c0-13.7 11.2-24.6 24.6-24.6h180.8c13.7 0 24.6 11.2 24.6 24.6v189c0 13.7-11.2 24.6-24.6 24.6h-53V305.20000000000005h208.4v-106.8h-58.2c-13.7 0-24.6-11.2-24.6-24.6v-189c0-13.7 11.2-24.6 24.6-24.6h180.8c13.7 0 24.6 11.2 24.6 24.6v189c0 13.7-11.2 24.6-24.6 24.6h-58.7V305.20000000000005h208.4v-106.8H711c-13.7 0-24.6-11.2-24.6-24.6v-189c0-13.7 11.2-24.6 24.6-24.6h180.8c13.7 0 24.6 11.2 24.6 24.6v189c0 13.7-11.2 24.6-24.6 24.6h-72.1v156h-265V480.5h341.9zM682.3 610h135.4v-59.5H682.3V610z m0 0"  horiz-adv-x="1024" />

    
    <glyph glyph-name="yonghuweihu" unicode="&#58997;" d="M941 254.89999999999998c-1.7 13.7-20.5 20.5-30.7 8.5l-87-87c-13.7-11.9-30.7-11.9-44.4 0l-44.4 44.4c-11.9 11.9-13.7 30.7 0 44.4l87 87c11.9 11.9 5.1 29-8.5 30.7-52.9 11.9-107.5-6.8-145.1-44.4-44.4-42.7-58-105.8-41-160.4 1.7-8.5 0-17.1-6.8-23.9l-87-87c-11.9-11.9-11.9-30.7 0-44.4l44.4-44.4c13.7-11.9 30.7-11.9 44.4 0l88.7 87c6.8 6.8 15.4 8.5 23.9 6.8 56.3-17.1 117.8 0 160.4 41 39.3 37.6 56.4 88.8 46.1 141.7M511-1.1000000000000227c-11.9 11.9-17.1 27.3-17.1 41H200.4v35.8c0 157 128 283.3 283.3 283.3 46.1 0 92.2-11.9 131.4-34.1 8.5 13.7 17.1 27.3 29 37.5 6.8 6.8 11.9 11.9 17.1 15.4-15.4 8.5-30.7 17.1-49.5 23.9 49.5 37.5 81.9 99 81.9 167.3 0 117.8-95.6 211.6-211.6 211.6-116.1 1.6-210-94-210-210 0-66.6 30.7-128 81.9-167.3C222.5 350.4 130.4 220.70000000000005 130.4 74v-71.7c0-20.5 15.4-35.8 35.8-35.8h375.5L511-1.1000000000000227zM342 570.6c0 78.5 63.1 139.9 139.9 139.9s139.9-63.1 139.9-139.9-63-140-139.8-140-140 61.5-140 140z m467.6-360.1c-8.5 20.5-17.1 37.5-29 52.9l-22.2-22.2 42.7-42.7 8.5 12z m-78.5-172.4l-70-71.7H801c20.5 0 35.8 15.4 35.8 35.8V38c-32.3-8.4-69.8-10.1-105.7 0.1z m0 0"  horiz-adv-x="1024" />

    
    <glyph glyph-name="yonghuguanli" unicode="&#58998;" d="M881.1 123.70000000000005l0.2 79.1s-52.2 10.3-53.1 13.8c-1 3.9-2 7.7-3.2 11.4 6.1 11.3 35.5 36.2 35.5 36.2l-58.9 78.4s-38.2-31.4-47.6-35.9c-4.4 1.7-9.1 3.3-14 4.7-5.1 1.3-19.3 51.6-19.3 51.6l-79.2 0.6s-8.6-48.7-21.4-52c-4.3-1.3-8.6-2.9-12.9-4.8-9.5 4.6-47.6 36.5-47.6 36.5l-58.8-79.7s29.5-29.7 31.5-39.7c-1.3-3.2-2.4-6.4-3.5-9.6-12.7-4.4-48.7-11.6-48.7-11.6l0.2-79.1s41.9-8.7 49.9-15.7c1.7-4.5 3.5-9 5.6-13.3-9.7-12.1-35.5-32.3-35.5-32.3l60.7-79.1s47.7 30.9 55.5 32.6c3.9-1.7 7.9-3.3 11.9-4.7 7.2-2.5 12.2-48.5 12.2-48.5l79.2-0.2s2.7 45.2 8.5 47c5.7 1.8 11.3 3.9 16.8 6.3 6.6-2.6 37.9-33.8 37.9-33.8l78.3 79.7s-29 20.1-37.1 30.9c2.2 4.5 4.2 9.1 6 13.8 2.6 7.3 50.9 17.4 50.9 17.4z m-201.3-60c-55.1 0-99.9 44.7-99.9 99.8 0 55.1 44.7 99.8 99.9 99.8 55.1 0 99.9-44.7 99.9-99.8-0.1-55.1-44.8-99.8-99.9-99.8z m-254 303.7c90.8 0 183.3 89.3 183.3 183.9 0 94.5-88 190.7-178.9 190.7-90.8 0-181.1-98.5-181.1-193 0-94.6 85.8-181.6 176.7-181.6z m39.9-39.4H284.1c-45.4 0-113.6-23.7-136.2-94.5l-45.4-141.8c-11.4-35.6 155-53.7 320.4-53.2 54.9 0.2 17.5 45.3 17.5 102.5-0.1 130.3 111.2 187 25.3 187z m0 0"  horiz-adv-x="1024" />

    
    <glyph glyph-name="zuzhiweihu" unicode="&#58999;" d="M590.7 246.20000000000005c-3.3 0-26.5 23.9-9.9 68.4 36.4 37.6 66.2 99.2 66.2 160.8 0 92.4-62.9 140.2-129 140.2-69.5 0-129-47.9-129-140.2 0-61.6 26.5-123.1 62.9-160.8 13.2-37.6-9.9-65-16.5-68.4-72.8-27.4-155.5-75.3-155.5-126.6v-17.1c0-65 122.4-82.1 238.2-82.1 112.5 0 234.9 13.7 234.9 82.1v17.1c-3.5 51.4-89.5 102.7-162.3 126.6z m218.4 123.2c-3.3 0-23.2 6.8-9.9 47.9 33.1 34.2 56.2 92.4 56.2 150.5 0 85.5-52.9 133.4-119.1 133.4-46.3 0-89.3-23.9-105.9-71.8 39.7-34.2 66.2-85.5 66.2-153.9 0-71.8-33.1-140.2-69.5-184.7 56.2-20.5 142.3-65 165.4-133.4 86 3.4 165.4 23.9 165.4 75.3v17.1c3.4 51.2-76.1 95.6-148.8 119.6z m-595.6 0c3.3 0 23.2 6.8 9.9 47.9-33.1 34.2-56.2 92.4-56.2 150.5 3.3 85.5 56.2 133.4 119.1 133.4 46.3 0 89.3-23.9 105.9-71.8-39.7-34.2-66.2-85.5-66.2-153.9 0-71.8 33.1-140.2 69.5-184.7-56.2-20.5-142.3-65-165.4-133.4-86 3.4-165.4 23.9-165.4 75.3v17.1c-0.1 51.2 79.3 95.6 148.8 119.6z m0 0"  horiz-adv-x="1024" />

    
    <glyph glyph-name="gongnengcaidanweihu" unicode="&#59000;" d="M399.2 758.7H208c-49.2 0-87.4-38.2-87.4-87.4v-191.1c0-49.2 38.2-87.4 87.4-87.4h191.1c49.2 0 87.4 38.2 87.4 87.4V671.3c-5.4 49.1-43.6 87.4-87.3 87.4z m0-404.2H208c-49.2 0-87.4-38.2-87.4-87.4V76c0-49.2 38.2-87.4 87.4-87.4h191.1c49.2 0 87.4 38.2 87.4 87.4V267.20000000000005c-5.4 49.1-43.6 87.3-87.3 87.3z m420.5 0H628.6c-49.1 0-87.4-38.2-87.4-87.4V76c0-49.2 38.2-87.4 87.4-87.4h191.1c49.2 0 87.4 38.2 87.4 87.4V267.20000000000005c0 49.1-38.2 87.3-87.4 87.3z m0 0M743.3 381.79999999999995c-27.3 0-49.2 10.9-65.5 27.3L568.5 512.9c-16.4 16.4-27.3 43.7-27.3 71 0 27.3 10.9 49.2 27.3 65.5l103.8 103.8c38.2 38.2 98.3 38.2 136.5 0l103.8-103.8c16.4-16.4 27.3-43.7 27.3-65.5 0-21.8-10.9-49.2-27.3-65.5L808.8 414.6c-16.4-21.8-43.7-32.8-65.5-32.8z m0 344.1c-10.9 0-21.8-5.5-27.3-10.9L606.7 611.2c-16.4-16.4-16.4-43.7 0-60.1l103.8-103.8c16.4-16.4 43.7-16.4 60.1 0l103.8 103.8c16.4 16.4 16.4 43.7 0 60.1L770.6 715c-5.5 5.4-16.4 10.9-27.3 10.9z m0 0"  horiz-adv-x="1024" />

    
    <glyph glyph-name="shujukuguanli" unicode="&#59001;" d="M862 210.39999999999998c38.7 0 54-15.7 54-55.2v-113.7c0-39.5-15.4-55.2-54-55.2H198.4c-38.7 0-54 15.7-54 55.2V155.20000000000005c0 39.5 15.4 55.2 54 55.2H862z m-207.7-151c19.3 0 35.1 16.1 35.1 35.8 0 19.8-15.7 35.8-35.1 35.8-19.3 0-35.1-16.1-35.1-35.8 0.1-19.7 15.8-35.8 35.1-35.8z m121.4 0c19.3 0 35.1 16.1 35.1 35.8 0 19.8-15.8 35.8-35.1 35.8s-35.1-16.1-35.1-35.8c0-19.7 15.8-35.8 35.1-35.8z m-531.6 56.2c-10.7 0-19.3-10.1-19.3-22.5s8.6-22.5 19.3-22.5h283.4c10.7 0 19.3 10 19.3 22.5 0 12.4-8.6 22.5-19.3 22.5H244.1z m659.4 362.2c10-16.5 12.5-29 12.5-40.6v-107.5c0-39.5-15.4-55.2-54-55.2H198.4c-38.7 0-54 15.7-54 55.2V437.2c0 16.3 6.6 31 12.5 40.6l145 239.3c16.1 26.6 43.9 42.4 74.6 42.4H684c30.6 0 58.5-15.9 74.6-42.4l144.9-239.3zM346.2 708.7L229.6 508.8h606.7L715 708.7c-3.3 5.4-14.8 8.5-21 8.5H364.7c-6.1 0-15.2-3.2-18.5-8.5z m308.1-361.1c19.3 0 35.1 16.1 35.1 35.8 0 19.8-15.7 35.8-35.1 35.8-19.3 0-35.1-16.1-35.1-35.8 0.1-19.7 15.8-35.8 35.1-35.8z m121.4 0c19.3 0 35.1 16.1 35.1 35.8 0 19.8-15.8 35.8-35.1 35.8s-35.1-16.1-35.1-35.8c0-19.7 15.8-35.8 35.1-35.8z m-531.6 58.5c-10.7 0-19.3-10.1-19.3-22.5s8.6-22.5 19.3-22.5h283.4c10.7 0 19.3 10.1 19.3 22.5s-8.6 22.5-19.3 22.5H244.1z m0 0"  horiz-adv-x="1024" />

    
    <glyph glyph-name="shujukubeifen" unicode="&#59002;" d="M307.4 651.6V781.1c0 23.8 19.3 43.2 43.2 43.2h517.9c23.8 0 43.2-19.3 43.2-43.2v-604.2c0-23.8-19.3-43.2-43.2-43.2H739v-129.5c0-23.8-19.4-43.2-43.5-43.2H178.2c-11.5-0.1-22.5 4.5-30.7 12.5-8.2 8.1-12.8 19.1-12.8 30.6l0.1 604.2c0 23.8 19.4 43.2 43.5 43.2h129.1z m86.3 0H739V220h86.3V737.9H393.7v-86.3z m-86.3-215.8v-86.3h258.9v86.3H307.4z m0-172.6v-86.3h258.9v86.3H307.4z m0 0"  horiz-adv-x="1024" />

    
    <glyph glyph-name="beifendingshiqi" unicode="&#59003;" d="M132.3 768v-179.2h716.8V768H132.3z m128-128h-76.8v76.8h76.8V640z m112.6 0h-76.8v76.8h76.8V640z m117.8 0h-76.8v76.8h76.8V640z m0 0M132.3 537.6v-179.2h716.8V537.6H132.3z m128-122.9h-76.8v76.8h76.8v-76.8z m112.6 0h-76.8v76.8h76.8v-76.8z m117.8 0h-76.8v76.8h76.8v-76.8z m0 0M731.3 235.5c-15.4 0-25.6-10.2-25.6-25.6v-112.6c0-15.4 10.2-25.6 25.6-25.6h102.4c15.4 0 25.6 10.2 25.6 25.6 0 15.4-10.2 25.6-25.6 25.6h-76.8v87c0 15.4-10.2 25.6-25.6 25.6z m0 0M756.9 337.9c-35.8 0-66.6-10.2-92.2-25.6H132.3v-179.2h419.8L588 87l71.7 92.2h-46.1c15.4 61.4 71.7 107.5 138.2 107.5 81.9 0 143.4-66.6 143.4-143.4 0-81.9-66.6-143.4-143.4-143.4-41 0-81.9 20.5-112.6 51.2-10.2 10.2-25.6 10.2-35.8 5.1-10.2-10.2-10.2-25.6-5.1-35.8 35.8-41 92.2-66.6 148.5-66.6 107.5 0 194.6 87 194.6 194.6 10.1 102.5-77 189.5-184.5 189.5zM260.3 189.5h-76.8v76.8h76.8v-76.8z m112.6 0h-76.8v76.8h76.8v-76.8z m117.8 0h-76.8v76.8h76.8v-76.8z m0 0"  horiz-adv-x="1024" />

    
    <glyph glyph-name="shujuhuanyuan" unicode="&#59004;" d="M867.7 783.5H765.3c-28.7 0-51.6-22.9-51.6-51.6 0-28.7 22.9-51.6 51.6-51.6h51.6c28.7 0 51.6-22.9 51.6-51.6v-358.8c0-28.7-22.9-51.6-51.6-51.6H714.5c0-85.2-68.8-154-154-154s-154 68.8-154 154H304.9c-28.7 0-51.6 22.9-51.6 51.6V629.5c0 28.7 22.9 51.6 51.6 51.6h50.8c28.7 0 51.6 22.9 51.6 51.6s-22.9 50.8-51.6 50.8H253.3c-56.5 0-102.4-45.9-102.4-102.4v-614.4c0-56.5 45.9-102.4 102.4-102.4h614.4c56.5 0 102.4 45.9 102.4 102.4V681.1c0 56.5-45.9 102.4-102.4 102.4z m0 0M352.4 476.3c0-15.6 4.9-31.1 14.7-43.4l104-127.8c15.6-18.8 42.6-24.6 64.7-12.3 27.9 15.6 34.4 51.6 14.7 76.2l-45.1 55.7h109.8c28.7 0 51.6-22.9 51.6-51.6 0-28.7-22.9-51.6-51.6-51.6h-0.8c-28.7 0-51.6-22.9-51.6-51.6s22.9-51.6 51.6-51.6h0.8c85.2 0 154 68.8 154 154s-68.8 154-154 154H505.6l45.1 55.7c19.7 24.6 13.1 61.4-14.7 76.2-21.3 12.3-48.3 6.6-64.7-12.3l-104-126.2c-10-11.5-14.9-27-14.9-43.4z m0 0"  horiz-adv-x="1024" />

    
    <glyph glyph-name="shujucaijishezhi" unicode="&#59005;" d="M796.8 382.5h-362c-18.5 0-33-14.5-33-33v-233.9c0-18.5 14.5-33 33-33h362c18.5 0 33 14.5 33 33V349.5c0 18.5-14.5 33-33 33z m-88.5-198.2c-14.5 0-26.4 11.9-26.4 26.4 0 6.6 2.6 13.2 7.9 18.5L662 271.5h-2.6L621.1 187c5.3-4 7.9-10.6 7.9-18.5 0-14.5-11.9-26.4-26.4-26.4-14.5 0-26.4 11.9-26.4 26.4 0 4 0 7.9 2.6 11.9l-44.9 50.2c-2.6-1.3-5.3-1.3-7.9-1.3-14.5 0-26.4 11.9-26.4 26.4 0 14.5 11.9 26.4 26.4 26.4 14.5 0 26.4-11.9 26.4-26.4 0-5.3-1.3-10.6-4-14.5l43.6-48.9c2.6 0 5.3 1.3 9.3 1.3h1.3l38.3 84.6c-4 5.3-6.6 11.9-6.6 18.5 0 14.5 11.9 26.4 26.4 26.4 14.5 0 26.4-11.9 26.4-26.4 0-7.9-4-14.5-9.3-19.8l26.4-41h2.6c14.5 0 26.4-11.9 27.7-25.1 0.2-14.6-11.7-26.5-26.2-26.5z m0 0M853.3 620.8h-13.2c-9.3 37-39.6 66.1-76.6 71.4-11.9 39.6-48.9 68.7-92.5 68.7H231c-52.9 0-96.5-43.6-96.5-96.5v-441.3c0-47.6 34.4-87.2 79.3-95.1 10.6-34.4 39.6-60.8 76.6-67.4v-4c0-50.2 41-89.8 89.8-89.8H852c50.2 0 89.8 41 89.8 89.8v473c1.3 50.3-38.3 91.2-88.5 91.2z m-33-159.8c0-5.3-4-10.6-10.6-10.6H425.2c-6.6 0-11.9 4-10.6 10.6 0 5.3 4 10.6 10.6 10.6h384.5c5.3-0.1 10.6-4 10.6-10.6z m-358.1 54.1c0 5.3 4 10.6 10.6 10.6h288c5.3 0 10.6-4 10.6-10.6 0-5.3-4-10.6-10.6-10.6h-288c-6.6 0.1-10.6 5.3-10.6 10.6zM209.8 597v-424c-30.4 10.6-32.9 18.3-32.9 51.3v420c0 39.6 33 72.7 72.7 72.7H661c30.4 0 45.5 1.5 56.1-23.6H306.3c-52.9 0.1-96.5-43.5-96.5-96.4z m81.9-66v-414c-34.4 6.6-38.1 25.7-38.1 60V578.4c0 39.6 33 72.7 72.7 72.7h411.3c31.7 0 49.5-1.1 58.7-30.2H381.6c-50.2-0.1-89.9-41-89.9-89.9z m561.6-414.9c0-30.4-25.1-55.5-55.5-55.5h-362c-30.4 0-55.5 25.1-55.5 55.5V350c0 30.4 25.1 55.5 55.5 55.5h362c30.4 0 55.5-25.1 55.5-55.5v-233.9z m0 0"  horiz-adv-x="1024" />

    
    <glyph glyph-name="jiedianzuweihu" unicode="&#59006;" d="M861.1 456.8h-84.4c-14.7 0-31.1 11.5-35.6 25.8L729.6 510c-7 13.1-3.7 32.8 7 43.4l59.8 59.8c10.6 10.6 10.6 27.9 0 38.5l-53.7 53.7c-5.1 5.1-12 8-19.3 8-7.2 0-14.1-2.9-19.3-8L644 645.3c-10.6-10.6-30.3-13.5-43.4-7L574 649.4c-14.3 4.5-25.8 20.5-25.8 35.6v85.2c0 14.7-12.3 27-27 27h-76.6c-14.7 0-27-12.3-27-27v-85.6c0-14.7-11.5-30.7-25.8-35.6L365 637.9c-13.5-6.6-32.8-3.7-43.4 7L261 705.5c-5.1 5.1-12 8-19.2 8-7.2 0-14.1-2.9-19.3-8l-53.7-54.1c-5.1-5.1-8-12-8-19.3 0-7.2 2.9-14.1 8-19.3l59.8-59.8c10.7-10.6 13.5-29.9 7-43.4l-11.5-27.4c-4.9-14.3-20.9-25.8-35.6-25.8h-84.4c-14.7 0-27-12.3-27-27v-76.2c0-14.7 12.3-27 27-27h83.6c14.7 0 30.7-11.5 35.2-25.8l11.5-28.3c6.6-13.5 3.7-32.8-7-43.4l-58.6-58.6c-5.1-5.1-8-12-8-19.3 0-7.2 2.9-14.1 8-19.3l53.7-53.7c10.7-10.6 27.9-10.6 38.5 0l58.2 58.2c10.6 10.6 29.9 13.5 43.4 7l29.1-12.3c14.3-4.5 25.8-20.5 25.8-35.6v-81.9c0-14.7 12.3-27 27-27h76.2c14.7 0 27 12.3 27 27v81.9c0 14.7 11.5 31.1 25.8 35.6l21.3 9-41 41c-22.5-7.8-46.7-11.5-71.3-11.5-59 0-114.3 22.9-156.1 64.7-41.8 41.8-64.7 97.1-64.7 156.1s22.9 114.3 64.7 156.1c41.8 41.8 97.1 64.7 156.1 64.7s114.3-22.9 156.1-64.7c41.8-41.8 64.7-97.1 64.7-156.1 0-24.2-3.7-47.5-11.1-69.6l41-41 8.6 21.7c4.5 14.3 20.5 25.8 35.2 25.8h83.1c14.7 0 27 12.3 27 27v75.8c1 14.9-11.3 27.1-26 27.1z m-212.2-154c-8.6 8.6-12.7 15.6-7.8 29.1 25.8 72.1 2.5 145.8-60.6 189.6-39.7 27.4-83.6 35.6-132.3 20.9 18.4-21.3 38.9-39.3 58.2-58.2 37.7-37.7 38.5-84 2.5-119.2-34.8-34.4-81.9-33.2-118.4 3.3-18.8 19.3-37.3 38.9-56.1 58.6-2-1.2-4.5-2.9-6.6-4.1-10.6-59 2.5-111.4 46.7-153.6 47.1-45.1 103.2-57.8 165.1-36.9 16 5.3 24.2 2.5 34.8-8.2 45.9-46.7 129.4-126.2 176.5-172 22.5-22.1 50.4-22.9 72.9-3.7 27.9 24.2 29.1 56.1 2.5 82.7C779.6 177.89999999999998 696 257 648.9 302.79999999999995z m135.6-234.3c-14.3 0-25.8 11.5-25.8 25.8s11.5 25.8 25.8 25.8 25.8-11.5 25.8-25.8-11.5-25.8-25.8-25.8z m0 0"  horiz-adv-x="1024" />

    
    <glyph glyph-name="caijijiedianguanli" unicode="&#59007;" d="M583 454.6H391c-13.3 0-24 10.7-24 24s10.7 24 24 24h192c13.3 0 24-10.7 24-24s-10.7-24-24-24z m48-120H343c-13.3 0-24 10.7-24 24s10.7 24 24 24h288c13.3 0 24-10.7 24-24s-10.7-24-24-24zM174.6 229.89999999999998h125.3l85.9-64.8h205.4l80.6 64.8h130.5l-48-178.5H200l-25.4 178.5z m0 0M746.2 3.3999999999999773h-528c-22.3-0.8-42.2 14-48 35.5l-48 174.7c-2.4 8.5-2.4 17.4 0 25.9l131.5 449.2c6 20.5 24.7 34.6 46.1 34.6h364.8c22 0.9 41.8-13.4 48-34.6l129.6-437.2c2.3-8.3 2.3-17.1 0-25.4l-48-186.2c-5.4-22-25.4-37.2-48-36.5z m-491.5 96h454l37.4 137.3-117.5 390.6H336.3l-118-401.2 36.4-126.7z m0 0"  horiz-adv-x="1024" />

    
    <glyph glyph-name="caijijiedianfenpei" unicode="&#59008;" d="M846.6 263.79999999999995h-51.2c2.1 30.3 6.1 161-75.8 252.3-16.8 18.8-36.5 34.4-58.2 47.1V698c0 26.2-21.3 47.5-47.5 47.5H376.4c-26.2 0-47.5-21.3-47.5-47.5v-133.5c-22.5-13.1-42.6-29.1-59.8-48.3-81.9-91.3-77.8-222-75.8-252.3h-51.2c-18 0-32.8-14.7-32.8-32.8v-111.4c0-18 14.7-32.8 32.8-32.8h148.7c18 0 32.8 14.7 32.8 32.8V231c0 18-14.7 32.8-32.8 32.8h-50.4c-1.2 13.5-9.4 139.7 63.9 221.2 12.3 13.5 26.6 24.6 42.2 34.4 8.2-7 18.4-11.5 29.9-11.5h93.8v-244.1h-50.8c-18 0-32.8-14.7-32.8-32.8v-111.4c0-18 14.7-32.8 32.8-32.8h148.3c18 0 32.8 14.7 32.8 32.8V231c0 18-14.7 32.8-32.8 32.8h-50.4V507.9H614c11.1 0 20.9 4.5 29.1 11.1 15.2-9.8 29.1-20.5 41-34 73.3-81.5 64.7-207.7 63.9-221.2h-49.6c-18 0-32.8-14.7-32.8-32.8v-111.4c0-18 14.7-32.8 32.8-32.8H847c18 0 32.8 14.7 32.8 32.8V231c-0.4 18-15.2 32.8-33.2 32.8z m0 0"  horiz-adv-x="1024" />

    
    <glyph glyph-name="caijijiedianzhuangtai" unicode="&#59009;" d="M805.2 575.5c16.8 0 30.3 13.6 30.3 30.3V727.2c0 16.7-13.6 30.3-30.3 30.3H137.7c-16.7 0-30.3-13.6-30.3-30.3v-121.4c0-16.8 13.6-30.3 30.3-30.3h515.8v-91H137.7c-16.7 0-30.3-13.6-30.3-30.3v-121.4c0-16.8 13.6-30.3 30.3-30.3h515.8v-91H137.7c-16.7 0-30.3-13.6-30.3-30.3v-121.4c0-16.8 13.6-30.3 30.3-30.3h667.5c16.8 0 30.3 13.6 30.3 30.3V181c0 16.7-13.6 30.3-30.3 30.3h-60.7v91h60.7c16.8 0 30.3 13.6 30.3 30.3V454.1c0 16.7-13.6 30.3-30.3 30.3h-60.7v91h60.7z m-531-227.6h-91v91h91v-91z m0-273.1h-91v91h91v-91z m0 546.2h-91v91h91v-91z m0 0"  horiz-adv-x="1024" />

    
    <glyph glyph-name="caozuorizhi" unicode="&#59010;" d="M736.6-11.299999999999955H289.4c-49.4 0-89.4 40-89.4 89.4v492c0 49.4 40 89.4 89.4 89.4h22.4v-67.1c0-12.3 10-22.4 22.4-22.4h357.7c12.3 0 22.4 10 22.4 22.4v67.1h22.4c49.4 0 89.4-40 89.4-89.4v-491.9c-0.1-49.4-40.1-89.5-89.5-89.5zM378.8 435.9h-44.7v-44.7h44.7v44.7z m0-134.1h-44.7V257h44.7v44.8z m0-134.2h-44.7v-44.7h44.7v44.7z m313.1 268.3H423.6v-44.7h268.3v44.7z m0-134.1H423.6V257h268.3v44.8z m0-134.2H423.6v-44.7h268.3v44.7z m-44.7 447.2H378.8c-12.4 0-22.4 10-22.4 22.4v44.7c0 12.4 10 22.4 22.4 22.4h268.3c12.4 0 22.4-10 22.4-22.4v-44.7c0-12.4-10-22.4-22.3-22.4z m0 0"  horiz-adv-x="1024" />

    
    <glyph glyph-name="rizhiguanli" unicode="&#59016;" d="M557.6 146.10000000000002H276.4v38.3h281.2v-38.3zM276.4 337.79999999999995h332.3v-38.3H276.4v38.3z m0 153.4H711v-38.4H276.4v38.4z m0 166.2h460.2v-38.3H276.4v38.3z m294-498.5c-0.3 58.8 24.8 114.9 68.9 153.7 44.1 38.9 102.9 56.8 161.2 49V695.7c0 10.2-4 19.9-11.2 27.1-7.2 7.2-16.9 11.2-27.1 11.2H250.9c-10.2 0-19.9-4-27.1-11.2-7.2-7.2-11.2-16.9-11.2-27.1v-639.1c0-10.2 4-19.9 11.2-27.1 7.2-7.2 16.9-11.2 27.1-11.2h375.8c-36.2 37.8-56.3 88.2-56.3 140.6z m216.2-59.3c-32.2 0.5-57.9 26.9-57.6 59 0.3 32.2 26.6 58 58.8 57.9 32.2-0.2 58.2-26.3 58.2-58.5-0.7-32.3-27-58.3-59.4-58.4z m164.4 15l-39 26.7c0 5 1.7 10 1.7 16.7 0.4 5.6-0.2 11.3-1.7 16.7l35.6 28.4c2.9 2.5 3.7 6.7 1.7 10l-33.9 58.4c-2.8 2.5-6.7 3.1-10.2 1.7l-42.4-16.7c-9 6.5-18.7 12.1-28.8 16.7l-6.8 43.4c0.5 2 0 4.2-1.3 5.9-1.3 1.6-3.3 2.6-5.5 2.5h-67.8c-3.4 0-8.5-3.3-8.5-6.7l-6.8-45.1c-10.2-3.3-18.6-10-28.8-16.7L668 273.29999999999995c-4.3 1.5-9 0.2-11.9-3.3l-33.9-58.5c-1.7-1.7 0-6.7 3.4-10l35.6-26.7c0-5-1.7-10-1.7-16.7-0.4-5.6 0.2-11.3 1.7-16.7L625.6 113c-3-2.4-3.7-6.7-1.7-10l33.9-58.5c2.8-2.5 6.7-3.1 10.2-1.7l42.4 16.7c9-6.5 18.7-12.1 28.8-16.7l6.8-43.4c0.5-4.1 4.3-7.1 8.4-6.7h67.8c3.4 0 8.5 3.3 8.5 6.7l6.8 43.4c10.2 4.6 19.8 10.2 28.8 16.7l42.4-16.7c3.8-1.5 8.1-0.1 10.2 3.3l33.9 58.4c1.6 3.4 1.6 8.4-1.8 10.1z m0 0"  horiz-adv-x="1024" />

    
    <glyph glyph-name="renwurizhi" unicode="&#59023;" d="M727.5 394c28.5 0 55.9-4.8 81.4-13.6V711.3c0 31.3-25.4 56.6-56.6 56.6H196.6c-31.3 0-56.6-25.4-56.6-56.6v-666.6c0-31.3 25.4-56.6 56.6-56.6h336.3c-34.4 42.8-55 97.1-55 156.3 0 137.9 111.8 249.6 249.6 249.6zM232.9 583.2c0 19.9 16.2 36 36 36h403.9c19.9 0 36-16.2 36-36 0-19.9-16.2-36-36-36H268.9c-19.9 0-36 16-36 36z m0-177c0 19.9 16.2 36 36 36h236.2c19.9 0 36-16.2 36-36 0-19.9-16.2-36-36-36H268.9c-19.9 0-36 16.1-36 36z m216.7-177c0-19.9-16.2-36-36-36H268.9c-19.9 0-36 16.2-36 36 0 19.9 16.2 36 36 36h144.7c19.8 0 36-16.1 36-36z m0 0M727.5 337.4c-106.6 0-193-86.4-193-193s86.4-193 193-193 193 86.4 193 193-86.4 193-193 193z m118.6-209.8c0-12.1-9.8-21.8-21.8-21.8H721.1c-12.1 0-21.8 9.8-21.8 21.8V269.1c0 12.1 9.8 21.8 21.8 21.8 12.1 0 21.8-9.8 21.8-21.8v-119.6h81.2c12.1 0 22-9.9 22-21.9z m0 0"  horiz-adv-x="1024" />

    
    <glyph glyph-name="tongzhirizhi" unicode="&#59026;" d="M875.03333333 480.5h-66.1V657.2L703.43333333 780.4H307.83333333v-299.8h-66c-13.1 0-23.7-12.6-23.7-28.1v-455.9c0-15.5 10.6-28.1 23.7-28.1h633.3c13.1 0 23.7 12.6 23.7 28.1v456c-0.1 15.4-10.7 27.9-23.8 27.9z m-460.5 162h131.5c5.2 0 9.5-5.1 9.5-11.3 0-6.2-4.2-11.3-9.5-11.3H414.53333333c-5.2 0-9.5 5-9.5 11.3 0.1 6.2 4.3 11.3 9.5 11.3z m0-90.7h287.6c5.2 0 9.5-5 9.5-11.3 0-6.2-4.2-11.3-9.5-11.3H414.53333333c-5.2 0-9.5 5-9.5 11.3 0.1 6.2 4.3 11.3 9.5 11.3z m0-92.7h287.6c5.2 0 9.5-5 9.5-11.3 0-6.2-4.2-11.3-9.5-11.3H414.53333333c-5.2 0-9.5 5-9.5 11.3 0.1 6.3 4.3 11.3 9.5 11.3z m436.9-434.5H265.33333333V424.5h11.5l281.8-224.7 281.3 224.7H851.33333333v-399.8h0.1z m0 0"  horiz-adv-x="1024" />

    
    <glyph glyph-name="jiancerizhi" unicode="&#59027;" d="M387.4 758.8c-0.4-50 0-125.7 0-125.7 0-40.6-29.9-70.5-71.7-70.5H184.6l202.8 196.2z m0 0M184.6 535.6v-501.4c0-34.8 31.1-66.4 72.5-66.4h569.3c34.8 0 59.4 30.7 59.4 66.8V683.5c0 38.1-28.3 75.4-63.1 75.4H412.4c0-64.7 0.4-123.7 0.4-123.7 0-57.3-42.6-99.5-101.6-99.5H184.6z m541.9 50.8c-9-7-21.7-4.9-27.9 4.5-2.5 3.3-3.3 7-3.7 10.7l-30.7 2c-0.4-2.9-1.6-5.3-2.9-7.8-2.5-4.5-6.1-7.8-10.2-10.2l14.7-43.8c14.3 3.3 29.1 0.8 41.4-7 26.6-17.2 35.6-53.7 19.3-81.9-16-28.3-51.2-37.3-77.8-20.1-13.1 8.2-22.1 21.3-25.4 36l-31.5-6.6c0.4-7.4-1.2-15.2-4.9-22.1-10.2-17.6-32.4-23.3-49.2-12.7-16.8 10.6-22.5 33.6-12.3 51.6 10.2 17.6 32.4 23.3 49.1 12.7 5.7-3.7 10.2-8.6 13.1-14.3l33.6 7c0 10.7 2.9 21.3 8.2 30.3 5.7 9.8 13.9 17.6 23.8 22.9L638 582.7c-4.5 0-8.6 1.6-12.3 4.1-12.3 7.8-16.4 24.6-9 37.3 7.4 12.7 23.3 17.2 35.6 9.4 6.6-4.1 11.1-11.1 12.3-18.4l32.4-2c1.2 3.3 3.7 6.1 6.6 8.2 9 7 21.7 4.9 27.9-4.5 6.1-10.3 4-23.4-5-30.4zM336.2 191.10000000000002c0 8.6 8.6 15.6 18.8 15.6h365.4c10.2 0 18.8-7 18.8-15.6v-23.8c0-8.6-8.6-15.6-18.8-15.6h-365c-10.7 0-18.8 7-18.8 15.6v23.8h-0.4z m-0.4 129.5c0 8.6 8.6 15.6 18.8 15.6h366.2c10.2 0 18.8-7 18.8-15.6v-23.8c0-8.6-8.6-15.6-18.8-15.6H354.6c-10.6 0-18.8 7-18.8 15.6v23.8z m0 0"  horiz-adv-x="1024" />

    
    <glyph glyph-name="WEByingyong" unicode="&#59028;" d="M771 727.2H259c-47.1-0.1-85.2-38.3-85.3-85.3v-85.3h682.7v85.3c-0.2 47.1-38.3 85.2-85.4 85.3zM173.7 129.89999999999998c0.1-47.1 38.3-85.2 85.3-85.3h512c47.1 0.1 85.2 38.3 85.3 85.3V522.4H173.7v-392.5z m232.8 254.3L568.9 269l191.4 150.6 27.3-33-217.3-171-159.4 113-104.1-101.4-30.7 30.1 130.4 126.9zM276.1 659c13.8 0 26.3-8.3 31.5-21.1 5.3-12.8 2.4-27.4-7.4-37.2-9.8-9.8-24.4-12.7-37.2-7.4-12.8 5.3-21.1 17.7-21.1 31.5 0.1 18.9 15.4 34.2 34.2 34.2z m102.4 0c13.8 0 26.3-8.3 31.5-21.1 5.3-12.8 2.4-27.4-7.4-37.2-9.8-9.8-24.4-12.7-37.2-7.4-12.8 5.3-21.1 17.7-21.1 31.5 0.1 18.9 15.4 34.2 34.2 34.2z m102.4 0c13.8 0 26.3-8.3 31.5-21.1 5.3-12.8 2.4-27.4-7.4-37.2-9.8-9.8-24.4-12.7-37.2-7.4-12.8 5.3-21.1 17.7-21.1 31.5 0.1 18.9 15.4 34.2 34.2 34.2z m0 0"  horiz-adv-x="1024" />

    
    <glyph glyph-name="shujukuyingyong" unicode="&#59029;" d="M494.6 410.7c72.2 0 139.7 6.6 202.5 19.7 62.8 13.1 112.3 32.5 148.6 58.1v-77.7c0-21-15.7-40.5-47.1-58.5-31.4-18-74.1-32.2-128-42.7-53.9-10.5-112.6-15.8-176-15.8s-122.1 5.3-176 15.8c-53.9 10.5-96.6 24.8-128 42.7-31.4 18-47.1 37.5-47.1 58.5v77.7c36.3-25.6 85.8-45 148.6-58.1 62.7-13.1 130.2-19.7 202.5-19.7z m0-351c72.2 0 139.7 6.6 202.5 19.7 62.8 13.1 112.3 32.5 148.6 58.1v-77.7c0-21-15.7-40.5-47.1-58.5-31.4-18-74.1-32.2-128-42.7-53.9-10.5-112.6-15.8-176-15.8s-122.1 5.3-176 15.8c-53.9 10.5-96.6 24.8-128 42.7-31.4 18-47.1 37.5-47.1 58.5v77.7c36.3-25.6 85.8-45 148.6-58.1 62.7-13.2 130.2-19.7 202.5-19.7z m0 175.5c72.2 0 139.7 6.6 202.5 19.7 62.8 13.1 112.3 32.5 148.6 58.1v-77.7c0-21-15.7-40.5-47.1-58.5-31.4-18-74.1-32.2-128-42.7-53.9-10.5-112.6-15.8-176-15.8s-122.1 5.3-176 15.8c-53.9 10.5-96.6 24.8-128 42.7-31.4 18-47.1 37.5-47.1 58.5V313c36.3-25.6 85.8-45 148.6-58.1 62.7-13.1 130.2-19.7 202.5-19.7z m0 526.6c63.4 0 122.1-5.3 176-15.8 53.9-10.5 96.6-24.8 128-42.7 31.4-18 47.1-37.5 47.1-58.5v-58.5c0-21-15.7-40.5-47.1-58.5-31.4-18-74.1-32.2-128-42.7-53.9-10.5-112.6-15.8-176-15.8s-122.1 5.3-176 15.8c-53.9 10.5-96.6 24.8-128 42.7-31.4 18-47.1 37.5-47.1 58.5v58.5c0 21 15.7 40.5 47.1 58.5 31.4 18 74.1 32.2 128 42.7 53.9 10.6 112.6 15.8 176 15.8z m0 0"  horiz-adv-x="1024" />

    
    <glyph glyph-name="caijiqiyingyong" unicode="&#59030;" d="M675.7 5.899999999999977H318.1c-98.6 0-178.8 80.2-178.8 178.8V542.3c0 98.6 80.2 178.8 178.8 178.8h357.6c98.6 0 178.8-80.2 178.8-178.8v-357.6c0-98.6-80.2-178.8-178.8-178.8zM318.1 656.1c-62.7 0-113.8-51-113.8-113.8v-357.6c0-62.7 51-113.8 113.8-113.8h357.6c62.7 0 113.8 51 113.8 113.8V542.3c0 62.7-51 113.8-113.8 113.8H318.1z m0 0M568.5 229.70000000000005H425.4c-34.5 0-62.6 28.2-62.6 62.6V435.4c0 34.5 28.2 62.6 62.6 62.6h143.1c34.5 0 62.6-28.2 62.6-62.6v-143.1c0.1-34.5-28.1-62.6-62.6-62.6z m0 0M578.6 469.9h-16.8v98.2c0 4.6 3.8 8.4 8.4 8.4s8.4-3.8 8.4-8.4v-98.2z m-50.7 0h-16.8v98.2c0 4.6 3.8 8.4 8.4 8.4 4.6 0 8.4-3.8 8.4-8.4v-98.2z m-50.7 0h-16.8v98.2c0 4.6 3.8 8.4 8.4 8.4 4.6 0 8.4-3.8 8.4-8.4v-98.2z m-50.7 0h-16.8v98.2c0 4.6 3.8 8.4 8.4 8.4 4.6 0 8.4-3.8 8.4-8.4v-98.2z m143.7-313.2c-4.6 0-8.4 3.8-8.4 8.4v98.1h16.8V165c0-4.5-3.7-8.3-8.4-8.3z m-50.7 0c-4.6 0-8.4 3.8-8.4 8.4v98.1h16.8V165c0-4.5-3.8-8.3-8.4-8.3z m-50.7 0c-4.6 0-8.4 3.8-8.4 8.4v98.1h16.8V165c0-4.5-3.8-8.3-8.4-8.3z m-50.7 0c-4.6 0-8.4 3.8-8.4 8.4v98.1h16.8V165c0-4.5-3.8-8.3-8.4-8.3zM280.9 288.4c0 4.6 3.8 8.4 8.4 8.4h98.2V280h-98.2c-4.6 0-8.4 3.7-8.4 8.4z m0 50.7c0 4.6 3.8 8.4 8.4 8.4h98.2v-16.8h-98.2c-4.6 0-8.4 3.8-8.4 8.4z m0 50.7c0 4.6 3.8 8.4 8.4 8.4h98.2v-16.8h-98.2c-4.6 0-8.4 3.8-8.4 8.4z m0 50.7c0 4.6 3.8 8.4 8.4 8.4h98.2v-16.8h-98.2c-4.6 0-8.4 3.8-8.4 8.4zM605.5 280v16.8h98.2c4.6 0 8.4-3.8 8.4-8.4 0-4.6-3.8-8.4-8.4-8.4h-98.2z m0 50.7v16.8h98.2c4.6 0 8.4-3.8 8.4-8.4s-3.8-8.4-8.4-8.4h-98.2z m0 50.7v16.8h98.2c4.6 0 8.4-3.8 8.4-8.4 0-4.6-3.8-8.4-8.4-8.4h-98.2z m0 50.7v16.8h98.2c4.6 0 8.4-3.8 8.4-8.4 0-4.6-3.8-8.4-8.4-8.4h-98.2z m0 0"  horiz-adv-x="1024" />

    


  </font>
</defs>
</svg>
